<svg width="124" height="31" viewBox="0 0 124 31" fill="none" xmlns="http://www.w3.org/2000/svg">
<rect x="0.5" y="0.5" width="123" height="30" stroke="#EC622B"/>
<path d="M12.05 21H13.1V16.17H16.18C18.56 16.156 19.12 14.896 19.12 13.692C19.12 12.502 18.56 11.214 16.18 11.2H12.05V21ZM13.1 12.04H16.222C17.594 12.04 18.14 12.74 18.14 13.692C18.14 14.644 17.594 15.33 16.222 15.33H13.1V12.04ZM20.8 21H27.59V20.16H21.85V16.31H26.19V15.47H21.85V12.04H27.59V11.2H20.8V21ZM29.4133 21H30.4633V12.04H35.6433V11.2H29.4133V21ZM37.1789 21H38.2289L44.3889 12.53V21H45.4389V11.2H44.3889L38.2289 19.67V11.2H37.1789V21ZM48.1722 16.1C48.1722 13.72 49.6422 11.9 52.0222 11.9C54.1082 11.9 55.3962 12.964 55.6762 14.7H56.7402C56.4322 12.348 54.6402 10.92 52.0222 10.92C49.1102 10.92 47.1222 13.104 47.1222 16.1C47.1222 19.096 49.1662 21.28 52.0922 21.28C54.7102 21.28 56.5022 19.852 56.8102 17.5H55.7462C55.4662 19.25 54.1782 20.3 52.0922 20.3C49.6982 20.3 48.1722 18.48 48.1722 16.1ZM65.3495 11.2H57.4395V12.04H60.8695V21H61.9195V12.04H65.3495V11.2ZM66.8195 21H67.8695V16.17H70.9495C73.3295 16.156 73.8895 14.896 73.8895 13.692C73.8895 12.502 73.3295 11.214 70.9495 11.2H66.8195V21ZM67.8695 12.04H70.9915C72.3635 12.04 72.9095 12.74 72.9095 13.692C72.9095 14.644 72.3635 15.33 70.9915 15.33H67.8695V12.04ZM73.8152 21H74.7952L75.8172 18.27H80.2692L81.2772 21H82.3272L78.6732 11.2H77.6092L73.8152 21ZM78.0712 12.32L79.9612 17.43H76.1392L78.0712 12.32ZM92.6233 20.16H91.2233V11.2H90.1733V20.16H84.7133V11.2H83.6633V21H91.7133V23.24H92.6233V20.16ZM94.0266 21H95.0766L101.237 12.53V21H102.287V11.2H101.237L95.0766 19.67V11.2H94.0266V21ZM105.79 18.34C105.79 16.842 106.028 16.45 107.526 16.45H110.69V21H111.74V11.2H107.4C104.95 11.214 104.39 12.712 104.39 13.762C104.39 15.568 105.902 15.918 105.902 15.918V16.058C105.062 16.24 104.74 16.842 104.74 18.48V19.53C104.74 20.44 104.53 20.51 104.04 20.51H103.83V21H105.79V18.34ZM110.69 15.61H107.568C105.776 15.61 105.37 14.574 105.37 13.762C105.37 12.88 105.916 12.04 107.358 12.04H110.69V15.61Z" fill="#EC622B"/>
</svg>
