<svg width="274" height="62" viewBox="0 0 274 62" fill="none" xmlns="http://www.w3.org/2000/svg">
<path d="M17.08 34.96C17.08 38.08 19.84 40.48 24.28 40.48C28.96 40.48 31.48 38.08 31.48 35.2C31.48 31.72 27.88 31.48 27.88 31.48V31.24C27.88 31.24 30.88 30.76 30.88 27.76C30.88 24.76 28.36 22.72 24.16 22.72C20.2 22.72 17.44 25.12 17.44 28.24H19.24C19.24 26.32 20.8 24.4 24.16 24.4C27.52 24.4 29.08 25.96 29.08 27.76C29.08 29.8 27.52 30.76 24.16 30.76H21.28V32.2H24.28C27.52 32.2 29.68 32.8 29.68 35.2C29.68 37.12 28 38.8 24.28 38.8C20.56 38.8 18.88 36.88 18.88 34.96H17.08ZM32.8159 40H34.4959L36.2479 35.32H43.8799L45.6079 40H47.4079L41.1439 23.2H39.3199L32.8159 40ZM40.1119 25.12L43.3519 33.88H36.7999L40.1119 25.12ZM63.1384 23.2H49.6984V40H51.4984V24.64H61.3384V40H63.1384V23.2ZM66.0175 31.6C66.0175 36.736 69.6415 40.48 74.5375 40.48C79.4335 40.48 83.0575 36.736 83.0575 31.6C83.0575 26.464 79.4335 22.72 74.5375 22.72C69.6415 22.72 66.0175 26.464 66.0175 31.6ZM67.8175 31.6C67.8175 27.52 70.5535 24.4 74.5375 24.4C78.5215 24.4 81.2575 27.52 81.2575 31.6C81.2575 35.68 78.5215 38.8 74.5375 38.8C70.5535 38.8 67.8175 35.68 67.8175 31.6ZM95.6575 24.64V40H97.4575V23.2H89.1775V26.8C89.1775 38.08 85.3375 38.608 83.6575 38.608C83.4175 38.608 83.1775 38.584 83.1775 38.584V40C83.1775 40 83.4175 40.12 83.9215 40.12C85.8175 40.12 90.7375 39.52 90.7375 27.28V24.64H95.6575ZM114.73 23.2H112.93V30.52H102.85V23.2H101.05V40H102.85V31.96H112.93V40H114.73V23.2ZM118.347 40H120.147L130.707 25.48V40H132.507V23.2H130.707L120.147 37.72V23.2H118.347V40ZM148.593 23.2H135.033V24.64H140.913V40H142.713V24.64H148.593V23.2ZM151.113 40H162.753V38.56H152.913V31.96H160.353V30.52H152.913V24.64H162.753V23.2H151.113V40ZM182.32 40V37.72H183.52C188.56 37.72 190 34.048 190 31.528C190 28.984 188.56 25.36 183.52 25.36H182.32V23.2H180.52V25.36H179.32C174.52 25.36 172.84 28.984 172.84 31.528C172.84 34.048 174.28 37.72 179.32 37.72H180.52V40H182.32ZM180.52 36.28H179.248C175.696 36.28 174.52 33.64 174.52 31.528C174.52 29.416 175.696 26.8 179.248 26.8H180.52V36.28ZM182.32 26.8H183.592C187.144 26.8 188.32 29.416 188.32 31.528C188.32 33.64 187.144 36.28 183.592 36.28H182.32V26.8ZM191.924 31.6C191.924 36.736 195.548 40.48 200.444 40.48C205.34 40.48 208.964 36.736 208.964 31.6C208.964 26.464 205.34 22.72 200.444 22.72C195.548 22.72 191.924 26.464 191.924 31.6ZM193.724 31.6C193.724 27.52 196.46 24.4 200.444 24.4C204.428 24.4 207.164 27.52 207.164 31.6C207.164 35.68 204.428 38.8 200.444 38.8C196.46 38.8 193.724 35.68 193.724 31.6ZM211.839 40H213.639V31.72H218.919C222.999 31.696 223.959 29.536 223.959 27.472C223.959 25.432 222.999 23.224 218.919 23.2H211.839V40ZM213.639 24.64H218.991C221.343 24.64 222.279 25.84 222.279 27.472C222.279 29.104 221.343 30.28 218.991 30.28H213.639V24.64ZM232.839 40H234.399L238.839 25.96V40H240.519V23.2H238.239L233.679 37.744L229.119 23.2H226.839V40H228.399V25.96L232.839 40ZM258.225 23.2H256.377L250.977 34.552L244.881 23.2H242.913L250.137 36.352L249.825 37C249.393 37.936 248.913 38.68 247.833 38.68H246.033V40.24H247.833C250.233 40.24 250.809 38.92 251.433 37.48L258.225 23.2Z" fill="#EC622B"/>
<rect x="1" y="1" width="272" height="60" stroke="#EC622B" stroke-width="2"/>
</svg>
