<svg width="227" height="42" viewBox="0 0 227 42" fill="none" xmlns="http://www.w3.org/2000/svg">
<path d="M33.72 23.64C33.72 25.72 35.56 27.32 38.52 27.32C41.64 27.32 43.32 25.72 43.32 23.8C43.32 21.48 40.92 21.32 40.92 21.32V21.16C40.92 21.16 42.92 20.84 42.92 18.84C42.92 16.84 41.24 15.48 38.44 15.48C35.8 15.48 33.96 17.08 33.96 19.16H35.16C35.16 17.88 36.2 16.6 38.44 16.6C40.68 16.6 41.72 17.64 41.72 18.84C41.72 20.2 40.68 20.84 38.44 20.84H36.52V21.8H38.52C40.68 21.8 42.12 22.2 42.12 23.8C42.12 25.08 41 26.2 38.52 26.2C36.04 26.2 34.92 24.92 34.92 23.64H33.72ZM44.2106 27H45.3306L46.4986 23.88H51.5866L52.7386 27H53.9386L49.7626 15.8H48.5466L44.2106 27ZM49.0746 17.08L51.2346 22.92H46.8666L49.0746 17.08ZM64.4256 15.8H55.4656V27H56.6656V16.76H63.2256V27H64.4256V15.8ZM66.345 21.4C66.345 24.824 68.761 27.32 72.025 27.32C75.289 27.32 77.705 24.824 77.705 21.4C77.705 17.976 75.289 15.48 72.025 15.48C68.761 15.48 66.345 17.976 66.345 21.4ZM67.545 21.4C67.545 18.68 69.369 16.6 72.025 16.6C74.681 16.6 76.505 18.68 76.505 21.4C76.505 24.12 74.681 26.2 72.025 26.2C69.369 26.2 67.545 24.12 67.545 21.4ZM86.105 16.76V27H87.305V15.8H81.785V18.2C81.785 25.72 79.225 26.072 78.105 26.072C77.945 26.072 77.785 26.056 77.785 26.056V27C77.785 27 77.945 27.08 78.281 27.08C79.545 27.08 82.825 26.68 82.825 18.52V16.76H86.105ZM98.82 15.8H97.62V20.68H90.9V15.8H89.7V27H90.9V21.64H97.62V27H98.82V15.8ZM101.231 27H102.431L109.471 17.32V27H110.671V15.8H109.471L102.431 25.48V15.8H101.231V27ZM121.395 15.8H112.355V16.76H116.275V27H117.475V16.76H121.395V15.8ZM123.075 27H130.835V26.04H124.275V21.64H129.235V20.68H124.275V16.76H130.835V15.8H123.075V27ZM143.88 27V25.48H144.68C148.04 25.48 149 23.032 149 21.352C149 19.656 148.04 17.24 144.68 17.24H143.88V15.8H142.68V17.24H141.88C138.68 17.24 137.56 19.656 137.56 21.352C137.56 23.032 138.52 25.48 141.88 25.48H142.68V27H143.88ZM142.68 24.52H141.832C139.464 24.52 138.68 22.76 138.68 21.352C138.68 19.944 139.464 18.2 141.832 18.2H142.68V24.52ZM143.88 18.2H144.728C147.096 18.2 147.88 19.944 147.88 21.352C147.88 22.76 147.096 24.52 144.728 24.52H143.88V18.2ZM150.283 21.4C150.283 24.824 152.699 27.32 155.963 27.32C159.227 27.32 161.643 24.824 161.643 21.4C161.643 17.976 159.227 15.48 155.963 15.48C152.699 15.48 150.283 17.976 150.283 21.4ZM151.483 21.4C151.483 18.68 153.307 16.6 155.963 16.6C158.619 16.6 160.443 18.68 160.443 21.4C160.443 24.12 158.619 26.2 155.963 26.2C153.307 26.2 151.483 24.12 151.483 21.4ZM163.559 27H164.759V21.48H168.279C170.999 21.464 171.639 20.024 171.639 18.648C171.639 17.288 170.999 15.816 168.279 15.8H163.559V27ZM164.759 16.76H168.327C169.895 16.76 170.519 17.56 170.519 18.648C170.519 19.736 169.895 20.52 168.327 20.52H164.759V16.76ZM177.559 27H178.599L181.559 17.64V27H182.679V15.8H181.159L178.119 25.496L175.079 15.8H173.559V27H174.599V17.64L177.559 27ZM194.483 15.8H193.251L189.651 23.368L185.587 15.8H184.275L189.091 24.568L188.883 25C188.595 25.624 188.275 26.12 187.555 26.12H186.355V27.16H187.555C189.155 27.16 189.539 26.28 189.955 25.32L194.483 15.8Z" fill="#EC622B"/>
<rect x="0.75" y="0.75" width="225.5" height="40.5" stroke="#EC622B" stroke-width="1.5"/>
</svg>
