<svg width="414" height="83" viewBox="0 0 414 83" fill="none" xmlns="http://www.w3.org/2000/svg">
<path d="M25.62 48.44C25.62 53.12 29.76 56.72 36.42 56.72C43.44 56.72 47.22 53.12 47.22 48.8C47.22 43.58 41.82 43.22 41.82 43.22V42.86C41.82 42.86 46.32 42.14 46.32 37.64C46.32 33.14 42.54 30.08 36.24 30.08C30.3 30.08 26.16 33.68 26.16 38.36H28.86C28.86 35.48 31.2 32.6 36.24 32.6C41.28 32.6 43.62 34.94 43.62 37.64C43.62 40.7 41.28 42.14 36.24 42.14H31.92V44.3H36.42C41.28 44.3 44.52 45.2 44.52 48.8C44.52 51.68 42 54.2 36.42 54.2C30.84 54.2 28.32 51.32 28.32 48.44H25.62ZM49.2239 56H51.7439L54.3719 48.98H65.8199L68.4119 56H71.1119L61.7159 30.8H58.9799L49.2239 56ZM60.1679 33.68L65.0279 46.82H55.1999L60.1679 33.68ZM94.7077 30.8H74.5477V56H77.2477V32.96H92.0077V56H94.7077V30.8ZM99.0263 43.4C99.0263 51.104 104.462 56.72 111.806 56.72C119.15 56.72 124.586 51.104 124.586 43.4C124.586 35.696 119.15 30.08 111.806 30.08C104.462 30.08 99.0263 35.696 99.0263 43.4ZM101.726 43.4C101.726 37.28 105.83 32.6 111.806 32.6C117.782 32.6 121.886 37.28 121.886 43.4C121.886 49.52 117.782 54.2 111.806 54.2C105.83 54.2 101.726 49.52 101.726 43.4ZM143.486 32.96V56H146.186V30.8H133.766V36.2C133.766 53.12 128.006 53.912 125.486 53.912C125.126 53.912 124.766 53.876 124.766 53.876V56C124.766 56 125.126 56.18 125.882 56.18C128.726 56.18 136.106 55.28 136.106 36.92V32.96H143.486ZM172.095 30.8H169.395V41.78H154.275V30.8H151.575V56H154.275V43.94H169.395V56H172.095V30.8ZM177.52 56H180.22L196.06 34.22V56H198.76V30.8H196.06L180.22 52.58V30.8H177.52V56ZM222.889 30.8H202.549V32.96H211.369V56H214.069V32.96H222.889V30.8ZM226.669 56H244.129V53.84H229.369V43.94H240.529V41.78H229.369V32.96H244.129V30.8H226.669V56ZM273.48 56V52.58H275.28C282.84 52.58 285 47.072 285 43.292C285 39.476 282.84 34.04 275.28 34.04H273.48V30.8H270.78V34.04H268.98C261.78 34.04 259.26 39.476 259.26 43.292C259.26 47.072 261.42 52.58 268.98 52.58H270.78V56H273.48ZM270.78 50.42H268.872C263.544 50.42 261.78 46.46 261.78 43.292C261.78 40.124 263.544 36.2 268.872 36.2H270.78V50.42ZM273.48 36.2H275.388C280.716 36.2 282.48 40.124 282.48 43.292C282.48 46.46 280.716 50.42 275.388 50.42H273.48V36.2ZM287.886 43.4C287.886 51.104 293.322 56.72 300.666 56.72C308.01 56.72 313.446 51.104 313.446 43.4C313.446 35.696 308.01 30.08 300.666 30.08C293.322 30.08 287.886 35.696 287.886 43.4ZM290.586 43.4C290.586 37.28 294.69 32.6 300.666 32.6C306.642 32.6 310.746 37.28 310.746 43.4C310.746 49.52 306.642 54.2 300.666 54.2C294.69 54.2 290.586 49.52 290.586 43.4ZM317.759 56H320.459V43.58H328.379C334.499 43.544 335.939 40.304 335.939 37.208C335.939 34.148 334.499 30.836 328.379 30.8H317.759V56ZM320.459 32.96H328.487C332.015 32.96 333.419 34.76 333.419 37.208C333.419 39.656 332.015 41.42 328.487 41.42H320.459V32.96ZM349.259 56H351.599L358.259 34.94V56H360.779V30.8H357.359L350.519 52.616L343.679 30.8H340.259V56H342.599V34.94L349.259 56ZM387.337 30.8H384.565L376.465 47.828L367.321 30.8H364.369L375.205 50.528L374.737 51.5C374.089 52.904 373.369 54.02 371.749 54.02H369.049V56.36H371.749C375.349 56.36 376.213 54.38 377.149 52.22L387.337 30.8Z" fill="#EC622B"/>
<rect x="1.25" y="1.25" width="411.5" height="80.5" stroke="#EC622B" stroke-width="2.5"/>
</svg>
