<svg width="519" height="97" viewBox="0 0 519 97" fill="none" xmlns="http://www.w3.org/2000/svg">
<path d="M38.98 56.76C38.98 62.48 44.04 66.88 52.18 66.88C60.76 66.88 65.38 62.48 65.38 57.2C65.38 50.82 58.78 50.38 58.78 50.38V49.94C58.78 49.94 64.28 49.06 64.28 43.56C64.28 38.06 59.66 34.32 51.96 34.32C44.7 34.32 39.64 38.72 39.64 44.44H42.94C42.94 40.92 45.8 37.4 51.96 37.4C58.12 37.4 60.98 40.26 60.98 43.56C60.98 47.3 58.12 49.06 51.96 49.06H46.68V51.7H52.18C58.12 51.7 62.08 52.8 62.08 57.2C62.08 60.72 59 63.8 52.18 63.8C45.36 63.8 42.28 60.28 42.28 56.76H38.98ZM67.8292 66H70.9092L74.1212 57.42H88.1132L91.2812 66H94.5812L83.0972 35.2H79.7532L67.8292 66ZM81.2052 38.72L87.1452 54.78H75.1332L81.2052 38.72ZM123.42 35.2H98.7805V66H102.08V37.84H120.12V66H123.42V35.2ZM128.699 50.6C128.699 60.016 135.343 66.88 144.319 66.88C153.295 66.88 159.939 60.016 159.939 50.6C159.939 41.184 153.295 34.32 144.319 34.32C135.343 34.32 128.699 41.184 128.699 50.6ZM131.999 50.6C131.999 43.12 137.015 37.4 144.319 37.4C151.623 37.4 156.639 43.12 156.639 50.6C156.639 58.08 151.623 63.8 144.319 63.8C137.015 63.8 131.999 58.08 131.999 50.6ZM183.039 37.84V66H186.339V35.2H171.159V41.8C171.159 62.48 164.119 63.448 161.039 63.448C160.599 63.448 160.159 63.404 160.159 63.404V66C160.159 66 160.599 66.22 161.523 66.22C164.999 66.22 174.019 65.12 174.019 42.68V37.84H183.039ZM218.005 35.2H214.705V48.62H196.225V35.2H192.925V66H196.225V51.26H214.705V66H218.005V35.2ZM224.636 66H227.936L247.296 39.38V66H250.596V35.2H247.296L227.936 61.82V35.2H224.636V66ZM280.086 35.2H255.226V37.84H266.006V66H269.306V37.84H280.086V35.2ZM284.706 66H306.046V63.36H288.006V51.26H301.646V48.62H288.006V37.84H306.046V35.2H284.706V66ZM341.92 66V61.82H344.12C353.36 61.82 356 55.088 356 50.468C356 45.804 353.36 39.16 344.12 39.16H341.92V35.2H338.62V39.16H336.42C327.62 39.16 324.54 45.804 324.54 50.468C324.54 55.088 327.18 61.82 336.42 61.82H338.62V66H341.92ZM338.62 59.18H336.288C329.776 59.18 327.62 54.34 327.62 50.468C327.62 46.596 329.776 41.8 336.288 41.8H338.62V59.18ZM341.92 41.8H344.252C350.764 41.8 352.92 46.596 352.92 50.468C352.92 54.34 350.764 59.18 344.252 59.18H341.92V41.8ZM359.527 50.6C359.527 60.016 366.171 66.88 375.147 66.88C384.123 66.88 390.767 60.016 390.767 50.6C390.767 41.184 384.123 34.32 375.147 34.32C366.171 34.32 359.527 41.184 359.527 50.6ZM362.827 50.6C362.827 43.12 367.843 37.4 375.147 37.4C382.451 37.4 387.467 43.12 387.467 50.6C387.467 58.08 382.451 63.8 375.147 63.8C367.843 63.8 362.827 58.08 362.827 50.6ZM396.038 66H399.338V50.82H409.018C416.498 50.776 418.258 46.816 418.258 43.032C418.258 39.292 416.498 35.244 409.018 35.2H396.038V66ZM399.338 37.84H409.15C413.462 37.84 415.178 40.04 415.178 43.032C415.178 46.024 413.462 48.18 409.15 48.18H399.338V37.84ZM434.538 66H437.398L445.538 40.26V66H448.618V35.2H444.438L436.078 61.864L427.718 35.2H423.538V66H426.398V40.26L434.538 66ZM481.078 35.2H477.69L467.79 56.012L456.614 35.2H453.006L466.25 59.312L465.678 60.5C464.886 62.216 464.006 63.58 462.026 63.58H458.726V66.44H462.026C466.426 66.44 467.482 64.02 468.626 61.38L481.078 35.2Z" fill="#EC622B"/>
<rect x="1.5" y="1.5" width="516" height="94" stroke="#EC622B" stroke-width="3"/>
</svg>
