<svg width="197" height="55" viewBox="0 0 197 55" fill="none" xmlns="http://www.w3.org/2000/svg">
<rect x="1" y="1" width="195" height="53" stroke="#EC622B" stroke-width="2"/>
<path d="M49 36.76C49 38.68 49.48 39 51.24 39H52.84V37.08H52.04C51.4 37.08 51.4 36.76 51.4 36.12V30.456C51.4 27 48.648 27.16 48.648 27.16V26.84C48.648 26.84 51.24 26.808 51.24 23.096V19.8C51.24 19.16 51.24 18.2 52.2 18.2H52.84V16.28H51.4C49.16 16.28 49 17.56 49 19.16V22.296C49 24.792 48.552 26.36 45.736 26.36H37.8V16.6H35.4V39H37.8V28.28H45.736C48.232 28.28 49 28.6 49 31.096V36.76ZM75.966 16.6H73.502L66.302 31.736L58.174 16.6H55.55L65.182 34.136L64.766 35C64.19 36.248 63.55 37.24 62.11 37.24H59.71V39.32H62.11C65.31 39.32 66.078 37.56 66.91 35.64L75.966 16.6ZM96.9138 16.6H78.9938V39H81.3938V18.52H94.5138V39H96.9138V16.6ZM101.713 39H104.113L118.193 19.64V39H120.593V16.6H118.193L104.113 35.96V16.6H101.713V39ZM142.04 16.6H123.96V18.52H131.8V39H134.2V18.52H142.04V16.6ZM145.4 39H154.84C160.28 38.968 161.56 36.024 161.56 33.304C161.56 30.552 160.28 27.672 154.84 27.64H147.8V16.6H145.4V39ZM147.8 29.56H154.936C158.072 29.56 159.32 31.128 159.32 33.304C159.32 35.48 158.072 37.08 154.936 37.08H147.8V29.56Z" fill="#EC622B"/>
</svg>
