<svg width="314" height="348" viewBox="0 0 314 348" fill="none" xmlns="http://www.w3.org/2000/svg">
<g clip-path="url(#clip0)">
<path d="M164.066 158.094H149.933V205.91H164.066V158.094Z" fill="#FF99C6"/>
<path d="M314 55.3047H0V169.896H314V55.3047Z" fill="#FF99C6"/>
<path d="M264.081 115.758H219.233V135.362H264.081V115.758Z" fill="#FC73AF"/>
<path d="M92.8326 115.758H47.9843V135.362H92.8326V115.758Z" fill="#FC73AF"/>
<path d="M193.695 16.6875H117.823V58.043H193.695V16.6875Z" fill="#4E40B5"/>
<path d="M193.704 53.7031H117.779V69.5153H193.704V53.7031Z" fill="#373089"/>
<path d="M164.385 0H147.769V16.6872H164.385V0Z" fill="#373089"/>
<path d="M243.225 44.0078H193.704V125.305H243.225V44.0078Z" fill="white"/>
<path d="M103.777 28.5117H68.3369V38.5877H103.777V28.5117Z" fill="black"/>
<path d="M234.029 44H203.164V125.297H234.029V44Z" fill="black"/>
<path d="M195.692 191.25H117.452V264.186H195.692V191.25Z" fill="#373089"/>
<path d="M250.132 237.879H63.001V348.007H250.132V237.879Z" fill="#4E40B5"/>
<path d="M250.132 248.586H63.001V258.733H250.132V248.586Z" fill="#BBBBF9"/>
<path d="M250.132 269.477H63.001V279.623H250.132V269.477Z" fill="#BBBBF9"/>
<path d="M250.133 290.363H63.0013V300.51H250.133V290.363Z" fill="#BBBBF9"/>
<path d="M250.133 311.25H63.0013V321.397H250.133V311.25Z" fill="#BBBBF9"/>
<path d="M250.132 332.172H63.001V342.319H250.132V332.172Z" fill="#BBBBF9"/>
<path d="M117.823 44.0078H68.3988V125.305H117.823V44.0078Z" fill="white"/>
<path d="M117.823 52.5H87.0287V103.154H117.823V52.5Z" fill="black"/>
<path d="M181.849 117.387H128.485V141.286H181.849V117.387Z" fill="white"/>
<path d="M177.477 79.8281H131.957V97.081H177.477V79.8281Z" fill="black"/>
<path d="M175.366 121.387H134.457V135.042H175.366V121.387Z" fill="black"/>
<path d="M105.73 63.7673V73.4102H112.903V63.7673H105.73Z" fill="white"/>
</g>
<defs>
<clipPath id="clip0">
<rect width="314" height="348" fill="white"/>
</clipPath>
</defs>
</svg>
