<svg width="200" height="348" viewBox="0 0 200 348" fill="none" xmlns="http://www.w3.org/2000/svg">
<path d="M136 113H36V348H136V113Z" fill="#4E40B5"/>
<path d="M200 101H132V147H200V101Z" fill="#4E40B5"/>
<path d="M185 113H163V136H185V113Z" fill="#373089"/>
<path d="M151 29H20V159H151V29Z" fill="#ED76AA"/>
<path d="M49 53L28.5 33L8 53H49Z" fill="#020202"/>
<path d="M81 53H33V101H81V53Z" fill="white"/>
<path d="M69 64H46V87H69V64Z" fill="black"/>
<path d="M61 69H53V76H61V69Z" fill="white"/>
<path d="M116.5 149C131.688 149 144 136.688 144 121.5C144 106.312 131.688 94 116.5 94C101.312 94 89 106.312 89 121.5C89 136.688 101.312 149 116.5 149Z" fill="white"/>
<path d="M120 108C122.761 108 125 105.538 125 102.5C125 99.4624 122.761 97 120 97C117.239 97 115 99.4624 115 102.5C115 105.538 117.239 108 120 108Z" fill="black"/>
<path d="M105.5 130C112.404 130 118 124.627 118 118C118 111.373 112.404 106 105.5 106C98.5964 106 93 111.373 93 118C93 124.627 98.5964 130 105.5 130Z" fill="black"/>
<path d="M109.5 118C111.433 118 113 116.657 113 115C113 113.343 111.433 112 109.5 112C107.567 112 106 113.343 106 115C106 116.657 107.567 118 109.5 118Z" fill="white"/>
<path d="M62 132H20V163H62V132Z" fill="white"/>
<path d="M81 187.228V187.181V143H0V187.181V187.228H0.0458138L3.39027 193.091L6.78054 199L10.125 193.091L13.4695 187.228H13.5611L16.9055 193.091L20.25 199L23.6403 193.091L26.9847 187.228H27.0764L30.4208 193.091L33.7653 199L37.1555 193.091L40.5 187.228H40.5458L43.8903 193.091L47.2805 199L50.6708 193.091L54.0153 187.228H54.0611L57.4055 193.091L60.7958 199L64.1403 193.091L67.4847 187.228H67.5305L70.875 193.091L74.2653 199L77.6555 193.091L81 187.228Z" fill="white"/>
<path d="M54 138H28V154H54V138Z" fill="black"/>
<path fill-rule="evenodd" clip-rule="evenodd" d="M125.013 83.7049C125.169 82.0639 126.63 80.8588 128.278 81.0133C134.916 81.636 139.31 84.5248 142.033 87.3393C143.377 88.7298 144.3 90.0849 144.894 91.1095C145.191 91.623 145.409 92.0579 145.558 92.3789C145.632 92.5396 145.689 92.6723 145.731 92.7727C145.752 92.8229 145.769 92.8651 145.782 92.8987L145.799 92.9427L145.806 92.9598L145.809 92.9671L145.81 92.9704C145.81 92.972 145.811 92.9735 143.105 93.9766L145.811 92.9735C146.388 94.5183 145.599 96.2367 144.048 96.8117C142.504 97.3841 140.787 96.6076 140.202 95.0766C140.201 95.073 140.198 95.0659 140.193 95.0554C140.181 95.0244 140.155 94.964 140.115 94.8782C140.035 94.7063 139.901 94.4346 139.703 94.0933C139.306 93.4081 138.665 92.461 137.716 91.4807C135.853 89.5538 132.743 87.4276 127.716 86.9561C126.068 86.8015 124.858 85.3459 125.013 83.7049Z" fill="black"/>
<path d="M53 110H5V120H53V110Z" fill="black"/>
<path d="M53 0H20V29H53V0Z" fill="#ED76AA"/>
<path d="M156 246H16V298H156V246Z" fill="white"/>
</svg>
