<svg width="239" height="367" viewBox="0 0 239 367" fill="none" xmlns="http://www.w3.org/2000/svg">
<path d="M122.763 89.0419L148.494 32.2622L94.3386 59.266L74.2442 0L54.1553 59.266L0 32.2622L25.7307 89.0419H122.763Z" fill="#4FB2E5"/>
<path d="M218.627 89.0423L238.794 47.5764L196.35 67.2982L180.603 24.0117L164.852 67.2982L122.407 47.5764L142.574 89.0423H218.627Z" fill="white"/>
<path d="M142.473 156.07H101.337V255.117H142.473V156.07Z" fill="#E73D3E"/>
<path d="M151.514 366.17H93.2992C52.8516 366.17 20.0664 333.469 20.0664 293.136C20.0664 252.798 52.857 220.102 93.2992 220.102H151.514C191.962 220.102 224.747 252.803 224.747 293.136C224.753 333.469 191.962 366.17 151.514 366.17Z" fill="#ED76AA"/>
<path d="M218.727 89.0391H25.083V172.078H218.727V89.0391Z" fill="#E73D3E"/>
<path d="M218.727 95.043H151.503V145.066H218.727V95.043Z" fill="white"/>
<path d="M200.667 111.051H168.56V145.067H200.667V111.051Z" fill="black"/>
<path d="M218.727 78.0352H151.503V95.0432H218.727V78.0352Z" fill="black"/>
<path d="M61.2034 145.065C82.8152 145.065 100.334 127.597 100.334 106.047H22.0732C22.0732 127.597 39.5971 145.065 61.2034 145.065Z" fill="white"/>
<path d="M61.705 145.065C68.6336 145.065 74.2468 127.597 74.2468 106.047H49.1633C49.1633 127.597 54.7817 145.065 61.705 145.065Z" fill="black"/>
<path d="M136.454 101.047H106.354V143.067H136.454V101.047Z" fill="black"/>
<path d="M129.179 155.074H114.633C110.618 155.074 107.357 158.433 107.357 162.578C107.357 166.723 110.613 170.081 114.633 170.081H129.179C133.194 170.081 136.454 166.723 136.454 162.578C136.454 158.433 133.194 155.074 129.179 155.074Z" fill="black"/>
<path d="M131.438 275.116C131.438 275.116 152.935 243.627 213.711 275.116C213.711 275.116 163.311 315.661 131.438 275.116Z" fill="white"/>
<path d="M166.554 290.138C170.987 290.138 174.581 283.867 174.581 276.132C174.581 268.396 170.987 262.125 166.554 262.125C162.121 262.125 158.527 268.396 158.527 276.132C158.527 283.867 162.121 290.138 166.554 290.138Z" fill="black"/>
<path d="M67.2237 259.623C67.2237 265.975 62.0608 271.128 55.6854 271.128C49.3153 271.128 44.147 265.98 44.147 259.623C44.147 253.271 49.3099 248.117 55.6854 248.117C62.0608 248.117 67.2237 253.271 67.2237 259.623Z" fill="white"/>
<path d="M120.4 277.129H91.3037V321.15H120.4V277.129Z" fill="white"/>
</svg>
