<svg width="231" height="348" viewBox="0 0 231 348" fill="none" xmlns="http://www.w3.org/2000/svg">
<path d="M205 0H26V38.6659V118H51.0476L65.5532 61.7082L170.547 53.777L179.952 118H205V46.5372V0Z" fill="#FC73AF"/>
<path d="M45 84.5581C45 46.6945 75.8833 16 113.98 16H117.02C155.117 16 186 46.6945 186 84.5582V100.442C186 138.306 155.117 169 117.02 169H113.98C75.8833 169 45 138.305 45 100.442V84.5581Z" fill="#FF8947"/>
<path d="M192 191H231V286H192V191Z" fill="#8000D4"/>
<path d="M0 191H39V286H0V191Z" fill="#8000D4"/>
<path d="M193 176H38V348H193V176Z" fill="#8000D4"/>
<path d="M127 72H104V95H127V72Z" fill="black"/>
<path d="M79 84.5C79 98.031 68.2548 109 55 109C41.7452 109 31 98.031 31 84.5C31 70.969 41.7452 60 55 60C68.2548 60 79 70.969 79 84.5Z" fill="white"/>
<path d="M71 79.5C71 84.7467 66.7467 89 61.5 89C56.2533 89 52 84.7467 52 79.5C52 74.2533 56.2533 70 61.5 70C66.7467 70 71 74.2533 71 79.5Z" fill="black"/>
<path fill-rule="evenodd" clip-rule="evenodd" d="M97 161H134V175.38H134L134 175.38V175.38H134L116.138 204L97.0003 175.38H97V161Z" fill="#FF8947"/>
<path d="M185 243C185 258.464 172.24 271 156.5 271C140.76 271 128 258.464 128 243C128 227.536 140.76 215 156.5 215C172.24 215 185 227.536 185 243Z" fill="white"/>
<path d="M103 306.5C103 322.24 90.2401 335 74.5 335C58.7599 335 46 322.24 46 306.5C46 290.76 58.7599 278 74.5 278C90.2401 278 103 290.76 103 306.5Z" fill="white"/>
<path fill-rule="evenodd" clip-rule="evenodd" d="M129.503 252C127.964 252 126.459 252.127 125 252.371L125 266.508C126.291 266.033 127.791 265.75 129.503 265.75C136.634 265.75 140.087 270.655 140.087 274C140.087 277.345 136.634 282.25 129.503 282.25C127.791 282.25 126.291 281.967 125 281.492L125 295.629C126.459 295.873 127.964 296 129.503 296C138.06 296 145.592 292.058 149.971 286.084L207 286.084L207 261.912L149.968 261.912C145.589 255.941 138.058 252 129.503 252Z" fill="#FF8947"/>
<path d="M125 257H134V263H125V257Z" fill="white"/>
<path d="M125 286H134V292H125V286Z" fill="white"/>
<path fill-rule="evenodd" clip-rule="evenodd" d="M101.497 252C103.036 252 104.541 252.127 106 252.371L106 266.508C104.709 266.033 103.209 265.75 101.497 265.75C94.3663 265.75 90.9132 270.655 90.9132 274C90.9132 277.345 94.3663 282.25 101.497 282.25C103.209 282.25 104.709 281.967 106 281.492L106 295.629C104.541 295.873 103.036 296 101.497 296C92.9404 296 85.4083 292.058 81.0294 286.084L24 286.084L24 261.912L81.032 261.912C85.4114 255.941 92.9421 252 101.497 252Z" fill="#FF8947"/>
<path d="M106 257H97V263H106V257Z" fill="white"/>
<path d="M106 286H97V292H106V286Z" fill="white"/>
<path d="M168.5 102C151.655 102 138 89.0163 138 73H199C199 89.0163 185.345 102 168.5 102Z" fill="white"/>
<path fill-rule="evenodd" clip-rule="evenodd" d="M138 69C138 60.7157 144.716 54 153 54C161.268 54 167.974 60.6897 168 68.9518C168.026 60.6897 174.732 54 183 54C191.284 54 198 60.7157 198 69L168 69L168 69L138 69Z" fill="black"/>
<path d="M168.5 88C160.492 88 154 81.2843 154 73H183C183 81.2843 176.508 88 168.5 88Z" fill="black"/>
<path d="M160.5 78C158.567 78 157 76.2091 157 74H164C164 76.2091 162.433 78 160.5 78Z" fill="white"/>
<path d="M103 214.5C103 229.688 90.2401 242 74.5 242C58.7599 242 46 229.688 46 214.5C46 199.312 58.7599 187 74.5 187C90.2401 187 103 199.312 103 214.5Z" fill="white"/>
<rect x="79.6211" y="118.5" width="71.1111" height="25.9268" rx="12.9634" fill="black"/>
<path d="M99.9098 118.5H91.7361V130.496H99.9098V118.5Z" fill="white"/>
<path d="M111.352 118.5H103.179V130.496H111.352V118.5Z" fill="white"/>
<path d="M126.525 132.434H118.352V144.43H126.525V132.434Z" fill="white"/>
<path d="M138.321 132.434H130.147V144.43H138.321V132.434Z" fill="white"/>
</svg>
