<svg width="220" height="348" viewBox="0 0 220 348" fill="none" xmlns="http://www.w3.org/2000/svg">
<g clip-path="url(#clip0)">
<path d="M122.458 172.617H97V210.511H122.458V172.617Z" fill="#FF8947"/>
<path d="M199.678 0H20.2778V24.9654V76.1891H45.3814V30.0477H174.574V76.1891H199.678V30.0477V0Z" fill="#8000D4"/>
<path d="M123.57 2.89844H122.596V30.0037H123.57V2.89844Z" fill="white"/>
<path fill-rule="evenodd" clip-rule="evenodd" d="M122.075 2.375H124.092V30.5301H122.075V2.375ZM123.571 2.89989V30.0052H122.597V2.89989H123.571Z" fill="white"/>
<path d="M128.75 2.89844H127.776V30.0037H128.75V2.89844Z" fill="white"/>
<path fill-rule="evenodd" clip-rule="evenodd" d="M127.255 2.375H129.272V30.5301H127.255V2.375ZM128.75 2.89989V30.0052H127.776V2.89989H128.75Z" fill="white"/>
<path d="M133.93 2.89844H132.956V30.0037H133.93V2.89844Z" fill="white"/>
<path fill-rule="evenodd" clip-rule="evenodd" d="M132.436 2.375H134.452V30.5301H132.436V2.375ZM133.931 2.89989V30.0052H132.957V2.89989H133.931Z" fill="white"/>
<path d="M139.155 2.89844H138.181V30.0037H139.155V2.89844Z" fill="white"/>
<path fill-rule="evenodd" clip-rule="evenodd" d="M137.659 2.375H139.676V30.5301H137.659V2.375ZM139.155 2.89989V30.0052H138.181V2.89989H139.155Z" fill="white"/>
<path d="M144.335 2.89844H143.361V30.0037H144.335V2.89844Z" fill="white"/>
<path fill-rule="evenodd" clip-rule="evenodd" d="M142.84 2.375H144.857V30.5301H142.84V2.375ZM144.335 2.89989V30.0052H143.361V2.89989H144.335Z" fill="white"/>
<path d="M149.515 2.89844H148.541V30.0037H149.515V2.89844Z" fill="white"/>
<path fill-rule="evenodd" clip-rule="evenodd" d="M148.02 2.375H150.036V30.5301H148.02V2.375ZM149.515 2.89989V30.0052H148.541V2.89989H149.515Z" fill="white"/>
<path d="M154.739 2.89844H153.765V30.0037H154.739V2.89844Z" fill="white"/>
<path fill-rule="evenodd" clip-rule="evenodd" d="M153.244 2.375H155.261V30.5301H153.244V2.375ZM154.74 2.89989V30.0052H153.765V2.89989H154.74Z" fill="white"/>
<path d="M159.919 2.89844H158.945V30.0037H159.919V2.89844Z" fill="white"/>
<path fill-rule="evenodd" clip-rule="evenodd" d="M158.424 2.375H160.441V30.5301H158.424V2.375ZM159.919 2.89989V30.0052H158.945V2.89989H159.919Z" fill="white"/>
<path d="M165.1 2.89844H164.126V30.0037H165.1V2.89844Z" fill="white"/>
<path fill-rule="evenodd" clip-rule="evenodd" d="M163.604 2.375H165.621V30.5301H163.604V2.375ZM165.1 2.89989V30.0052H164.126V2.89989H165.1Z" fill="white"/>
<path d="M170.324 2.89844H169.35V30.0037H170.324V2.89844Z" fill="white"/>
<path fill-rule="evenodd" clip-rule="evenodd" d="M168.829 2.375H170.846V30.5301H168.829V2.375ZM170.324 2.89989V30.0052H169.35V2.89989H170.324Z" fill="white"/>
<path d="M175.504 2.89844H174.53V30.0037H175.504V2.89844Z" fill="white"/>
<path fill-rule="evenodd" clip-rule="evenodd" d="M174.009 2.375H176.025V30.5301H174.009V2.375ZM175.504 2.89989V30.0052H174.53V2.89989H175.504Z" fill="white"/>
<path d="M44.496 2.89844H43.522V30.0037H44.496V2.89844Z" fill="white"/>
<path fill-rule="evenodd" clip-rule="evenodd" d="M43.001 2.375H45.0177V30.5301H43.001V2.375ZM44.4963 2.89989V30.0052H43.5223V2.89989H44.4963Z" fill="white"/>
<path d="M49.7204 2.89844H48.7463V30.0037H49.7204V2.89844Z" fill="white"/>
<path fill-rule="evenodd" clip-rule="evenodd" d="M48.2246 2.375H50.2413V30.5301H48.2246V2.375ZM49.72 2.89989V30.0052H48.7459V2.89989H49.72Z" fill="white"/>
<path d="M54.9004 2.89844H53.9264V30.0037H54.9004V2.89844Z" fill="white"/>
<path fill-rule="evenodd" clip-rule="evenodd" d="M53.4053 2.375H55.422V30.5301H53.4053V2.375ZM54.9006 2.89989V30.0052H53.9266V2.89989H54.9006Z" fill="white"/>
<path d="M60.0805 2.89844H59.1064V30.0037H60.0805V2.89844Z" fill="white"/>
<path fill-rule="evenodd" clip-rule="evenodd" d="M58.585 2.375H60.6017V30.5301H58.585V2.375ZM60.0803 2.89989V30.0052H59.1063V2.89989H60.0803Z" fill="white"/>
<path d="M65.3047 2.89844H64.3307V30.0037H65.3047V2.89844Z" fill="white"/>
<path fill-rule="evenodd" clip-rule="evenodd" d="M63.8096 2.375H65.8263V30.5301H63.8096V2.375ZM65.3049 2.89989V30.0052H64.3309V2.89989H65.3049Z" fill="white"/>
<path d="M70.4848 2.89844H69.5107V30.0037H70.4848V2.89844Z" fill="white"/>
<path fill-rule="evenodd" clip-rule="evenodd" d="M68.9893 2.375H71.006V30.5301H68.9893V2.375ZM70.4846 2.89989V30.0052H69.5106V2.89989H70.4846Z" fill="white"/>
<path d="M75.6648 2.89844H74.6908V30.0037H75.6648V2.89844Z" fill="white"/>
<path fill-rule="evenodd" clip-rule="evenodd" d="M74.1699 2.375H76.1866V30.5301H74.1699V2.375ZM75.6653 2.89989V30.0052H74.6912V2.89989H75.6653Z" fill="white"/>
<path d="M80.8455 2.89844H79.8715V30.0037H80.8455V2.89844Z" fill="white"/>
<path fill-rule="evenodd" clip-rule="evenodd" d="M79.3506 2.375H81.3673V30.5301H79.3506V2.375ZM80.846 2.89989V30.0052H79.8719V2.89989H80.846Z" fill="white"/>
<path d="M86.0697 2.89844H85.0957V30.0037H86.0697V2.89844Z" fill="white"/>
<path fill-rule="evenodd" clip-rule="evenodd" d="M84.5742 2.375H86.5909V30.5301H84.5742V2.375ZM86.0696 2.89989V30.0052H85.0955V2.89989H86.0696Z" fill="white"/>
<path d="M91.2498 2.89844H90.2758V30.0037H91.2498V2.89844Z" fill="white"/>
<path fill-rule="evenodd" clip-rule="evenodd" d="M89.7549 2.375H91.7716V30.5301H89.7549V2.375ZM91.2503 2.89989V30.0052H90.2762V2.89989H91.2503Z" fill="white"/>
<path d="M96.4299 2.89844H95.4559V30.0037H96.4299V2.89844Z" fill="white"/>
<path fill-rule="evenodd" clip-rule="evenodd" d="M94.9346 2.375H96.9513V30.5301H94.9346V2.375ZM96.4299 2.89989V30.0052H95.4559V2.89989H96.4299Z" fill="white"/>
<path d="M180.197 30.0898H38.5186V172.749H180.197V30.0898Z" fill="#FF8947"/>
<path d="M84.1657 145.871H53.0849C41.485 145.871 32.0103 136.331 32.0103 124.65C32.0103 112.97 41.485 103.43 53.0849 103.43H84.1657C95.7656 103.43 105.24 112.97 105.24 124.65C105.24 136.331 95.7656 145.871 84.1657 145.871Z" fill="black"/>
<path fill-rule="evenodd" clip-rule="evenodd" d="M53.0849 105.005C42.3489 105.005 33.5743 113.84 33.5743 124.651C33.5743 135.461 42.3489 144.297 53.0849 144.297H84.1656C94.9017 144.297 103.676 135.461 103.676 124.651C103.676 113.84 94.9017 105.005 84.1656 105.005H53.0849ZM30.4463 124.651C30.4463 112.101 40.6211 101.855 53.0849 101.855H84.1656C96.6295 101.855 106.804 112.101 106.804 124.651C106.804 137.201 96.6295 147.446 84.1656 147.446H53.0849C40.6211 147.446 30.4463 137.201 30.4463 124.651Z" fill="white"/>
<path d="M49.1005 115.914C51.9125 115.914 54.1921 113.18 54.1921 109.807C54.1921 106.434 51.9125 103.699 49.1005 103.699C46.2885 103.699 44.0089 106.434 44.0089 109.807C44.0089 113.18 46.2885 115.914 49.1005 115.914Z" fill="white"/>
<path d="M62.1171 115.914C64.9291 115.914 67.2086 113.18 67.2086 109.807C67.2086 106.434 64.9291 103.699 62.1171 103.699C59.3051 103.699 57.0255 106.434 57.0255 109.807C57.0255 113.18 59.3051 115.914 62.1171 115.914Z" fill="white"/>
<path d="M75.1339 115.914C77.9459 115.914 80.2255 113.18 80.2255 109.807C80.2255 106.434 77.9459 103.699 75.1339 103.699C72.3219 103.699 70.0424 106.434 70.0424 109.807C70.0424 113.18 72.3219 115.914 75.1339 115.914Z" fill="white"/>
<path d="M88.1063 115.914C90.9183 115.914 93.1979 113.18 93.1979 109.807C93.1979 106.434 90.9183 103.699 88.1063 103.699C85.2943 103.699 83.0148 106.434 83.0148 109.807C83.0148 113.18 85.2943 115.914 88.1063 115.914Z" fill="white"/>
<path d="M49.1005 145.649C51.9125 145.649 54.1921 142.914 54.1921 139.541C54.1921 136.168 51.9125 133.434 49.1005 133.434C46.2885 133.434 44.0089 136.168 44.0089 139.541C44.0089 142.914 46.2885 145.649 49.1005 145.649Z" fill="white"/>
<path d="M62.1171 145.649C64.9291 145.649 67.2086 142.914 67.2086 139.541C67.2086 136.168 64.9291 133.434 62.1171 133.434C59.3051 133.434 57.0255 136.168 57.0255 139.541C57.0255 142.914 59.3051 145.649 62.1171 145.649Z" fill="white"/>
<path d="M75.1339 145.649C77.9459 145.649 80.2255 142.914 80.2255 139.541C80.2255 136.168 77.9459 133.434 75.1339 133.434C72.3219 133.434 70.0424 136.168 70.0424 139.541C70.0424 142.914 72.3219 145.649 75.1339 145.649Z" fill="white"/>
<path d="M88.1063 145.649C90.9183 145.649 93.1979 142.914 93.1979 139.541C93.1979 136.168 90.9183 133.434 88.1063 133.434C85.2943 133.434 83.0148 136.168 83.0148 139.541C83.0148 142.914 85.2943 145.649 88.1063 145.649Z" fill="white"/>
<path d="M165.985 65.043L184.049 96.5172L202.113 127.992H165.985H129.901L147.965 96.5172L165.985 65.043Z" fill="white"/>
<path d="M166.162 82.4727L176.478 100.439L186.75 118.405H166.162H145.574L155.89 100.439L166.162 82.4727Z" fill="black"/>
<path d="M83.5461 61.7461H15.1862V74.0951H83.5461V61.7461Z" fill="black"/>
<path d="M83.5461 73.6055H15.1862V85.9544H83.5461V73.6055Z" fill="white"/>
<path d="M113.432 156.434H103.337V166.598H113.432V156.434Z" fill="white"/>
<path d="M128.662 156.434H118.567V166.598H128.662V156.434Z" fill="white"/>
<path d="M143.892 156.434H133.798V166.598H143.892V156.434Z" fill="white"/>
<path d="M159.123 156.434H149.028V166.598H159.123V156.434Z" fill="white"/>
<path d="M174.309 156.434H164.214V166.598H174.309V156.434Z" fill="white"/>
<path d="M44.1413 54.3869L39.1826 44.2224L28.0254 42.5729L36.0834 34.682L34.1795 23.4922L44.1413 28.7973L54.1031 23.4922L52.1993 34.682L60.2572 42.5729L49.1443 44.2224L44.1413 54.3869Z" fill="black"/>
<path d="M189.495 45.0742H151.861V57.6907H189.495V45.0742Z" fill="black"/>
<path d="M98.5709 71.5078L91 83.9459L106.895 78.0167L112.827 91.0343L118.716 78.0167L134.655 83.9459L127.084 71.5078H98.5709Z" fill="white"/>
<path d="M133.326 187.508H85.7754L62 229.013L85.7754 270.473H133.326L157.146 229.013L133.326 187.508Z" fill="#8000D4"/>
<path d="M220 270.027H0V348H220V270.027Z" fill="#8000D4"/>
</g>
<defs>
<clipPath id="clip0">
<rect width="220" height="348" fill="white"/>
</clipPath>
</defs>
</svg>
