<svg width="257" height="348" viewBox="0 0 257 348" fill="none" xmlns="http://www.w3.org/2000/svg">
<path d="M181.283 78.1211H79.1235V180.281H181.283V78.1211Z" fill="#55D195"/>
<path d="M204.319 95.1479C224.232 95.1479 240.375 79.0049 240.375 59.0915C240.375 39.1781 224.232 23.0352 204.319 23.0352C184.406 23.0352 168.263 39.1781 168.263 59.0915C168.263 79.0049 184.406 95.1479 204.319 95.1479Z" fill="#55D195"/>
<path d="M41.5214 14.0234L60.3223 46.0735L79.1232 78.1236H41.5214H4.00586L22.7205 46.0735L41.5214 14.0234Z" fill="#55D195"/>
<path d="M204.319 33.0508L217.297 55.586L230.36 78.1212H204.319H178.278L191.256 55.586L204.319 33.0508Z" fill="white"/>
<path d="M204.319 45.0703L211.831 58.1339L219.343 71.111H204.319H189.296L196.808 58.1339L204.319 45.0703Z" fill="black"/>
<path d="M129.703 197.309L148.525 229.359L167.261 261.409H129.703H92.144L110.88 229.359L129.703 197.309Z" fill="#55D195"/>
<path d="M139.926 179.281H119.394L109.171 197.353L119.394 215.338H139.926L150.235 197.353L139.926 179.281Z" fill="#55D195"/>
<path d="M245.383 260.406H15.0234V347.542H245.383V260.406Z" fill="#55D195"/>
<path d="M48.0754 33.0508H36.0566V94.1463H48.0754V33.0508Z" fill="black"/>
<path d="M44.0688 42.0664H40.0625V86.1353H44.0688V42.0664Z" fill="white"/>
<path d="M152.709 161.252H107.698C90.8715 161.252 77.1204 147.514 77.1204 130.704C77.1204 113.894 90.8715 100.156 107.698 100.156H152.709C169.535 100.156 183.286 113.894 183.286 130.704C183.286 147.514 169.535 161.252 152.709 161.252Z" fill="black"/>
<path fill-rule="evenodd" clip-rule="evenodd" d="M107.654 101.954C91.8446 101.954 78.9174 114.887 78.9174 130.703C78.9174 146.519 91.8446 159.452 107.654 159.452H152.753C168.562 159.452 181.489 146.519 181.489 130.703C181.489 114.887 168.562 101.954 152.753 101.954H107.654ZM75.1172 130.703C75.1172 112.787 89.7458 98.1523 107.654 98.1523H152.753C170.661 98.1523 185.289 112.787 185.289 130.703C185.289 148.619 170.661 163.254 152.753 163.254H107.654C89.7458 163.254 75.1172 148.619 75.1172 130.703Z" fill="white"/>
<path d="M101.658 118.184C105.807 118.184 109.17 114.149 109.17 109.17C109.17 104.192 105.807 100.156 101.658 100.156C97.5098 100.156 94.1467 104.192 94.1467 109.17C94.1467 114.149 97.5098 118.184 101.658 118.184Z" fill="white"/>
<path d="M120.688 118.184C124.837 118.184 128.2 114.149 128.2 109.17C128.2 104.192 124.837 100.156 120.688 100.156C116.54 100.156 113.177 104.192 113.177 109.17C113.177 114.149 116.54 118.184 120.688 118.184Z" fill="white"/>
<path d="M139.718 118.184C143.866 118.184 147.23 114.149 147.23 109.17C147.23 104.192 143.866 100.156 139.718 100.156C135.569 100.156 132.206 104.192 132.206 109.17C132.206 114.149 135.569 118.184 139.718 118.184Z" fill="white"/>
<path d="M158.247 118.184C162.119 118.184 165.258 114.149 165.258 109.17C165.258 104.192 162.119 100.156 158.247 100.156C154.375 100.156 151.236 104.192 151.236 109.17C151.236 114.149 154.375 118.184 158.247 118.184Z" fill="white"/>
<path d="M101.658 161.251C105.807 161.251 109.17 157.215 109.17 152.237C109.17 147.258 105.807 143.223 101.658 143.223C97.5098 143.223 94.1467 147.258 94.1467 152.237C94.1467 157.215 97.5098 161.251 101.658 161.251Z" fill="white"/>
<path d="M120.688 161.251C124.837 161.251 128.2 157.215 128.2 152.237C128.2 147.258 124.837 143.223 120.688 143.223C116.54 143.223 113.177 147.258 113.177 152.237C113.177 157.215 116.54 161.251 120.688 161.251Z" fill="white"/>
<path d="M139.718 161.251C143.866 161.251 147.23 157.215 147.23 152.237C147.23 147.258 143.866 143.223 139.718 143.223C135.569 143.223 132.206 147.258 132.206 152.237C132.206 157.215 135.569 161.251 139.718 161.251Z" fill="white"/>
<path d="M158.247 161.251C162.119 161.251 165.258 157.215 165.258 152.237C165.258 147.258 162.119 143.223 158.247 143.223C154.375 143.223 151.236 147.258 151.236 152.237C151.236 157.215 154.375 161.251 158.247 161.251Z" fill="white"/>
<path d="M27.0423 0H0V27.0423H27.0423V0Z" fill="black"/>
<path d="M256.888 23.3123L232.562 3.5L225.524 12.1407L249.851 31.953L256.888 23.3123Z" fill="black"/>
<path d="M56.0874 283.441H27.042V313.488H56.0874V283.441Z" fill="white"/>
<path d="M100.157 283.441H71.1113V313.488H100.157V283.441Z" fill="white"/>
<path d="M144.225 283.441H115.18V313.488H144.225V283.441Z" fill="white"/>
<path d="M188.294 283.441H159.249V313.488H188.294V283.441Z" fill="white"/>
<path d="M232.363 283.441H203.317V313.488H232.363V283.441Z" fill="white"/>
</svg>
