<svg width="670" height="265" viewBox="0 0 670 265" fill="none" xmlns="http://www.w3.org/2000/svg">
<rect width="670" height="265" fill="white"/>
<path d="M65.3 109H78.104C85.54 108.956 89.104 105.876 89.104 100.332C89.104 92.72 82.196 92.72 82.196 92.72V92.28C82.196 92.28 87.96 91.84 87.96 85.592C87.96 80.532 84.44 78.244 77.4 78.2H65.3V109ZM68.6 94.26H78.28C83.78 94.26 86.024 96.372 86.024 100.332C86.024 103.852 83.78 106.36 78.28 106.36H68.6V94.26ZM68.6 80.84H77.4C81.8 80.84 84.88 81.94 84.88 85.68C84.88 89.86 81.8 91.62 77.4 91.62H68.6V80.84ZM91.0675 109H94.1475L97.3595 100.42H111.352L114.52 109H117.82L106.336 78.2H102.992L91.0675 109ZM104.444 81.72L110.384 97.78H98.3715L104.444 81.72ZM153.039 78.2H149.739V106.36H139.179V78.2H135.879V106.36H125.319V78.2H122.019V109H153.039V78.2ZM157.239 109H160.319L163.531 100.42H177.523L180.691 109H183.991L172.507 78.2H169.163L157.239 109ZM170.615 81.72L176.555 97.78H164.543L170.615 81.72ZM201.394 99.76C201.394 105.48 206.454 109.88 214.594 109.88C223.174 109.88 227.794 105.48 227.794 100.2C227.794 93.82 221.194 93.38 221.194 93.38V92.94C221.194 92.94 226.694 92.06 226.694 86.56C226.694 81.06 222.074 77.32 214.374 77.32C207.114 77.32 202.054 81.72 202.054 87.44H205.354C205.354 83.92 208.214 80.4 214.374 80.4C220.534 80.4 223.394 83.26 223.394 86.56C223.394 90.3 220.534 92.06 214.374 92.06H209.094V94.7H214.594C220.534 94.7 224.494 95.8 224.494 100.2C224.494 103.72 221.414 106.8 214.594 106.8C207.774 106.8 204.694 103.28 204.694 99.76H201.394ZM230.243 109H233.323L236.535 100.42H250.527L253.695 109H256.995L245.511 78.2H242.167L230.243 109ZM243.619 81.72L249.559 97.78H237.547L243.619 81.72ZM265.595 100.64C265.595 95.932 266.343 94.7 271.051 94.7H280.995V109H284.295V78.2H270.655C262.955 78.244 261.195 82.952 261.195 86.252C261.195 91.928 265.947 93.028 265.947 93.028V93.468C263.307 94.04 262.295 95.932 262.295 101.08V104.38C262.295 107.24 261.635 107.46 260.095 107.46H259.435V109H265.595V100.64ZM280.995 92.06H271.183C265.551 92.06 264.275 88.804 264.275 86.252C264.275 83.48 265.991 80.84 270.523 80.84H280.995V92.06ZM290.886 109H303.69C311.126 108.956 314.69 105.876 314.69 100.332C314.69 92.72 307.782 92.72 307.782 92.72V92.28C307.782 92.28 313.546 91.84 313.546 85.592C313.546 80.532 310.026 78.244 302.986 78.2H290.886V109ZM294.186 94.26H303.866C309.366 94.26 311.61 96.372 311.61 100.332C311.61 103.852 309.366 106.36 303.866 106.36H294.186V94.26ZM294.186 80.84H302.986C307.386 80.84 310.466 81.94 310.466 85.68C310.466 89.86 307.386 91.62 302.986 91.62H294.186V80.84ZM338.891 105.92C338.891 108.56 339.551 109 341.971 109H344.171V106.36H343.071C342.191 106.36 342.191 105.92 342.191 105.04V97.252C342.191 92.5 338.407 92.72 338.407 92.72V92.28C338.407 92.28 341.971 92.236 341.971 87.132V82.6C341.971 81.72 341.971 80.4 343.291 80.4H344.171V77.76H342.191C339.111 77.76 338.891 79.52 338.891 81.72V86.032C338.891 89.464 338.275 91.62 334.403 91.62H323.491V78.2H320.191V109H323.491V94.26H334.403C337.835 94.26 338.891 94.7 338.891 98.132V105.92ZM347.677 109H350.757L353.969 100.42H367.961L371.129 109H374.429L362.945 78.2H359.601L347.677 109ZM361.053 81.72L366.993 97.78H354.981L361.053 81.72ZM417.792 78.2H393.152V109H396.452V80.84H414.492V109H417.792V78.2ZM424.39 109H427.69V93.82H437.37C444.85 93.776 446.61 89.816 446.61 86.032C446.61 82.292 444.85 78.244 437.37 78.2H424.39V109ZM427.69 80.84H437.502C441.814 80.84 443.53 83.04 443.53 86.032C443.53 89.024 441.814 91.18 437.502 91.18H427.69V80.84ZM451.89 109H455.19L474.55 82.38V109H477.85V78.2H474.55L455.19 104.82V78.2H451.89V109ZM509.54 78.2H506.24V91.62H487.76V78.2H484.46V109H487.76V94.26H506.24V109H509.54V78.2ZM520.528 100.64C520.528 95.932 521.276 94.7 525.984 94.7H535.928V109H539.228V78.2H525.588C517.888 78.244 516.128 82.952 516.128 86.252C516.128 91.928 520.88 93.028 520.88 93.028V93.468C518.24 94.04 517.228 95.932 517.228 101.08V104.38C517.228 107.24 516.568 107.46 515.028 107.46H514.368V109H520.528V100.64ZM535.928 92.06H526.116C520.484 92.06 519.208 88.804 519.208 86.252C519.208 83.48 520.924 80.84 525.456 80.84H535.928V92.06ZM568.7 78.2H543.84V80.84H554.62V109H557.92V80.84H568.7V78.2ZM567.806 109H570.886L574.098 100.42H588.09L591.258 109H594.558L583.074 78.2H579.73L567.806 109ZM581.182 81.72L587.122 97.78H575.11L581.182 81.72ZM602.629 100.156H600.121L599.021 77.584H603.729L602.629 100.156ZM598.625 106.624C598.625 105.539 598.889 104.776 599.417 104.336C599.945 103.896 600.59 103.676 601.353 103.676C602.086 103.676 602.717 103.896 603.245 104.336C603.802 104.776 604.081 105.539 604.081 106.624C604.081 107.68 603.802 108.443 603.245 108.912C602.717 109.381 602.086 109.616 601.353 109.616C600.59 109.616 599.945 109.381 599.417 108.912C598.889 108.443 598.625 107.68 598.625 106.624Z" fill="#EC622B"/>
<path d="M67.85 158H69.02L72.35 147.47V158H73.61V145.4H71.9L68.48 156.308L65.06 145.4H63.35V158H64.52V147.47L67.85 158ZM76.2151 158H79.1851C82.2451 157.982 82.7851 156.848 82.7851 155.606C82.7851 154.346 82.2451 153.248 79.1851 153.23H77.4751V149.18H76.2151V158ZM77.4751 154.22H79.1491C80.9131 154.22 81.6151 154.616 81.6151 155.606C81.6151 156.596 80.9131 157.01 79.1491 157.01H77.4751V154.22ZM85.3951 149.18H84.1351V158H85.3951V149.18ZM94.6735 153.59C94.6735 151.844 95.6995 149.9 98.3455 149.9C100.182 149.9 101.694 150.998 101.694 152.33H102.954C102.954 149.972 100.542 148.82 98.3455 148.82C95.2855 148.82 93.4135 150.962 93.4135 153.59C93.4135 156.218 95.2855 158.36 98.3455 158.36C100.542 158.36 102.954 157.208 102.954 154.85H101.694C101.694 156.182 100.182 157.28 98.3455 157.28C95.6995 157.28 94.6735 155.336 94.6735 153.59ZM105.114 158H109.722C112.062 157.982 112.872 156.632 112.872 155.444C112.872 153.41 110.766 153.41 110.766 153.41V153.23C110.766 153.23 112.494 152.942 112.494 151.394C112.494 150.224 111.774 149.198 109.344 149.18H105.114V158ZM106.374 153.86H109.038C110.982 153.86 111.612 154.58 111.612 155.444C111.612 156.308 111 157.01 109.596 157.01H106.374V153.86ZM106.374 150.17H109.308C110.712 150.17 111.234 150.656 111.234 151.43C111.234 152.114 110.892 152.87 109.308 152.87H106.374V150.17ZM116.47 155.75C116.47 154.85 116.83 154.31 118.27 154.31H121.15V158H122.41V149.18H118.45C115.57 149.198 114.85 150.584 114.85 151.736C114.85 153.5 116.488 153.77 116.488 153.77V153.95C116.488 153.95 115.3 154.13 115.3 155.624V156.11C115.3 157.28 115.03 157.37 114.4 157.37H114.22V158H116.47V155.75ZM121.15 153.32H118.306C116.722 153.32 116.02 152.708 116.02 151.808C116.02 150.854 116.722 150.17 118.486 150.17H121.15V153.32ZM126.634 155.57C126.634 154.706 126.616 153.986 128.02 153.986H129.784V158H131.044V153.986H132.808C134.212 153.986 134.194 154.706 134.194 155.57V156.74C134.194 157.82 134.464 158 135.454 158H136.264V157.01H135.814C135.454 157.01 135.454 156.83 135.454 156.47V155.12C135.454 153.446 134.194 153.446 134.194 153.446V153.266C134.194 153.266 135.364 153.266 135.364 151.43V150.62C135.364 150.08 135.454 149.99 135.904 149.99H136.174V149H135.544C134.464 149 134.194 149.36 134.194 150.62V151.07C134.194 152.114 134.212 152.996 132.808 152.996H131.044V149.18H129.784V152.996H128.02C126.616 152.996 126.634 152.114 126.634 151.07V150.62C126.634 149.36 126.364 149 125.284 149H124.654V149.99H124.924C125.374 149.99 125.464 150.08 125.464 150.62V151.43C125.464 153.266 126.634 153.266 126.634 153.266V153.446C126.634 153.446 125.374 153.446 125.374 155.12V156.47C125.374 156.83 125.374 157.01 125.014 157.01H124.564V158H125.374C126.364 158 126.634 157.82 126.634 156.74V155.57ZM142.852 157.28C140.296 157.28 139.288 155.48 139.234 153.77H147.514V153.23C147.514 150.872 146.092 148.82 142.816 148.82C139.756 148.82 137.974 150.962 137.974 153.59C137.974 156.218 139.792 158.36 142.852 158.36C145.048 158.36 146.974 157.388 147.334 155.21H146.074C145.894 156.362 144.688 157.28 142.852 157.28ZM142.816 149.9C145.246 149.9 146.074 151.502 146.218 152.78H139.288C139.558 151.304 140.566 149.9 142.816 149.9ZM153.186 158H154.356L156.786 150.71V158H158.046V149.18H156.282L153.816 156.668L151.35 149.18H149.586V158H150.756V150.71L153.186 158ZM161.383 153.59C161.383 151.844 162.409 149.9 165.055 149.9C166.891 149.9 168.402 150.998 168.402 152.33H169.663C169.663 149.972 167.251 148.82 165.055 148.82C161.995 148.82 160.123 150.962 160.123 153.59C160.123 156.218 161.995 158.36 165.055 158.36C167.251 158.36 169.663 157.208 169.663 154.85H168.402C168.402 156.182 166.891 157.28 165.055 157.28C162.409 157.28 161.383 155.336 161.383 153.59ZM173.353 155.75C173.353 154.85 173.713 154.31 175.153 154.31H178.033V158H179.293V149.18H175.333C172.453 149.198 171.733 150.584 171.733 151.736C171.733 153.5 173.371 153.77 173.371 153.77V153.95C173.371 153.95 172.183 154.13 172.183 155.624V156.11C172.183 157.28 171.913 157.37 171.283 157.37H171.103V158H173.353V155.75ZM178.033 153.32H175.188C173.605 153.32 172.903 152.708 172.903 151.808C172.903 150.854 173.605 150.17 175.369 150.17H178.033V153.32ZM188.558 153.59C188.558 151.844 189.584 149.9 192.23 149.9C194.066 149.9 195.578 150.998 195.578 152.33H196.838C196.838 149.972 194.426 148.82 192.23 148.82C189.17 148.82 187.298 150.962 187.298 153.59C187.298 156.218 189.17 158.36 192.23 158.36C194.426 158.36 196.838 157.208 196.838 154.85H195.578C195.578 156.182 194.066 157.28 192.23 157.28C189.584 157.28 188.558 155.336 188.558 153.59ZM204.94 158H209.548C211.888 157.982 212.698 156.632 212.698 155.444C212.698 153.41 210.592 153.41 210.592 153.41V153.23C210.592 153.23 212.32 152.942 212.32 151.394C212.32 150.224 211.6 149.198 209.17 149.18H204.94V158ZM206.2 153.86H208.864C210.808 153.86 211.438 154.58 211.438 155.444C211.438 156.308 210.826 157.01 209.422 157.01H206.2V153.86ZM206.2 150.17H209.134C210.538 150.17 211.06 150.656 211.06 151.43C211.06 152.114 210.718 152.87 209.134 152.87H206.2V150.17ZM221.426 158H223.856V157.37H223.586C222.956 157.37 222.686 157.28 222.686 156.11V153.59C222.686 150.962 222.236 148.82 218.546 148.82C216.296 148.82 214.406 150.08 214.406 152.33H215.666C215.666 150.998 216.566 149.9 218.546 149.9C220.886 149.9 221.408 151.142 221.426 152.528C220.184 152.618 214.676 152.996 214.676 156.2C214.676 157.46 215.486 158.36 217.196 158.36C219.248 158.36 220.868 156.632 221.426 155.93V158ZM221.426 154.94C220.832 155.678 219.176 157.28 217.556 157.28C216.476 157.28 215.936 156.92 215.936 156.11C215.936 153.968 220.292 153.626 221.426 153.518V154.94ZM229.159 158H230.329L232.759 150.71V158H234.019V149.18H232.255L229.789 156.668L227.323 149.18H225.559V158H226.729V150.71L229.159 158ZM244.285 149.18H242.845L237.805 156.596V149.18H236.545V158H237.985L243.025 150.584V158H244.285V149.18ZM252.752 158H257.36C259.7 157.982 260.51 156.632 260.51 155.444C260.51 153.41 258.404 153.41 258.404 153.41V153.23C258.404 153.23 260.132 152.942 260.132 151.394C260.132 150.224 259.412 149.198 256.982 149.18H252.752V158ZM254.012 153.86H256.676C258.62 153.86 259.25 154.58 259.25 155.444C259.25 156.308 258.638 157.01 257.234 157.01H254.012V153.86ZM254.012 150.17H256.946C258.35 150.17 258.872 150.656 258.872 151.43C258.872 152.114 258.53 152.87 256.946 152.87H254.012V150.17ZM277.16 153.95C277.16 151.322 275.288 149.54 272.84 149.54C270.14 149.54 269.42 151.7 269.42 151.7H269.24C269.42 148.82 270.5 147.29 273.29 147.02C275.684 146.786 276.71 146.75 276.71 144.86V144.5H275.72V144.68C275.72 145.58 275.27 145.508 273.38 145.76C270.68 146.12 268.16 147.056 268.16 152.87C268.16 156.74 270.032 158.36 272.66 158.36C275.288 158.36 277.16 156.578 277.16 153.95ZM269.42 153.95C269.42 152.204 270.464 150.62 272.66 150.62C274.856 150.62 275.9 152.204 275.9 153.95C275.9 155.696 274.856 157.28 272.66 157.28C270.464 157.28 269.42 155.696 269.42 153.95ZM284.62 150.17V158H285.88V149.18H280.75V150.98C280.75 156.2 279.31 157.1 278.05 157.1C277.87 157.1 277.69 157.046 277.69 157.046V158C277.69 158 277.87 158.09 278.248 158.09C279.67 158.09 281.83 157.46 281.83 151.34V150.17H284.62ZM296.141 149.18H294.701L289.661 156.596V149.18H288.401V158H289.841L294.881 150.584V158H296.141V149.18ZM300.376 155.57C300.376 154.706 300.358 153.986 301.762 153.986H303.526V158H304.786V153.986H306.55C307.954 153.986 307.936 154.706 307.936 155.57V156.74C307.936 157.82 308.206 158 309.196 158H310.006V157.01H309.556C309.196 157.01 309.196 156.83 309.196 156.47V155.12C309.196 153.446 307.936 153.446 307.936 153.446V153.266C307.936 153.266 309.106 153.266 309.106 151.43V150.62C309.106 150.08 309.196 149.99 309.646 149.99H309.916V149H309.286C308.206 149 307.936 149.36 307.936 150.62V151.07C307.936 152.114 307.954 152.996 306.55 152.996H304.786V149.18H303.526V152.996H301.762C300.358 152.996 300.376 152.114 300.376 151.07V150.62C300.376 149.36 300.106 149 299.026 149H298.396V149.99H298.666C299.116 149.99 299.206 150.08 299.206 150.62V151.43C299.206 153.266 300.376 153.266 300.376 153.266V153.446C300.376 153.446 299.116 153.446 299.116 155.12V156.47C299.116 156.83 299.116 157.01 298.756 157.01H298.306V158H299.116C300.106 158 300.376 157.82 300.376 156.74V155.57ZM318.826 158H321.256V157.37H320.986C320.356 157.37 320.086 157.28 320.086 156.11V153.59C320.086 150.962 319.636 148.82 315.946 148.82C313.696 148.82 311.806 150.08 311.806 152.33H313.066C313.066 150.998 313.966 149.9 315.946 149.9C318.286 149.9 318.808 151.142 318.826 152.528C317.584 152.618 312.076 152.996 312.076 156.2C312.076 157.46 312.886 158.36 314.596 158.36C316.648 158.36 318.268 156.632 318.826 155.93V158ZM318.826 154.94C318.232 155.678 316.576 157.28 314.956 157.28C313.876 157.28 313.336 156.92 313.336 156.11C313.336 153.968 317.692 153.626 318.826 153.518V154.94ZM328.449 145.4C328.449 146.12 328.107 146.93 326.829 146.93C325.551 146.93 325.209 146.12 325.209 145.4H324.219C324.219 146.912 325.227 147.83 326.829 147.83C328.431 147.83 329.439 146.912 329.439 145.4H328.449ZM330.699 149.18H329.259L324.219 156.596V149.18H322.959V158H324.399L329.439 150.584V158H330.699V149.18ZM333.225 158H343.305V149.18H342.045V157.01H338.895V149.18H337.635V157.01H334.485V149.18H333.225V158ZM350.256 157.28C347.7 157.28 346.692 155.48 346.638 153.77H354.918V153.23C354.918 150.872 353.496 148.82 350.22 148.82C347.16 148.82 345.378 150.962 345.378 153.59C345.378 156.218 347.196 158.36 350.256 158.36C352.452 158.36 354.378 157.388 354.738 155.21H353.478C353.298 156.362 352.092 157.28 350.256 157.28ZM350.22 149.9C352.65 149.9 353.478 151.502 353.622 152.78H346.692C346.962 151.304 347.97 149.9 350.22 149.9ZM361.418 157.28C358.862 157.28 357.854 155.48 357.8 153.77H366.08V153.23C366.08 150.872 364.658 148.82 361.382 148.82C358.322 148.82 356.54 150.962 356.54 153.59C356.54 156.218 358.358 158.36 361.418 158.36C363.614 158.36 365.54 157.388 365.9 155.21H364.64C364.46 156.362 363.254 157.28 361.418 157.28ZM361.382 149.9C363.812 149.9 364.64 151.502 364.784 152.78H357.854C358.124 151.304 359.132 149.9 361.382 149.9ZM374.094 158H378.702C381.042 157.982 381.852 156.632 381.852 155.444C381.852 153.41 379.746 153.41 379.746 153.41V153.23C379.746 153.23 381.474 152.942 381.474 151.394C381.474 150.224 380.754 149.198 378.324 149.18H374.094V158ZM375.354 153.86H378.018C379.962 153.86 380.592 154.58 380.592 155.444C380.592 156.308 379.98 157.01 378.576 157.01H375.354V153.86ZM375.354 150.17H378.288C379.692 150.17 380.214 150.656 380.214 151.43C380.214 152.114 379.872 152.87 378.288 152.87H375.354V150.17ZM385.18 153.59C385.18 151.844 386.314 149.9 388.42 149.9C390.526 149.9 391.48 151.844 391.48 153.59C391.48 155.336 390.526 157.28 388.42 157.28C386.314 157.28 385.18 155.336 385.18 153.59ZM385.18 157.28L385 156.11H385.18C385.18 156.11 385.99 158.36 388.6 158.36C391.048 158.36 392.74 156.218 392.74 153.59C392.74 150.962 391.138 148.82 388.51 148.82C385.99 148.82 385.18 151.07 385.18 151.07H385V149.18H383.92V161.24H385.18V157.28ZM399.247 157.28C396.691 157.28 395.683 155.48 395.629 153.77H403.909V153.23C403.909 150.872 402.487 148.82 399.211 148.82C396.151 148.82 394.369 150.962 394.369 153.59C394.369 156.218 396.187 158.36 399.247 158.36C401.443 158.36 403.369 157.388 403.729 155.21H402.469C402.289 156.362 401.083 157.28 399.247 157.28ZM399.211 149.9C401.641 149.9 402.469 151.502 402.613 152.78H395.683C395.953 151.304 396.961 149.9 399.211 149.9ZM409.581 158H410.751L413.181 150.71V158H414.441V149.18H412.677L410.211 156.668L407.745 149.18H405.981V158H407.151V150.71L409.581 158ZM418.497 155.75C418.497 154.85 418.857 154.31 420.297 154.31H423.177V158H424.437V149.18H420.477C417.597 149.198 416.877 150.584 416.877 151.736C416.877 153.5 418.515 153.77 418.515 153.77V153.95C418.515 153.95 417.327 154.13 417.327 155.624V156.11C417.327 157.28 417.057 157.37 416.427 157.37H416.247V158H418.497V155.75ZM423.177 153.32H420.333C418.749 153.32 418.047 152.708 418.047 151.808C418.047 150.854 418.749 150.17 420.513 150.17H423.177V153.32ZM426.987 157.028C426.987 156.584 427.095 156.272 427.311 156.092C427.527 155.912 427.785 155.822 428.085 155.822C428.397 155.822 428.661 155.912 428.877 156.092C429.105 156.272 429.219 156.584 429.219 157.028C429.219 157.46 429.105 157.772 428.877 157.964C428.661 158.156 428.397 158.252 428.085 158.252C427.785 158.252 427.527 158.156 427.311 157.964C427.095 157.772 426.987 157.46 426.987 157.028ZM437.799 158H443.037C446.079 157.982 447.537 156.722 447.537 154.454C447.537 151.34 444.711 151.34 444.711 151.34V151.16C444.711 151.16 447.069 150.98 447.069 148.424C447.069 146.354 445.629 145.418 442.749 145.4H437.799V158ZM439.149 151.97H443.109C445.359 151.97 446.277 152.834 446.277 154.454C446.277 155.894 445.359 156.92 443.109 156.92H439.149V151.97ZM439.149 146.48H442.749C444.549 146.48 445.809 146.93 445.809 148.46C445.809 150.17 444.549 150.89 442.749 150.89H439.149V146.48ZM456.358 158H458.788V157.37H458.518C457.888 157.37 457.618 157.28 457.618 156.11V153.59C457.618 150.962 457.168 148.82 453.478 148.82C451.228 148.82 449.338 150.08 449.338 152.33H450.598C450.598 150.998 451.498 149.9 453.478 149.9C455.818 149.9 456.34 151.142 456.358 152.528C455.116 152.618 449.608 152.996 449.608 156.2C449.608 157.46 450.418 158.36 452.128 158.36C454.18 158.36 455.8 156.632 456.358 155.93V158ZM456.358 154.94C455.764 155.678 454.108 157.28 452.488 157.28C451.408 157.28 450.868 156.92 450.868 156.11C450.868 153.968 455.224 153.626 456.358 153.518V154.94ZM464.09 158H465.26L467.69 150.71V158H468.95V149.18H467.186L464.72 156.668L462.254 149.18H460.49V158H461.66V150.71L464.09 158ZM485.158 149.18H483.898V153.05H478.678V149.18H477.418V158H478.678V154.04H483.898V158H485.158V149.18ZM494.344 158H496.774V157.37H496.504C495.874 157.37 495.604 157.28 495.604 156.11V153.59C495.604 150.962 495.154 148.82 491.464 148.82C489.214 148.82 487.324 150.08 487.324 152.33H488.584C488.584 150.998 489.484 149.9 491.464 149.9C493.804 149.9 494.326 151.142 494.344 152.528C493.102 152.618 487.594 152.996 487.594 156.2C487.594 157.46 488.404 158.36 490.114 158.36C492.166 158.36 493.786 156.632 494.344 155.93V158ZM494.344 154.94C493.75 155.678 492.094 157.28 490.474 157.28C489.394 157.28 488.854 156.92 488.854 156.11C488.854 153.968 493.21 153.626 494.344 153.518V154.94ZM512.068 149.18H504.418V158H505.678V150.17H510.808V158H512.068V149.18ZM514.146 153.59C514.146 156.218 516.198 158.36 519.006 158.36C521.814 158.36 523.866 156.218 523.866 153.59C523.866 150.962 521.814 148.82 519.006 148.82C516.198 148.82 514.146 150.962 514.146 153.59ZM515.406 153.59C515.406 151.844 516.54 149.9 519.006 149.9C521.472 149.9 522.606 151.844 522.606 153.59C522.606 155.336 521.472 157.28 519.006 157.28C516.54 157.28 515.406 155.336 515.406 153.59ZM532.864 149.18H531.604V153.32H528.094C527.014 153.32 526.924 152.87 526.924 152.06V149.18H525.664V152.42C525.664 153.59 526.024 154.31 527.734 154.31H531.604V158H532.864V149.18ZM534.491 150.17H537.821V158H539.081V150.17H542.411V149.18H534.491V150.17ZM544.633 160.16V161.24H545.713C546.991 161.24 547.369 160.97 547.963 159.53L552.283 149.18H550.933L547.891 156.596L544.435 149.18H543.049L547.297 158.018L546.811 159.206C546.469 160.016 546.199 160.16 545.353 160.16H544.633ZM568.394 153.95C568.394 151.322 566.522 149.54 564.074 149.54C561.374 149.54 560.654 151.7 560.654 151.7H560.474C560.654 148.82 561.734 147.29 564.524 147.02C566.918 146.786 567.944 146.75 567.944 144.86V144.5H566.954V144.68C566.954 145.58 566.504 145.508 564.614 145.76C561.914 146.12 559.394 147.056 559.394 152.87C559.394 156.74 561.266 158.36 563.894 158.36C566.522 158.36 568.394 156.578 568.394 153.95ZM560.654 153.95C560.654 152.204 561.698 150.62 563.894 150.62C566.09 150.62 567.134 152.204 567.134 153.95C567.134 155.696 566.09 157.28 563.894 157.28C561.698 157.28 560.654 155.696 560.654 153.95ZM570.877 160.16V161.24H571.957C573.235 161.24 573.613 160.97 574.207 159.53L578.527 149.18H577.177L574.135 156.596L570.679 149.18H569.293L573.541 158.018L573.055 159.206C572.713 160.016 572.443 160.16 571.597 160.16H570.877ZM586.633 149.18H581.053V150.98C581.053 154.04 580.423 155.93 579.433 157.01H577.993V160.25H579.073V158H587.263V160.25H588.343V157.01H586.633V149.18ZM585.373 150.17V157.01H580.693C581.593 155.75 582.133 153.86 582.133 151.34V150.17H585.373ZM594.118 157.28C591.562 157.28 590.554 155.48 590.5 153.77H598.78V153.23C598.78 150.872 597.358 148.82 594.082 148.82C591.022 148.82 589.24 150.962 589.24 153.59C589.24 156.218 591.058 158.36 594.118 158.36C596.314 158.36 598.24 157.388 598.6 155.21H597.34C597.16 156.362 595.954 157.28 594.118 157.28ZM594.082 149.9C596.512 149.9 597.34 151.502 597.484 152.78H590.554C590.824 151.304 591.832 149.9 594.082 149.9ZM599.776 150.17H603.106V158H604.366V150.17H607.696V149.18H599.776V150.17ZM62.81 173.59C62.81 176.218 64.862 178.36 67.67 178.36C70.478 178.36 72.53 176.218 72.53 173.59C72.53 170.962 70.478 168.82 67.67 168.82C64.862 168.82 62.81 170.962 62.81 173.59ZM64.07 173.59C64.07 171.844 65.204 169.9 67.67 169.9C70.136 169.9 71.27 171.844 71.27 173.59C71.27 175.336 70.136 177.28 67.67 177.28C65.204 177.28 64.07 175.336 64.07 173.59ZM73.5221 170.17H76.8521V178H78.1121V170.17H81.4421V169.18H73.5221V170.17ZM90.7205 169.18H83.0705V178H84.3305V170.17H89.4605V178H90.7205V169.18ZM94.5083 173.59C94.5083 171.844 95.6423 169.9 97.7483 169.9C99.8543 169.9 100.808 171.844 100.808 173.59C100.808 175.336 99.8543 177.28 97.7483 177.28C95.6423 177.28 94.5083 175.336 94.5083 173.59ZM94.5083 177.28L94.3283 176.11H94.5083C94.5083 176.11 95.3183 178.36 97.9283 178.36C100.376 178.36 102.068 176.218 102.068 173.59C102.068 170.962 100.466 168.82 97.8383 168.82C95.3183 168.82 94.5083 171.07 94.5083 171.07H94.3283V169.18H93.2483V181.24H94.5083V177.28ZM110.807 178H113.237V177.37H112.967C112.337 177.37 112.067 177.28 112.067 176.11V173.59C112.067 170.962 111.617 168.82 107.927 168.82C105.677 168.82 103.787 170.08 103.787 172.33H105.047C105.047 170.998 105.947 169.9 107.927 169.9C110.267 169.9 110.789 171.142 110.807 172.528C109.565 172.618 104.057 172.996 104.057 176.2C104.057 177.46 104.867 178.36 106.577 178.36C108.629 178.36 110.249 176.632 110.807 175.93V178ZM110.807 174.94C110.213 175.678 108.557 177.28 106.937 177.28C105.857 177.28 105.317 176.92 105.317 176.11C105.317 173.968 109.673 173.626 110.807 173.518V174.94ZM114.94 178H119.548C121.888 177.982 122.698 176.632 122.698 175.444C122.698 173.41 120.592 173.41 120.592 173.41V173.23C120.592 173.23 122.32 172.942 122.32 171.394C122.32 170.224 121.6 169.198 119.17 169.18H114.94V178ZM116.2 173.86H118.864C120.808 173.86 121.438 174.58 121.438 175.444C121.438 176.308 120.826 177.01 119.422 177.01H116.2V173.86ZM116.2 170.17H119.134C120.538 170.17 121.06 170.656 121.06 171.43C121.06 172.114 120.718 172.87 119.134 172.87H116.2V170.17ZM130.53 170.17V178H131.79V169.18H126.66V170.98C126.66 176.2 125.22 177.1 123.96 177.1C123.78 177.1 123.6 177.046 123.6 177.046V178C123.6 178 123.78 178.09 124.158 178.09C125.58 178.09 127.74 177.46 127.74 171.34V170.17H130.53ZM138.739 177.28C136.183 177.28 135.175 175.48 135.121 173.77H143.401V173.23C143.401 170.872 141.979 168.82 138.703 168.82C135.643 168.82 133.861 170.962 133.861 173.59C133.861 176.218 135.679 178.36 138.739 178.36C140.935 178.36 142.861 177.388 143.221 175.21H141.961C141.781 176.362 140.575 177.28 138.739 177.28ZM138.703 169.9C141.133 169.9 141.961 171.502 142.105 172.78H135.175C135.445 171.304 136.453 169.9 138.703 169.9ZM153.213 169.18H151.953V173.05H146.733V169.18H145.473V178H146.733V174.04H151.953V178H153.213V169.18ZM155.289 173.59C155.289 176.218 157.341 178.36 160.149 178.36C162.957 178.36 165.009 176.218 165.009 173.59C165.009 170.962 162.957 168.82 160.149 168.82C157.341 168.82 155.289 170.962 155.289 173.59ZM156.549 173.59C156.549 171.844 157.683 169.9 160.149 169.9C162.615 169.9 163.749 171.844 163.749 173.59C163.749 175.336 162.615 177.28 160.149 177.28C157.683 177.28 156.549 175.336 156.549 173.59ZM180.668 169.18H173.018V178H174.278V170.17H179.408V178H180.668V169.18ZM190.936 169.18H189.496L184.456 176.596V169.18H183.196V178H184.636L189.676 170.584V178H190.936V169.18ZM194.271 173.59C194.271 171.844 195.297 169.9 197.943 169.9C199.779 169.9 201.291 170.998 201.291 172.33H202.551C202.551 169.972 200.139 168.82 197.943 168.82C194.883 168.82 193.011 170.962 193.011 173.59C193.011 176.218 194.883 178.36 197.943 178.36C200.139 178.36 202.551 177.208 202.551 174.85H201.291C201.291 176.182 199.779 177.28 197.943 177.28C195.297 177.28 194.271 175.336 194.271 173.59ZM204.711 178H208.221C211.281 177.982 211.821 176.848 211.821 175.606C211.821 174.346 211.281 173.248 208.221 173.23H205.971V169.18H204.711V178ZM205.971 174.22H208.185C209.949 174.22 210.651 174.616 210.651 175.606C210.651 176.596 209.949 177.01 208.185 177.01H205.971V174.22ZM217.399 178H218.569L220.999 170.71V178H222.259V169.18H220.495L218.029 176.668L215.563 169.18H213.799V178H214.969V170.71L217.399 178ZM224.335 173.59C224.335 176.218 226.387 178.36 229.195 178.36C232.003 178.36 234.055 176.218 234.055 173.59C234.055 170.962 232.003 168.82 229.195 168.82C226.387 168.82 224.335 170.962 224.335 173.59ZM225.595 173.59C225.595 171.844 226.729 169.9 229.195 169.9C231.661 169.9 232.795 171.844 232.795 173.59C232.795 175.336 231.661 177.28 229.195 177.28C226.729 177.28 225.595 175.336 225.595 173.59ZM236.159 177.028C236.159 176.584 236.267 176.272 236.483 176.092C236.699 175.912 236.957 175.822 237.257 175.822C237.569 175.822 237.833 175.912 238.049 176.092C238.277 176.272 238.391 176.584 238.391 177.028C238.391 177.46 238.277 177.772 238.049 177.964C237.833 178.156 237.569 178.252 237.257 178.252C236.957 178.252 236.699 178.156 236.483 177.964C236.267 177.772 236.159 177.46 236.159 177.028ZM257.231 165.4H255.881V170.89H248.321V165.4H246.971V178H248.321V171.97H255.881V178H257.231V165.4ZM264.264 177.28C261.708 177.28 260.7 175.48 260.646 173.77H268.926V173.23C268.926 170.872 267.504 168.82 264.228 168.82C261.168 168.82 259.386 170.962 259.386 173.59C259.386 176.218 261.204 178.36 264.264 178.36C266.46 178.36 268.386 177.388 268.746 175.21H267.486C267.306 176.362 266.1 177.28 264.264 177.28ZM264.228 169.9C266.658 169.9 267.486 171.502 267.63 172.78H260.7C260.97 171.304 261.978 169.9 264.228 169.9ZM276.58 174.85C276.58 177.208 278.344 178.36 280.99 178.36C283.6 178.36 285.31 177.28 285.31 175.39C285.31 173.5 283.42 173.41 283.42 173.41V173.23C283.42 173.23 284.878 173.14 284.878 171.43C284.878 169.702 283.222 168.82 280.9 168.82C279.244 168.82 276.85 169.432 276.85 171.79H278.11C278.11 170.458 279.604 169.9 280.9 169.9C283.006 169.9 283.708 170.62 283.708 171.52C283.708 172.69 282.682 172.96 281.188 172.96H279.19V173.95H281.098C282.808 173.95 284.14 174.13 284.14 175.39C284.14 176.416 283.276 177.28 280.99 177.28C278.65 177.28 277.84 176.182 277.84 174.85H276.58ZM294.129 178H296.559V177.37H296.289C295.659 177.37 295.389 177.28 295.389 176.11V173.59C295.389 170.962 294.939 168.82 291.249 168.82C288.999 168.82 287.109 170.08 287.109 172.33H288.369C288.369 170.998 289.269 169.9 291.249 169.9C293.589 169.9 294.111 171.142 294.129 172.528C292.887 172.618 287.379 172.996 287.379 176.2C287.379 177.46 288.189 178.36 289.899 178.36C291.951 178.36 293.571 176.632 294.129 175.93V178ZM294.129 174.94C293.535 175.678 291.879 177.28 290.259 177.28C289.179 177.28 288.639 176.92 288.639 176.11C288.639 173.968 292.995 173.626 294.129 173.518V174.94ZM306.726 173.95C306.726 171.322 304.854 169.54 302.406 169.54C299.706 169.54 298.986 171.7 298.986 171.7H298.806C298.986 168.82 300.066 167.29 302.856 167.02C305.25 166.786 306.276 166.75 306.276 164.86V164.5H305.286V164.68C305.286 165.58 304.836 165.508 302.946 165.76C300.246 166.12 297.726 167.056 297.726 172.87C297.726 176.74 299.598 178.36 302.226 178.36C304.854 178.36 306.726 176.578 306.726 173.95ZM298.986 173.95C298.986 172.204 300.03 170.62 302.226 170.62C304.422 170.62 305.466 172.204 305.466 173.95C305.466 175.696 304.422 177.28 302.226 177.28C300.03 177.28 298.986 175.696 298.986 173.95ZM309.209 180.16V181.24H310.289C311.567 181.24 311.945 180.97 312.539 179.53L316.859 169.18H315.509L312.467 176.596L309.011 169.18H307.625L311.873 178.018L311.387 179.206C311.045 180.016 310.775 180.16 309.929 180.16H309.209ZM324.965 169.18H319.385V170.98C319.385 174.04 318.755 175.93 317.765 177.01H316.325V180.25H317.405V178H325.595V180.25H326.675V177.01H324.965V169.18ZM323.705 170.17V177.01H319.025C319.925 175.75 320.465 173.86 320.465 171.34V170.17H323.705ZM328.198 178H331.708C334.768 177.982 335.308 176.848 335.308 175.606C335.308 174.346 334.768 173.248 331.708 173.23H329.458V169.18H328.198V178ZM329.458 174.22H331.672C333.436 174.22 334.138 174.616 334.138 175.606C334.138 176.596 333.436 177.01 331.672 177.01H329.458V174.22ZM335.489 170.17H338.819V178H340.079V170.17H343.409V169.18H335.489V170.17ZM349.29 177.28C346.734 177.28 345.726 175.48 345.672 173.77H353.952V173.23C353.952 170.872 352.53 168.82 349.254 168.82C346.194 168.82 344.412 170.962 344.412 173.59C344.412 176.218 346.23 178.36 349.29 178.36C351.486 178.36 353.412 177.388 353.772 175.21H352.512C352.332 176.362 351.126 177.28 349.29 177.28ZM349.254 169.9C351.684 169.9 352.512 171.502 352.656 172.78H345.726C345.996 171.304 347.004 169.9 349.254 169.9ZM369.615 169.18H361.965V178H363.225V170.17H368.355V178H369.615V169.18ZM373.403 173.59C373.403 171.844 374.537 169.9 376.643 169.9C378.749 169.9 379.703 171.844 379.703 173.59C379.703 175.336 378.749 177.28 376.643 177.28C374.537 177.28 373.403 175.336 373.403 173.59ZM373.403 177.28L373.223 176.11H373.403C373.403 176.11 374.213 178.36 376.823 178.36C379.271 178.36 380.963 176.218 380.963 173.59C380.963 170.962 379.361 168.82 376.733 168.82C374.213 168.82 373.403 171.07 373.403 171.07H373.223V169.18H372.143V181.24H373.403V177.28ZM382.591 173.59C382.591 176.218 384.643 178.36 387.451 178.36C390.259 178.36 392.311 176.218 392.311 173.59C392.311 170.962 390.259 168.82 387.451 168.82C384.643 168.82 382.591 170.962 382.591 173.59ZM383.851 173.59C383.851 171.844 384.985 169.9 387.451 169.9C389.917 169.9 391.051 171.844 391.051 173.59C391.051 175.336 389.917 177.28 387.451 177.28C384.985 177.28 383.851 175.336 383.851 173.59ZM394.379 178H398.987C401.327 177.982 402.137 176.632 402.137 175.444C402.137 173.41 400.031 173.41 400.031 173.41V173.23C400.031 173.23 401.759 172.942 401.759 171.394C401.759 170.224 401.039 169.198 398.609 169.18H394.379V178ZM395.639 173.86H398.303C400.247 173.86 400.877 174.58 400.877 175.444C400.877 176.308 400.265 177.01 398.861 177.01H395.639V173.86ZM395.639 170.17H398.573C399.977 170.17 400.499 170.656 400.499 171.43C400.499 172.114 400.157 172.87 398.573 172.87H395.639V170.17ZM408.633 177.28C406.077 177.28 405.069 175.48 405.015 173.77H413.295V173.23C413.295 170.872 411.873 168.82 408.597 168.82C405.537 168.82 403.755 170.962 403.755 173.59C403.755 176.218 405.573 178.36 408.633 178.36C410.829 178.36 412.755 177.388 413.115 175.21H411.855C411.675 176.362 410.469 177.28 408.633 177.28ZM408.597 169.9C411.027 169.9 411.855 171.502 411.999 172.78H405.069C405.339 171.304 406.347 169.9 408.597 169.9ZM416.627 173.59C416.627 171.844 417.761 169.9 419.867 169.9C421.973 169.9 422.927 171.844 422.927 173.59C422.927 175.336 421.973 177.28 419.867 177.28C417.761 177.28 416.627 175.336 416.627 173.59ZM416.627 177.28L416.447 176.11H416.627C416.627 176.11 417.437 178.36 420.047 178.36C422.495 178.36 424.187 176.218 424.187 173.59C424.187 170.962 422.585 168.82 419.957 168.82C417.437 168.82 416.627 171.07 416.627 171.07H416.447V169.18H415.367V181.24H416.627V177.28ZM434.006 169.18H432.566L427.526 176.596V169.18H426.266V178H427.706L432.746 170.584V178H434.006V169.18ZM435.631 170.17H438.961V178H440.221V170.17H443.551V169.18H435.631V170.17ZM445.18 178H448.69C451.75 177.982 452.29 176.848 452.29 175.606C452.29 174.346 451.75 173.248 448.69 173.23H446.44V169.18H445.18V178ZM446.44 174.22H448.654C450.418 174.22 451.12 174.616 451.12 175.606C451.12 176.596 450.418 177.01 448.654 177.01H446.44V174.22ZM461.019 173.59C461.019 171.844 462.045 169.9 464.691 169.9C466.527 169.9 468.039 170.998 468.039 172.33H469.299C469.299 169.972 466.887 168.82 464.691 168.82C461.631 168.82 459.759 170.962 459.759 173.59C459.759 176.218 461.631 178.36 464.691 178.36C466.887 178.36 469.299 177.208 469.299 174.85H468.039C468.039 176.182 466.527 177.28 464.691 177.28C462.045 177.28 461.019 175.336 461.019 173.59ZM479.109 169.18H471.459V178H472.719V170.17H477.849V178H479.109V169.18ZM488.297 178H490.727V177.37H490.457C489.827 177.37 489.557 177.28 489.557 176.11V173.59C489.557 170.962 489.107 168.82 485.417 168.82C483.167 168.82 481.277 170.08 481.277 172.33H482.537C482.537 170.998 483.437 169.9 485.417 169.9C487.757 169.9 488.279 171.142 488.297 172.528C487.055 172.618 481.547 172.996 481.547 176.2C481.547 177.46 482.357 178.36 484.067 178.36C486.119 178.36 487.739 176.632 488.297 175.93V178ZM488.297 174.94C487.703 175.678 486.047 177.28 484.427 177.28C483.347 177.28 482.807 176.92 482.807 176.11C482.807 173.968 487.163 173.626 488.297 173.518V174.94ZM496.03 178H497.2L499.63 170.71V178H500.89V169.18H499.126L496.66 176.668L494.194 169.18H492.43V178H493.6V170.71L496.03 178ZM509.394 169.324C509.394 168.868 509.502 168.55 509.718 168.37C509.934 168.19 510.192 168.1 510.492 168.1C510.804 168.1 511.068 168.19 511.284 168.37C511.512 168.55 511.626 168.868 511.626 169.324C511.626 169.756 511.512 170.068 511.284 170.26C511.068 170.452 510.804 170.548 510.492 170.548C510.192 170.548 509.934 170.452 509.718 170.26C509.502 170.068 509.394 169.756 509.394 169.324ZM509.394 177.028C509.394 176.584 509.502 176.272 509.718 176.092C509.934 175.912 510.192 175.822 510.492 175.822C510.804 175.822 511.068 175.912 511.284 176.092C511.512 176.272 511.626 176.584 511.626 177.028C511.626 177.46 511.512 177.772 511.284 177.964C511.068 178.156 510.804 178.252 510.492 178.252C510.192 178.252 509.934 178.156 509.718 177.964C509.502 177.772 509.394 177.46 509.394 177.028ZM517.594 173.068C517.594 174.52 517.378 175.918 516.946 177.262C516.526 178.594 515.86 179.788 514.948 180.844H513.472C514.3 179.716 514.924 178.486 515.344 177.154C515.776 175.81 515.992 174.442 515.992 173.05C515.992 171.622 515.776 170.23 515.344 168.874C514.924 167.518 514.294 166.276 513.454 165.148H514.948C515.86 166.24 516.526 167.47 516.946 168.838C517.378 170.194 517.594 171.604 517.594 173.068Z" fill="#EC622B"/>
</svg>
