<svg width="670" height="265" viewBox="0 0 670 265" fill="none" xmlns="http://www.w3.org/2000/svg">
<rect width="670" height="265" fill="white"/>
<path d="M76.3 109H79.16L87.3 83.26V109H90.38V78.2H86.2L77.84 104.864L69.48 78.2H65.3V109H68.16V83.26L76.3 109ZM97.0539 109H118.394V106.36H100.354V94.26H113.994V91.62H100.354V80.84H118.394V78.2H97.0539V109ZM124.124 109H127.424V93.82H137.104C144.584 93.776 146.344 89.816 146.344 86.032C146.344 82.292 144.584 78.244 137.104 78.2H124.124V109ZM127.424 80.84H137.236C141.548 80.84 143.264 83.04 143.264 86.032C143.264 89.024 141.548 91.18 137.236 91.18H127.424V80.84ZM150.304 93.6C150.304 103.016 156.948 109.88 165.924 109.88C174.9 109.88 181.544 103.016 181.544 93.6C181.544 84.184 174.9 77.32 165.924 77.32C156.948 77.32 150.304 84.184 150.304 93.6ZM153.604 93.6C153.604 86.12 158.62 80.4 165.924 80.4C173.228 80.4 178.244 86.12 178.244 93.6C178.244 101.08 173.228 106.8 165.924 106.8C158.62 106.8 153.604 101.08 153.604 93.6ZM211.456 78.2H186.816V109H190.116V80.84H208.156V109H211.456V78.2ZM218.054 109H221.354V93.82H231.034C238.514 93.776 240.274 89.816 240.274 86.032C240.274 82.292 238.514 78.244 231.034 78.2H218.054V109ZM221.354 80.84H231.166C235.478 80.84 237.194 83.04 237.194 86.032C237.194 89.024 235.478 91.18 231.166 91.18H221.354V80.84ZM245.554 109H248.854L268.214 82.38V109H271.514V78.2H268.214L248.854 104.82V78.2H245.554V109ZM282.524 100.64C282.524 95.932 283.272 94.7 287.98 94.7H297.924V109H301.224V78.2H287.584C279.884 78.244 278.124 82.952 278.124 86.252C278.124 91.928 282.876 93.028 282.876 93.028V93.468C280.236 94.04 279.224 95.932 279.224 101.08V104.38C279.224 107.24 278.564 107.46 277.024 107.46H276.364V109H282.524V100.64ZM297.924 92.06H288.112C282.48 92.06 281.204 88.804 281.204 86.252C281.204 83.48 282.92 80.84 287.452 80.84H297.924V92.06ZM330.696 78.2H305.836V80.84H316.616V109H319.916V80.84H330.696V78.2ZM335.316 109H338.616L357.976 82.38V109H361.276V78.2H357.976L338.616 104.82V78.2H335.316V109ZM367.886 109H389.226V106.36H371.186V94.26H384.826V91.62H371.186V80.84H389.226V78.2H367.886V109ZM411.46 93.6C411.46 86.12 416.08 80.4 423.56 80.4C430.116 80.4 434.164 83.744 435.044 89.2H438.388C437.42 81.808 431.788 77.32 423.56 77.32C414.408 77.32 408.16 84.184 408.16 93.6C408.16 103.016 414.584 109.88 423.78 109.88C432.008 109.88 437.64 105.392 438.608 98H435.264C434.384 103.5 430.336 106.8 423.78 106.8C416.256 106.8 411.46 101.08 411.46 93.6ZM462.598 105.92C462.598 108.56 463.258 109 465.678 109H467.878V106.36H466.778C465.898 106.36 465.898 105.92 465.898 105.04V97.252C465.898 92.5 462.114 92.72 462.114 92.72V92.28C462.114 92.28 465.678 92.236 465.678 87.132V82.6C465.678 81.72 465.678 80.4 466.998 80.4H467.878V77.76H465.898C462.818 77.76 462.598 79.52 462.598 81.72V86.032C462.598 89.464 461.982 91.62 458.11 91.62H447.198V78.2H443.898V109H447.198V94.26H458.11C461.542 94.26 462.598 94.7 462.598 98.132V105.92ZM472.484 93.6C472.484 103.016 479.128 109.88 488.104 109.88C497.08 109.88 503.724 103.016 503.724 93.6C503.724 84.184 497.08 77.32 488.104 77.32C479.128 77.32 472.484 84.184 472.484 93.6ZM475.784 93.6C475.784 86.12 480.8 80.4 488.104 80.4C495.408 80.4 500.424 86.12 500.424 93.6C500.424 101.08 495.408 106.8 488.104 106.8C480.8 106.8 475.784 101.08 475.784 93.6ZM508.995 109H512.295V93.82H521.975C529.455 93.776 531.215 89.816 531.215 86.032C531.215 82.292 529.455 78.244 521.975 78.2H508.995V109ZM512.295 80.84H522.107C526.419 80.84 528.135 83.04 528.135 86.032C528.135 89.024 526.419 91.18 522.107 91.18H512.295V80.84ZM535.175 93.6C535.175 103.016 541.819 109.88 550.795 109.88C559.771 109.88 566.415 103.016 566.415 93.6C566.415 84.184 559.771 77.32 550.795 77.32C541.819 77.32 535.175 84.184 535.175 93.6ZM538.475 93.6C538.475 86.12 543.491 80.4 550.795 80.4C558.099 80.4 563.115 86.12 563.115 93.6C563.115 101.08 558.099 106.8 550.795 106.8C543.491 106.8 538.475 101.08 538.475 93.6ZM575.559 100.156H573.051L571.951 77.584H576.659L575.559 100.156ZM571.555 106.624C571.555 105.539 571.819 104.776 572.347 104.336C572.875 103.896 573.52 103.676 574.283 103.676C575.016 103.676 575.647 103.896 576.175 104.336C576.732 104.776 577.011 105.539 577.011 106.624C577.011 107.68 576.732 108.443 576.175 108.912C575.647 109.381 575.016 109.616 574.283 109.616C573.52 109.616 572.875 109.381 572.347 108.912C571.819 108.443 571.555 107.68 571.555 106.624Z" fill="#EC622B"/>
<path d="M63.16 151.7C63.16 148.64 65.05 146.3 68.11 146.3C70.792 146.3 72.448 147.668 72.808 149.9H74.176C73.78 146.876 71.476 145.04 68.11 145.04C64.366 145.04 61.81 147.848 61.81 151.7C61.81 155.552 64.438 158.36 68.2 158.36C71.566 158.36 73.87 156.524 74.266 153.5H72.898C72.538 155.75 70.882 157.1 68.2 157.1C65.122 157.1 63.16 154.76 63.16 151.7ZM75.8901 153.59C75.8901 156.218 77.9421 158.36 80.7501 158.36C83.5581 158.36 85.6101 156.218 85.6101 153.59C85.6101 150.962 83.5581 148.82 80.7501 148.82C77.9421 148.82 75.8901 150.962 75.8901 153.59ZM77.1501 153.59C77.1501 151.844 78.2841 149.9 80.7501 149.9C83.2161 149.9 84.3501 151.844 84.3501 153.59C84.3501 155.336 83.2161 157.28 80.7501 157.28C78.2841 157.28 77.1501 155.336 77.1501 153.59ZM86.6022 150.17H89.9322V158H91.1922V150.17H94.5222V149.18H86.6022V150.17ZM96.1506 158H100.759C103.099 157.982 103.909 156.632 103.909 155.444C103.909 153.41 101.803 153.41 101.803 153.41V153.23C101.803 153.23 103.531 152.942 103.531 151.394C103.531 150.224 102.811 149.198 100.381 149.18H96.1506V158ZM97.4106 153.86H100.075C102.019 153.86 102.649 154.58 102.649 155.444C102.649 156.308 102.037 157.01 100.633 157.01H97.4106V153.86ZM97.4106 150.17H100.345C101.749 150.17 102.271 150.656 102.271 151.43C102.271 152.114 101.929 152.87 100.345 152.87H97.4106V150.17ZM110.405 157.28C107.849 157.28 106.841 155.48 106.787 153.77H115.067V153.23C115.067 150.872 113.645 148.82 110.369 148.82C107.309 148.82 105.527 150.962 105.527 153.59C105.527 156.218 107.345 158.36 110.405 158.36C112.601 158.36 114.527 157.388 114.887 155.21H113.627C113.447 156.362 112.241 157.28 110.405 157.28ZM110.369 149.9C112.799 149.9 113.627 151.502 113.771 152.78H106.841C107.111 151.304 108.119 149.9 110.369 149.9ZM116.063 150.17H119.393V158H120.653V150.17H123.983V149.18H116.063V150.17ZM126.206 160.16V161.24H127.286C128.564 161.24 128.942 160.97 129.536 159.53L133.856 149.18H132.506L129.464 156.596L126.008 149.18H124.622L128.87 158.018L128.384 159.206C128.042 160.016 127.772 160.16 126.926 160.16H126.206ZM139.637 157.28C137.081 157.28 136.073 155.48 136.019 153.77H144.299V153.23C144.299 150.872 142.877 148.82 139.601 148.82C136.541 148.82 134.759 150.962 134.759 153.59C134.759 156.218 136.577 158.36 139.637 158.36C141.833 158.36 143.759 157.388 144.119 155.21H142.859C142.679 156.362 141.473 157.28 139.637 157.28ZM139.601 149.9C142.031 149.9 142.859 151.502 143.003 152.78H136.073C136.343 151.304 137.351 149.9 139.601 149.9ZM149.971 158H151.141L153.571 150.71V158H154.831V149.18H153.067L150.601 156.668L148.135 149.18H146.371V158H147.541V150.71L149.971 158ZM171.039 149.18H169.779V153.05H164.559V149.18H163.299V158H164.559V154.04H169.779V158H171.039V149.18ZM180.225 158H182.655V157.37H182.385C181.755 157.37 181.485 157.28 181.485 156.11V153.59C181.485 150.962 181.035 148.82 177.345 148.82C175.095 148.82 173.205 150.08 173.205 152.33H174.465C174.465 150.998 175.365 149.9 177.345 149.9C179.685 149.9 180.207 151.142 180.225 152.528C178.983 152.618 173.475 152.996 173.475 156.2C173.475 157.46 174.285 158.36 175.995 158.36C178.047 158.36 179.667 156.632 180.225 155.93V158ZM180.225 154.94C179.631 155.678 177.975 157.28 176.355 157.28C175.275 157.28 174.735 156.92 174.735 156.11C174.735 153.968 179.091 153.626 180.225 153.518V154.94ZM191.112 149.18H189.852V153.32H186.342C185.262 153.32 185.172 152.87 185.172 152.06V149.18H183.912V152.42C183.912 153.59 184.272 154.31 185.982 154.31H189.852V158H191.112V149.18ZM200.299 158H202.729V157.37H202.459C201.829 157.37 201.559 157.28 201.559 156.11V153.59C201.559 150.962 201.109 148.82 197.419 148.82C195.169 148.82 193.279 150.08 193.279 152.33H194.539C194.539 150.998 195.439 149.9 197.419 149.9C199.759 149.9 200.281 151.142 200.299 152.528C199.057 152.618 193.549 152.996 193.549 156.2C193.549 157.46 194.359 158.36 196.069 158.36C198.121 158.36 199.741 156.632 200.299 155.93V158ZM200.299 154.94C199.705 155.678 198.049 157.28 196.429 157.28C195.349 157.28 194.809 156.92 194.809 156.11C194.809 153.968 199.165 153.626 200.299 153.518V154.94ZM203.18 150.17H206.51V158H207.77V150.17H211.1V149.18H203.18V150.17ZM212.729 158H216.239C219.299 157.982 219.839 156.848 219.839 155.606C219.839 154.346 219.299 153.248 216.239 153.23H213.989V149.18H212.729V158ZM213.989 154.22H216.203C217.967 154.22 218.669 154.616 218.669 155.606C218.669 156.596 217.967 157.01 216.203 157.01H213.989V154.22ZM228.568 153.59C228.568 151.844 229.594 149.9 232.24 149.9C234.076 149.9 235.588 150.998 235.588 152.33H236.848C236.848 149.972 234.436 148.82 232.24 148.82C229.18 148.82 227.308 150.962 227.308 153.59C227.308 156.218 229.18 158.36 232.24 158.36C234.436 158.36 236.848 157.208 236.848 154.85H235.588C235.588 156.182 234.076 157.28 232.24 157.28C229.594 157.28 228.568 155.336 228.568 153.59ZM238.558 153.59C238.558 156.218 240.61 158.36 243.418 158.36C246.226 158.36 248.278 156.218 248.278 153.59C248.278 150.962 246.226 148.82 243.418 148.82C240.61 148.82 238.558 150.962 238.558 153.59ZM239.818 153.59C239.818 151.844 240.952 149.9 243.418 149.9C245.884 149.9 247.018 151.844 247.018 153.59C247.018 155.336 245.884 157.28 243.418 157.28C240.952 157.28 239.818 155.336 239.818 153.59ZM258.986 153.95C258.986 151.322 257.114 149.54 254.666 149.54C251.966 149.54 251.246 151.7 251.246 151.7H251.066C251.246 148.82 252.326 147.29 255.116 147.02C257.51 146.786 258.536 146.75 258.536 144.86V144.5H257.546V144.68C257.546 145.58 257.096 145.508 255.206 145.76C252.506 146.12 249.986 147.056 249.986 152.87C249.986 156.74 251.858 158.36 254.486 158.36C257.114 158.36 258.986 156.578 258.986 153.95ZM251.246 153.95C251.246 152.204 252.29 150.62 254.486 150.62C256.682 150.62 257.726 152.204 257.726 153.95C257.726 155.696 256.682 157.28 254.486 157.28C252.29 157.28 251.246 155.696 251.246 153.95ZM268.791 149.18H267.351L262.311 156.596V149.18H261.051V158H262.491L267.531 150.584V158H268.791V149.18ZM272.577 153.59C272.577 151.844 273.711 149.9 275.817 149.9C277.923 149.9 278.877 151.844 278.877 153.59C278.877 155.336 277.923 157.28 275.817 157.28C273.711 157.28 272.577 155.336 272.577 153.59ZM272.577 157.28L272.397 156.11H272.577C272.577 156.11 273.387 158.36 275.997 158.36C278.445 158.36 280.137 156.218 280.137 153.59C280.137 150.962 278.535 148.82 275.907 148.82C273.387 148.82 272.577 151.07 272.577 151.07H272.397V149.18H271.317V161.24H272.577V157.28ZM288.875 158H291.305V157.37H291.035C290.405 157.37 290.135 157.28 290.135 156.11V153.59C290.135 150.962 289.685 148.82 285.995 148.82C283.745 148.82 281.855 150.08 281.855 152.33H283.115C283.115 150.998 284.015 149.9 285.995 149.9C288.335 149.9 288.857 151.142 288.875 152.528C287.633 152.618 282.125 152.996 282.125 156.2C282.125 157.46 282.935 158.36 284.645 158.36C286.697 158.36 288.317 156.632 288.875 155.93V158ZM288.875 154.94C288.281 155.678 286.625 157.28 285.005 157.28C283.925 157.28 283.385 156.92 283.385 156.11C283.385 153.968 287.741 153.626 288.875 153.518V154.94ZM291.756 150.17H295.086V158H296.346V150.17H299.676V149.18H291.756V150.17ZM301.305 158H304.815C307.875 157.982 308.415 156.848 308.415 155.606C308.415 154.346 307.875 153.248 304.815 153.23H302.565V149.18H301.305V158ZM302.565 154.22H304.779C306.543 154.22 307.245 154.616 307.245 155.606C307.245 156.596 306.543 157.01 304.779 157.01H302.565V154.22ZM311.203 153.59C311.203 151.844 312.229 149.9 314.875 149.9C316.711 149.9 318.223 150.998 318.223 152.33H319.483C319.483 149.972 317.071 148.82 314.875 148.82C311.815 148.82 309.943 150.962 309.943 153.59C309.943 156.218 311.815 158.36 314.875 158.36C317.071 158.36 319.483 157.208 319.483 154.85H318.223C318.223 156.182 316.711 157.28 314.875 157.28C312.229 157.28 311.203 155.336 311.203 153.59ZM323.173 155.75C323.173 154.85 323.533 154.31 324.973 154.31H327.853V158H329.113V149.18H325.153C322.273 149.198 321.553 150.584 321.553 151.736C321.553 153.5 323.191 153.77 323.191 153.77V153.95C323.191 153.95 322.003 154.13 322.003 155.624V156.11C322.003 157.28 321.733 157.37 321.103 157.37H320.923V158H323.173V155.75ZM327.853 153.32H325.009C323.425 153.32 322.723 152.708 322.723 151.808C322.723 150.854 323.425 150.17 325.189 150.17H327.853V153.32ZM331.663 157.028C331.663 156.584 331.771 156.272 331.987 156.092C332.203 155.912 332.461 155.822 332.761 155.822C333.073 155.822 333.337 155.912 333.553 156.092C333.781 156.272 333.895 156.584 333.895 157.028C333.895 157.46 333.781 157.772 333.553 157.964C333.337 158.156 333.073 158.252 332.761 158.252C332.461 158.252 332.203 158.156 331.987 157.964C331.771 157.772 331.663 157.46 331.663 157.028ZM348.091 157.1C345.409 157.1 343.663 155.75 343.303 153.5H341.935C342.331 156.524 344.725 158.36 348.091 158.36C352.213 158.36 354.391 155.552 354.391 151.7C354.391 147.848 351.925 145.04 348.001 145.04C344.635 145.04 342.421 146.876 342.025 149.9H343.393C343.753 147.668 345.319 146.3 348.001 146.3C351.043 146.3 352.825 148.37 353.023 151.16H345.085V152.24H353.023C352.843 155.03 351.313 157.1 348.091 157.1ZM361.333 150.17V158H362.593V149.18H357.463V150.98C357.463 156.2 356.023 157.1 354.763 157.1C354.583 157.1 354.403 157.046 354.403 157.046V158C354.403 158 354.583 158.09 354.961 158.09C356.383 158.09 358.543 157.46 358.543 151.34V150.17H361.333ZM369.542 157.28C366.986 157.28 365.978 155.48 365.924 153.77H374.204V153.23C374.204 150.872 372.782 148.82 369.506 148.82C366.446 148.82 364.664 150.962 364.664 153.59C364.664 156.218 366.482 158.36 369.542 158.36C371.738 158.36 373.664 157.388 374.024 155.21H372.764C372.584 156.362 371.378 157.28 369.542 157.28ZM369.506 149.9C371.936 149.9 372.764 151.502 372.908 152.78H365.978C366.248 151.304 367.256 149.9 369.506 149.9ZM382.126 156.74C382.126 157.82 382.396 158 383.386 158H384.196V157.01H383.746C383.386 157.01 383.386 156.83 383.386 156.47V155.12C383.386 153.446 382.126 153.446 382.126 153.446V153.266C382.126 153.266 383.296 153.266 383.296 151.43V150.62C383.296 150.08 383.386 149.99 383.836 149.99H384.106V149H383.476C382.396 149 382.126 149.36 382.126 150.62V151.07C382.126 152.114 382.144 152.996 380.74 152.996H377.536V149.18H376.276V158H377.536V153.986H380.74C382.144 153.986 382.126 154.706 382.126 155.57V156.74ZM385.448 150.17H388.778V158H390.038V150.17H393.368V149.18H385.448V150.17ZM396.256 153.59C396.256 151.844 397.39 149.9 399.496 149.9C401.602 149.9 402.556 151.844 402.556 153.59C402.556 155.336 401.602 157.28 399.496 157.28C397.39 157.28 396.256 155.336 396.256 153.59ZM396.256 157.28L396.076 156.11H396.256C396.256 156.11 397.066 158.36 399.676 158.36C402.124 158.36 403.816 156.218 403.816 153.59C403.816 150.962 402.214 148.82 399.586 148.82C397.066 148.82 396.256 151.07 396.256 151.07H396.076V149.18H394.996V161.24H396.256V157.28ZM405.445 153.59C405.445 156.218 407.497 158.36 410.305 158.36C413.113 158.36 415.165 156.218 415.165 153.59C415.165 150.962 413.113 148.82 410.305 148.82C407.497 148.82 405.445 150.962 405.445 153.59ZM406.705 153.59C406.705 151.844 407.839 149.9 410.305 149.9C412.771 149.9 413.905 151.844 413.905 153.59C413.905 155.336 412.771 157.28 410.305 157.28C407.839 157.28 406.705 155.336 406.705 153.59ZM424.973 149.18H423.713V153.05H418.493V149.18H417.233V158H418.493V154.04H423.713V158H424.973V149.18ZM435.238 149.18H433.978V153.05H428.758V149.18H427.498V158H428.758V154.04H433.978V158H435.238V149.18ZM437.764 158H440.734C443.794 157.982 444.334 156.848 444.334 155.606C444.334 154.346 443.794 153.248 440.734 153.23H439.024V149.18H437.764V158ZM439.024 154.22H440.698C442.462 154.22 443.164 154.616 443.164 155.606C443.164 156.596 442.462 157.01 440.698 157.01H439.024V154.22ZM446.944 149.18H445.684V158H446.944V149.18ZM454.961 145.4C454.961 146.12 454.619 146.93 453.341 146.93C452.063 146.93 451.721 146.12 451.721 145.4H450.731C450.731 146.912 451.739 147.83 453.341 147.83C454.943 147.83 455.951 146.912 455.951 145.4H454.961ZM457.211 149.18H455.771L450.731 156.596V149.18H449.471V158H450.911L455.951 150.584V158H457.211V149.18ZM474.318 153.95C474.318 151.322 472.446 149.54 469.998 149.54C467.298 149.54 466.578 151.7 466.578 151.7H466.398C466.578 148.82 467.658 147.29 470.448 147.02C472.842 146.786 473.868 146.75 473.868 144.86V144.5H472.878V144.68C472.878 145.58 472.428 145.508 470.538 145.76C467.838 146.12 465.318 147.056 465.318 152.87C465.318 156.74 467.19 158.36 469.818 158.36C472.446 158.36 474.318 156.578 474.318 153.95ZM466.578 153.95C466.578 152.204 467.622 150.62 469.818 150.62C472.014 150.62 473.058 152.204 473.058 153.95C473.058 155.696 472.014 157.28 469.818 157.28C467.622 157.28 466.578 155.696 466.578 153.95ZM484.123 149.18H482.683L477.643 156.596V149.18H476.383V158H477.823L482.863 150.584V158H484.123V149.18ZM492.589 150.17V158H493.849V149.18H488.719V150.98C488.719 156.2 487.279 157.1 486.019 157.1C485.839 157.1 485.659 157.046 485.659 157.046V158C485.659 158 485.839 158.09 486.217 158.09C487.639 158.09 489.799 157.46 489.799 151.34V150.17H492.589ZM500.797 157.28C498.241 157.28 497.233 155.48 497.179 153.77H505.459V153.23C505.459 150.872 504.037 148.82 500.761 148.82C497.701 148.82 495.919 150.962 495.919 153.59C495.919 156.218 497.737 158.36 500.797 158.36C502.993 158.36 504.919 157.388 505.279 155.21H504.019C503.839 156.362 502.633 157.28 500.797 157.28ZM500.761 149.9C503.191 149.9 504.019 151.502 504.163 152.78H497.233C497.503 151.304 498.511 149.9 500.761 149.9ZM506.456 150.17H509.786V158H511.046V150.17H514.376V149.18H506.456V150.17ZM522.54 160.16V161.24H523.62C524.898 161.24 525.276 160.97 525.87 159.53L530.19 149.18H528.84L525.798 156.596L522.342 149.18H520.956L525.204 158.018L524.718 159.206C524.376 160.016 524.106 160.16 523.26 160.16H522.54ZM533.429 155.57C533.429 154.706 533.411 153.986 534.815 153.986H536.579V158H537.839V153.986H539.603C541.007 153.986 540.989 154.706 540.989 155.57V156.74C540.989 157.82 541.259 158 542.249 158H543.059V157.01H542.609C542.249 157.01 542.249 156.83 542.249 156.47V155.12C542.249 153.446 540.989 153.446 540.989 153.446V153.266C540.989 153.266 542.159 153.266 542.159 151.43V150.62C542.159 150.08 542.249 149.99 542.699 149.99H542.969V149H542.339C541.259 149 540.989 149.36 540.989 150.62V151.07C540.989 152.114 541.007 152.996 539.603 152.996H537.839V149.18H536.579V152.996H534.815C533.411 152.996 533.429 152.114 533.429 151.07V150.62C533.429 149.36 533.159 149 532.079 149H531.449V149.99H531.719C532.169 149.99 532.259 150.08 532.259 150.62V151.43C532.259 153.266 533.429 153.266 533.429 153.266V153.446C533.429 153.446 532.169 153.446 532.169 155.12V156.47C532.169 156.83 532.169 157.01 531.809 157.01H531.359V158H532.169C533.159 158 533.429 157.82 533.429 156.74V155.57ZM549.647 157.28C547.091 157.28 546.083 155.48 546.029 153.77H554.309V153.23C554.309 150.872 552.887 148.82 549.611 148.82C546.551 148.82 544.769 150.962 544.769 153.59C544.769 156.218 546.587 158.36 549.647 158.36C551.843 158.36 553.769 157.388 554.129 155.21H552.869C552.689 156.362 551.483 157.28 549.647 157.28ZM549.611 149.9C552.041 149.9 552.869 151.502 553.013 152.78H546.083C546.353 151.304 547.361 149.9 549.611 149.9ZM61.81 173.59C61.81 176.218 63.862 178.36 66.67 178.36C69.478 178.36 71.53 176.218 71.53 173.59C71.53 170.962 69.478 168.82 66.67 168.82C63.862 168.82 61.81 170.962 61.81 173.59ZM63.07 173.59C63.07 171.844 64.204 169.9 66.67 169.9C69.136 169.9 70.27 171.844 70.27 173.59C70.27 175.336 69.136 177.28 66.67 177.28C64.204 177.28 63.07 175.336 63.07 173.59ZM72.5221 170.17H75.8521V178H77.1121V170.17H80.4421V169.18H72.5221V170.17ZM89.7205 169.18H82.0705V178H83.3305V170.17H88.4605V178H89.7205V169.18ZM93.5083 173.59C93.5083 171.844 94.6423 169.9 96.7483 169.9C98.8543 169.9 99.8083 171.844 99.8083 173.59C99.8083 175.336 98.8543 177.28 96.7483 177.28C94.6423 177.28 93.5083 175.336 93.5083 173.59ZM93.5083 177.28L93.3283 176.11H93.5083C93.5083 176.11 94.3183 178.36 96.9283 178.36C99.3763 178.36 101.068 176.218 101.068 173.59C101.068 170.962 99.4663 168.82 96.8383 168.82C94.3183 168.82 93.5083 171.07 93.5083 171.07H93.3283V169.18H92.2483V181.24H93.5083V177.28ZM109.807 178H112.237V177.37H111.967C111.337 177.37 111.067 177.28 111.067 176.11V173.59C111.067 170.962 110.617 168.82 106.927 168.82C104.677 168.82 102.787 170.08 102.787 172.33H104.047C104.047 170.998 104.947 169.9 106.927 169.9C109.267 169.9 109.789 171.142 109.807 172.528C108.565 172.618 103.057 172.996 103.057 176.2C103.057 177.46 103.867 178.36 105.577 178.36C107.629 178.36 109.249 176.632 109.807 175.93V178ZM109.807 174.94C109.213 175.678 107.557 177.28 105.937 177.28C104.857 177.28 104.317 176.92 104.317 176.11C104.317 173.968 108.673 173.626 109.807 173.518V174.94ZM113.94 178H118.548C120.888 177.982 121.698 176.632 121.698 175.444C121.698 173.41 119.592 173.41 119.592 173.41V173.23C119.592 173.23 121.32 172.942 121.32 171.394C121.32 170.224 120.6 169.198 118.17 169.18H113.94V178ZM115.2 173.86H117.864C119.808 173.86 120.438 174.58 120.438 175.444C120.438 176.308 119.826 177.01 118.422 177.01H115.2V173.86ZM115.2 170.17H118.134C119.538 170.17 120.06 170.656 120.06 171.43C120.06 172.114 119.718 172.87 118.134 172.87H115.2V170.17ZM129.53 170.17V178H130.79V169.18H125.66V170.98C125.66 176.2 124.22 177.1 122.96 177.1C122.78 177.1 122.6 177.046 122.6 177.046V178C122.6 178 122.78 178.09 123.158 178.09C124.58 178.09 126.74 177.46 126.74 171.34V170.17H129.53ZM137.739 177.28C135.183 177.28 134.175 175.48 134.121 173.77H142.401V173.23C142.401 170.872 140.979 168.82 137.703 168.82C134.643 168.82 132.861 170.962 132.861 173.59C132.861 176.218 134.679 178.36 137.739 178.36C139.935 178.36 141.861 177.388 142.221 175.21H140.961C140.781 176.362 139.575 177.28 137.739 177.28ZM137.703 169.9C140.133 169.9 140.961 171.502 141.105 172.78H134.175C134.445 171.304 135.453 169.9 137.703 169.9ZM152.213 169.18H150.953V173.05H145.733V169.18H144.473V178H145.733V174.04H150.953V178H152.213V169.18ZM160.68 178H165.288C167.628 177.982 168.438 176.632 168.438 175.444C168.438 173.41 166.332 173.41 166.332 173.41V173.23C166.332 173.23 168.06 172.942 168.06 171.394C168.06 170.224 167.34 169.198 164.91 169.18H160.68V178ZM161.94 173.86H164.604C166.548 173.86 167.178 174.58 167.178 175.444C167.178 176.308 166.566 177.01 165.162 177.01H161.94V173.86ZM161.94 170.17H164.874C166.278 170.17 166.8 170.656 166.8 171.43C166.8 172.114 166.458 172.87 164.874 172.87H161.94V170.17ZM177.166 178H179.596V177.37H179.326C178.696 177.37 178.426 177.28 178.426 176.11V173.59C178.426 170.962 177.976 168.82 174.286 168.82C172.036 168.82 170.146 170.08 170.146 172.33H171.406C171.406 170.998 172.306 169.9 174.286 169.9C176.626 169.9 177.148 171.142 177.166 172.528C175.924 172.618 170.416 172.996 170.416 176.2C170.416 177.46 171.226 178.36 172.936 178.36C174.988 178.36 176.608 176.632 177.166 175.93V178ZM177.166 174.94C176.572 175.678 174.916 177.28 173.296 177.28C172.216 177.28 171.676 176.92 171.676 176.11C171.676 173.968 176.032 173.626 177.166 173.518V174.94ZM184.899 178H186.069L188.499 170.71V178H189.759V169.18H187.995L185.529 176.668L183.063 169.18H181.299V178H182.469V170.71L184.899 178ZM205.967 169.18H204.707V173.05H199.487V169.18H198.227V178H199.487V174.04H204.707V178H205.967V169.18ZM215.152 178H217.582V177.37H217.312C216.682 177.37 216.412 177.28 216.412 176.11V173.59C216.412 170.962 215.962 168.82 212.272 168.82C210.022 168.82 208.132 170.08 208.132 172.33H209.392C209.392 170.998 210.292 169.9 212.272 169.9C214.612 169.9 215.134 171.142 215.152 172.528C213.91 172.618 208.402 172.996 208.402 176.2C208.402 177.46 209.212 178.36 210.922 178.36C212.974 178.36 214.594 176.632 215.152 175.93V178ZM215.152 174.94C214.558 175.678 212.902 177.28 211.282 177.28C210.202 177.28 209.662 176.92 209.662 176.11C209.662 173.968 214.018 173.626 215.152 173.518V174.94ZM232.877 169.18H225.227V178H226.487V170.17H231.617V178H232.877V169.18ZM234.955 173.59C234.955 176.218 237.007 178.36 239.815 178.36C242.623 178.36 244.675 176.218 244.675 173.59C244.675 170.962 242.623 168.82 239.815 168.82C237.007 168.82 234.955 170.962 234.955 173.59ZM236.215 173.59C236.215 171.844 237.349 169.9 239.815 169.9C242.281 169.9 243.415 171.844 243.415 173.59C243.415 175.336 242.281 177.28 239.815 177.28C237.349 177.28 236.215 175.336 236.215 173.59ZM253.672 169.18H252.412V173.32H248.902C247.822 173.32 247.732 172.87 247.732 172.06V169.18H246.472V172.42C246.472 173.59 246.832 174.31 248.542 174.31H252.412V178H253.672V169.18ZM255.299 170.17H258.629V178H259.889V170.17H263.219V169.18H255.299V170.17ZM265.442 180.16V181.24H266.522C267.8 181.24 268.178 180.97 268.772 179.53L273.092 169.18H271.742L268.7 176.596L265.244 169.18H263.858L268.106 178.018L267.62 179.206C267.278 180.016 267.008 180.16 266.162 180.16H265.442ZM274.657 177.028C274.657 176.584 274.765 176.272 274.981 176.092C275.197 175.912 275.455 175.822 275.755 175.822C276.067 175.822 276.331 175.912 276.547 176.092C276.775 176.272 276.889 176.584 276.889 177.028C276.889 177.46 276.775 177.772 276.547 177.964C276.331 178.156 276.067 178.252 275.755 178.252C275.455 178.252 275.197 178.156 274.981 177.964C274.765 177.772 274.657 177.46 274.657 177.028ZM295.729 165.4H294.379V170.89H286.819V165.4H285.469V178H286.819V171.97H294.379V178H295.729V165.4ZM302.762 177.28C300.206 177.28 299.198 175.48 299.144 173.77H307.424V173.23C307.424 170.872 306.002 168.82 302.726 168.82C299.666 168.82 297.884 170.962 297.884 173.59C297.884 176.218 299.702 178.36 302.762 178.36C304.958 178.36 306.884 177.388 307.244 175.21H305.984C305.804 176.362 304.598 177.28 302.762 177.28ZM302.726 169.9C305.156 169.9 305.984 171.502 306.128 172.78H299.198C299.468 171.304 300.476 169.9 302.726 169.9ZM315.078 174.85C315.078 177.208 316.842 178.36 319.488 178.36C322.098 178.36 323.808 177.28 323.808 175.39C323.808 173.5 321.918 173.41 321.918 173.41V173.23C321.918 173.23 323.376 173.14 323.376 171.43C323.376 169.702 321.72 168.82 319.398 168.82C317.742 168.82 315.348 169.432 315.348 171.79H316.608C316.608 170.458 318.102 169.9 319.398 169.9C321.504 169.9 322.206 170.62 322.206 171.52C322.206 172.69 321.18 172.96 319.686 172.96H317.688V173.95H319.596C321.306 173.95 322.638 174.13 322.638 175.39C322.638 176.416 321.774 177.28 319.488 177.28C317.148 177.28 316.338 176.182 316.338 174.85H315.078ZM332.627 178H335.057V177.37H334.787C334.157 177.37 333.887 177.28 333.887 176.11V173.59C333.887 170.962 333.437 168.82 329.747 168.82C327.497 168.82 325.607 170.08 325.607 172.33H326.867C326.867 170.998 327.767 169.9 329.747 169.9C332.087 169.9 332.609 171.142 332.627 172.528C331.385 172.618 325.877 172.996 325.877 176.2C325.877 177.46 326.687 178.36 328.397 178.36C330.449 178.36 332.069 176.632 332.627 175.93V178ZM332.627 174.94C332.033 175.678 330.377 177.28 328.757 177.28C327.677 177.28 327.137 176.92 327.137 176.11C327.137 173.968 331.493 173.626 332.627 173.518V174.94ZM345.224 173.95C345.224 171.322 343.352 169.54 340.904 169.54C338.204 169.54 337.484 171.7 337.484 171.7H337.304C337.484 168.82 338.564 167.29 341.354 167.02C343.748 166.786 344.774 166.75 344.774 164.86V164.5H343.784V164.68C343.784 165.58 343.334 165.508 341.444 165.76C338.744 166.12 336.224 167.056 336.224 172.87C336.224 176.74 338.096 178.36 340.724 178.36C343.352 178.36 345.224 176.578 345.224 173.95ZM337.484 173.95C337.484 172.204 338.528 170.62 340.724 170.62C342.92 170.62 343.964 172.204 343.964 173.95C343.964 175.696 342.92 177.28 340.724 177.28C338.528 177.28 337.484 175.696 337.484 173.95ZM347.708 180.16V181.24H348.788C350.066 181.24 350.444 180.97 351.038 179.53L355.358 169.18H354.008L350.966 176.596L347.51 169.18H346.124L350.372 178.018L349.886 179.206C349.544 180.016 349.274 180.16 348.428 180.16H347.708ZM363.463 169.18H357.883V170.98C357.883 174.04 357.253 175.93 356.263 177.01H354.823V180.25H355.903V178H364.093V180.25H365.173V177.01H363.463V169.18ZM362.203 170.17V177.01H357.523C358.423 175.75 358.963 173.86 358.963 171.34V170.17H362.203ZM366.696 178H370.206C373.266 177.982 373.806 176.848 373.806 175.606C373.806 174.346 373.266 173.248 370.206 173.23H367.956V169.18H366.696V178ZM367.956 174.22H370.17C371.934 174.22 372.636 174.616 372.636 175.606C372.636 176.596 371.934 177.01 370.17 177.01H367.956V174.22ZM373.987 170.17H377.317V178H378.577V170.17H381.907V169.18H373.987V170.17ZM387.788 177.28C385.232 177.28 384.224 175.48 384.17 173.77H392.45V173.23C392.45 170.872 391.028 168.82 387.752 168.82C384.692 168.82 382.91 170.962 382.91 173.59C382.91 176.218 384.728 178.36 387.788 178.36C389.984 178.36 391.91 177.388 392.27 175.21H391.01C390.83 176.362 389.624 177.28 387.788 177.28ZM387.752 169.9C390.182 169.9 391.01 171.502 391.154 172.78H384.224C384.494 171.304 385.502 169.9 387.752 169.9ZM408.113 169.18H400.463V178H401.723V170.17H406.853V178H408.113V169.18ZM411.901 173.59C411.901 171.844 413.035 169.9 415.141 169.9C417.247 169.9 418.201 171.844 418.201 173.59C418.201 175.336 417.247 177.28 415.141 177.28C413.035 177.28 411.901 175.336 411.901 173.59ZM411.901 177.28L411.721 176.11H411.901C411.901 176.11 412.711 178.36 415.321 178.36C417.769 178.36 419.461 176.218 419.461 173.59C419.461 170.962 417.859 168.82 415.231 168.82C412.711 168.82 411.901 171.07 411.901 171.07H411.721V169.18H410.641V181.24H411.901V177.28ZM421.089 173.59C421.089 176.218 423.141 178.36 425.949 178.36C428.757 178.36 430.809 176.218 430.809 173.59C430.809 170.962 428.757 168.82 425.949 168.82C423.141 168.82 421.089 170.962 421.089 173.59ZM422.349 173.59C422.349 171.844 423.483 169.9 425.949 169.9C428.415 169.9 429.549 171.844 429.549 173.59C429.549 175.336 428.415 177.28 425.949 177.28C423.483 177.28 422.349 175.336 422.349 173.59ZM432.877 178H437.485C439.825 177.982 440.635 176.632 440.635 175.444C440.635 173.41 438.529 173.41 438.529 173.41V173.23C438.529 173.23 440.257 172.942 440.257 171.394C440.257 170.224 439.537 169.198 437.107 169.18H432.877V178ZM434.137 173.86H436.801C438.745 173.86 439.375 174.58 439.375 175.444C439.375 176.308 438.763 177.01 437.359 177.01H434.137V173.86ZM434.137 170.17H437.071C438.475 170.17 438.997 170.656 438.997 171.43C438.997 172.114 438.655 172.87 437.071 172.87H434.137V170.17ZM447.131 177.28C444.575 177.28 443.567 175.48 443.513 173.77H451.793V173.23C451.793 170.872 450.371 168.82 447.095 168.82C444.035 168.82 442.253 170.962 442.253 173.59C442.253 176.218 444.071 178.36 447.131 178.36C449.327 178.36 451.253 177.388 451.613 175.21H450.353C450.173 176.362 448.967 177.28 447.131 177.28ZM447.095 169.9C449.525 169.9 450.353 171.502 450.497 172.78H443.567C443.837 171.304 444.845 169.9 447.095 169.9ZM455.125 173.59C455.125 171.844 456.259 169.9 458.365 169.9C460.471 169.9 461.425 171.844 461.425 173.59C461.425 175.336 460.471 177.28 458.365 177.28C456.259 177.28 455.125 175.336 455.125 173.59ZM455.125 177.28L454.945 176.11H455.125C455.125 176.11 455.935 178.36 458.545 178.36C460.993 178.36 462.685 176.218 462.685 173.59C462.685 170.962 461.083 168.82 458.455 168.82C455.935 168.82 455.125 171.07 455.125 171.07H454.945V169.18H453.865V181.24H455.125V177.28ZM472.504 169.18H471.064L466.024 176.596V169.18H464.764V178H466.204L471.244 170.584V178H472.504V169.18ZM474.13 170.17H477.46V178H478.72V170.17H482.05V169.18H474.13V170.17ZM483.678 178H487.188C490.248 177.982 490.788 176.848 490.788 175.606C490.788 174.346 490.248 173.248 487.188 173.23H484.938V169.18H483.678V178ZM484.938 174.22H487.152C488.916 174.22 489.618 174.616 489.618 175.606C489.618 176.596 488.916 177.01 487.152 177.01H484.938V174.22ZM499.517 173.59C499.517 171.844 500.543 169.9 503.189 169.9C505.025 169.9 506.537 170.998 506.537 172.33H507.797C507.797 169.972 505.385 168.82 503.189 168.82C500.129 168.82 498.257 170.962 498.257 173.59C498.257 176.218 500.129 178.36 503.189 178.36C505.385 178.36 507.797 177.208 507.797 174.85H506.537C506.537 176.182 505.025 177.28 503.189 177.28C500.543 177.28 499.517 175.336 499.517 173.59ZM517.607 169.18H509.957V178H511.217V170.17H516.347V178H517.607V169.18ZM526.795 178H529.225V177.37H528.955C528.325 177.37 528.055 177.28 528.055 176.11V173.59C528.055 170.962 527.605 168.82 523.915 168.82C521.665 168.82 519.775 170.08 519.775 172.33H521.035C521.035 170.998 521.935 169.9 523.915 169.9C526.255 169.9 526.777 171.142 526.795 172.528C525.553 172.618 520.045 172.996 520.045 176.2C520.045 177.46 520.855 178.36 522.565 178.36C524.617 178.36 526.237 176.632 526.795 175.93V178ZM526.795 174.94C526.201 175.678 524.545 177.28 522.925 177.28C521.845 177.28 521.305 176.92 521.305 176.11C521.305 173.968 525.661 173.626 526.795 173.518V174.94ZM534.528 178H535.698L538.128 170.71V178H539.388V169.18H537.624L535.158 176.668L532.692 169.18H530.928V178H532.098V170.71L534.528 178ZM547.892 169.324C547.892 168.868 548 168.55 548.216 168.37C548.432 168.19 548.69 168.1 548.99 168.1C549.302 168.1 549.566 168.19 549.782 168.37C550.01 168.55 550.124 168.868 550.124 169.324C550.124 169.756 550.01 170.068 549.782 170.26C549.566 170.452 549.302 170.548 548.99 170.548C548.69 170.548 548.432 170.452 548.216 170.26C548 170.068 547.892 169.756 547.892 169.324ZM547.892 177.028C547.892 176.584 548 176.272 548.216 176.092C548.432 175.912 548.69 175.822 548.99 175.822C549.302 175.822 549.566 175.912 549.782 176.092C550.01 176.272 550.124 176.584 550.124 177.028C550.124 177.46 550.01 177.772 549.782 177.964C549.566 178.156 549.302 178.252 548.99 178.252C548.69 178.252 548.432 178.156 548.216 177.964C548 177.772 547.892 177.46 547.892 177.028ZM556.092 173.068C556.092 174.52 555.876 175.918 555.444 177.262C555.024 178.594 554.358 179.788 553.446 180.844H551.97C552.798 179.716 553.422 178.486 553.842 177.154C554.274 175.81 554.49 174.442 554.49 173.05C554.49 171.622 554.274 170.23 553.842 168.874C553.422 167.518 552.792 166.276 551.952 165.148H553.446C554.358 166.24 555.024 167.47 555.444 168.838C555.876 170.194 556.092 171.604 556.092 173.068Z" fill="#EC622B"/>
</svg>
