<svg width="670" height="265" viewBox="0 0 670 265" fill="none" xmlns="http://www.w3.org/2000/svg">
<rect width="670" height="265" fill="white"/>
<path d="M67.28 93.6C67.28 86.12 71.9 80.4 79.38 80.4C85.936 80.4 89.984 83.744 90.864 89.2H94.208C93.24 81.808 87.608 77.32 79.38 77.32C70.228 77.32 63.98 84.184 63.98 93.6C63.98 103.016 70.404 109.88 79.6 109.88C87.828 109.88 93.46 105.392 94.428 98H91.084C90.204 103.5 86.156 106.8 79.6 106.8C72.076 106.8 67.28 101.08 67.28 93.6ZM124.358 78.2H99.718V109H103.018V80.84H121.058V109H124.358V78.2ZM128.536 109H131.616L134.828 100.42H148.82L151.988 109H155.288L143.804 78.2H140.46L128.536 109ZM141.912 81.72L147.852 97.78H135.84L141.912 81.72ZM160.608 93.6C160.608 86.12 165.228 80.4 172.708 80.4C179.264 80.4 183.312 83.744 184.192 89.2H187.536C186.568 81.808 180.936 77.32 172.708 77.32C163.556 77.32 157.308 84.184 157.308 93.6C157.308 103.016 163.732 109.88 172.928 109.88C181.156 109.88 186.788 105.392 187.756 98H184.412C183.532 103.5 179.484 106.8 172.928 106.8C165.404 106.8 160.608 101.08 160.608 93.6ZM193.046 109H196.346L215.706 82.38V109H219.006V78.2H215.706L196.346 104.82V78.2H193.046V109ZM225.616 109H239.036C246.516 108.956 248.276 104.688 248.276 100.948C248.276 97.164 246.516 92.984 239.036 92.94H228.916V80.84H246.956V78.2H225.616V109ZM228.916 95.58H239.168C243.48 95.58 245.196 97.956 245.196 100.948C245.196 103.94 243.48 106.36 239.168 106.36H228.916V95.58ZM252.441 93.6C252.441 103.016 259.085 109.88 268.061 109.88C277.037 109.88 283.681 103.016 283.681 93.6C283.681 84.184 277.037 77.32 268.061 77.32C259.085 77.32 252.441 84.184 252.441 93.6ZM255.741 93.6C255.741 86.12 260.757 80.4 268.061 80.4C275.365 80.4 280.381 86.12 280.381 93.6C280.381 101.08 275.365 106.8 268.061 106.8C260.757 106.8 255.741 101.08 255.741 93.6ZM302.156 99.76C302.156 105.48 307.216 109.88 315.356 109.88C323.936 109.88 328.556 105.48 328.556 100.2C328.556 93.82 321.956 93.38 321.956 93.38V92.94C321.956 92.94 327.456 92.06 327.456 86.56C327.456 81.06 322.836 77.32 315.136 77.32C307.876 77.32 302.816 81.72 302.816 87.44H306.116C306.116 83.92 308.976 80.4 315.136 80.4C321.296 80.4 324.156 83.26 324.156 86.56C324.156 90.3 321.296 92.06 315.136 92.06H309.856V94.7H315.356C321.296 94.7 325.256 95.8 325.256 100.2C325.256 103.72 322.176 106.8 315.356 106.8C308.536 106.8 305.456 103.28 305.456 99.76H302.156ZM331.005 109H334.085L337.297 100.42H351.289L354.457 109H357.757L346.273 78.2H342.929L331.005 109ZM344.381 81.72L350.321 97.78H338.309L344.381 81.72ZM401.12 78.2H376.48V109H379.78V80.84H397.82V109H401.12V78.2ZM406.398 93.6C406.398 103.016 413.042 109.88 422.018 109.88C430.994 109.88 437.638 103.016 437.638 93.6C437.638 84.184 430.994 77.32 422.018 77.32C413.042 77.32 406.398 84.184 406.398 93.6ZM409.698 93.6C409.698 86.12 414.714 80.4 422.018 80.4C429.322 80.4 434.338 86.12 434.338 93.6C434.338 101.08 429.322 106.8 422.018 106.8C414.714 106.8 409.698 101.08 409.698 93.6ZM461.609 105.92C461.609 108.56 462.269 109 464.689 109H466.889V106.36H465.789C464.909 106.36 464.909 105.92 464.909 105.04V97.252C464.909 92.5 461.125 92.72 461.125 92.72V92.28C461.125 92.28 464.689 92.236 464.689 87.132V82.6C464.689 81.72 464.689 80.4 466.009 80.4H466.889V77.76H464.909C461.829 77.76 461.609 79.52 461.609 81.72V86.032C461.609 89.464 460.993 91.62 457.121 91.62H446.209V78.2H442.909V109H446.209V94.26H457.121C460.553 94.26 461.609 94.7 461.609 98.132V105.92ZM498.688 78.2H495.3L485.4 99.012L474.224 78.2H470.616L483.86 102.312L483.288 103.5C482.496 105.216 481.616 106.58 479.636 106.58H476.336V109.44H479.636C484.036 109.44 485.092 107.02 486.236 104.38L498.688 78.2ZM527.491 78.2H502.851V109H506.151V80.84H524.191V109H527.491V78.2ZM552.789 105.92C552.789 108.56 553.449 109 555.869 109H558.069V106.36H556.969C556.089 106.36 556.089 105.92 556.089 105.04V97.252C556.089 92.5 552.305 92.72 552.305 92.72V92.28C552.305 92.28 555.869 92.236 555.869 87.132V82.6C555.869 81.72 555.869 80.4 557.189 80.4H558.069V77.76H556.089C553.009 77.76 552.789 79.52 552.789 81.72V86.032C552.789 89.464 552.173 91.62 548.301 91.62H537.389V78.2H534.089V109H537.389V94.26H548.301C551.733 94.26 552.789 94.7 552.789 98.132V105.92ZM589.867 78.2H586.479L576.579 99.012L565.403 78.2H561.795L575.039 102.312L574.467 103.5C573.675 105.216 572.795 106.58 570.815 106.58H567.515V109.44H570.815C575.215 109.44 576.271 107.02 577.415 104.38L589.867 78.2ZM597.902 100.156H595.394L594.294 77.584H599.002L597.902 100.156ZM593.898 106.624C593.898 105.539 594.162 104.776 594.69 104.336C595.218 103.896 595.864 103.676 596.626 103.676C597.36 103.676 597.99 103.896 598.518 104.336C599.076 104.776 599.354 105.539 599.354 106.624C599.354 107.68 599.076 108.443 598.518 108.912C597.99 109.381 597.36 109.616 596.626 109.616C595.864 109.616 595.218 109.381 594.69 108.912C594.162 108.443 593.898 107.68 593.898 106.624Z" fill="#EC622B"/>
<path d="M65.35 158H70.588C73.63 157.982 75.088 156.722 75.088 154.454C75.088 151.34 72.262 151.34 72.262 151.34V151.16C72.262 151.16 74.62 150.98 74.62 148.424C74.62 146.354 73.18 145.418 70.3 145.4H65.35V158ZM66.7 151.97H70.66C72.91 151.97 73.828 152.834 73.828 154.454C73.828 155.894 72.91 156.92 70.66 156.92H66.7V151.97ZM66.7 146.48H70.3C72.1 146.48 73.36 146.93 73.36 148.46C73.36 150.17 72.1 150.89 70.3 150.89H66.7V146.48ZM83.9083 158H86.3383V157.37H86.0683C85.4383 157.37 85.1683 157.28 85.1683 156.11V153.59C85.1683 150.962 84.7183 148.82 81.0283 148.82C78.7783 148.82 76.8883 150.08 76.8883 152.33H78.1483C78.1483 150.998 79.0483 149.9 81.0283 149.9C83.3683 149.9 83.8903 151.142 83.9083 152.528C82.6663 152.618 77.1583 152.996 77.1583 156.2C77.1583 157.46 77.9683 158.36 79.6783 158.36C81.7303 158.36 83.3503 156.632 83.9083 155.93V158ZM83.9083 154.94C83.3143 155.678 81.6583 157.28 80.0383 157.28C78.9583 157.28 78.4183 156.92 78.4183 156.11C78.4183 153.968 82.7743 153.626 83.9083 153.518V154.94ZM88.0413 158H98.1213V149.18H96.8613V157.01H93.7113V149.18H92.4513V157.01H89.3013V149.18H88.0413V158ZM106.226 154.85C106.226 157.208 107.99 158.36 110.636 158.36C113.246 158.36 114.956 157.28 114.956 155.39C114.956 153.5 113.066 153.41 113.066 153.41V153.23C113.066 153.23 114.524 153.14 114.524 151.43C114.524 149.702 112.868 148.82 110.546 148.82C108.89 148.82 106.496 149.432 106.496 151.79H107.756C107.756 150.458 109.25 149.9 110.546 149.9C112.652 149.9 113.354 150.62 113.354 151.52C113.354 152.69 112.328 152.96 110.834 152.96H108.836V153.95H110.744C112.454 153.95 113.786 154.13 113.786 155.39C113.786 156.416 112.922 157.28 110.636 157.28C108.296 157.28 107.486 156.182 107.486 154.85H106.226ZM123.775 158H126.205V157.37H125.935C125.305 157.37 125.035 157.28 125.035 156.11V153.59C125.035 150.962 124.585 148.82 120.895 148.82C118.645 148.82 116.755 150.08 116.755 152.33H118.015C118.015 150.998 118.915 149.9 120.895 149.9C123.235 149.9 123.757 151.142 123.775 152.528C122.533 152.618 117.025 152.996 117.025 156.2C117.025 157.46 117.835 158.36 119.545 158.36C121.597 158.36 123.217 156.632 123.775 155.93V158ZM123.775 154.94C123.181 155.678 121.525 157.28 119.905 157.28C118.825 157.28 118.285 156.92 118.285 156.11C118.285 153.968 122.641 153.626 123.775 153.518V154.94ZM133.758 156.74C133.758 157.82 134.028 158 135.018 158H135.828V157.01H135.378C135.018 157.01 135.018 156.83 135.018 156.47V155.12C135.018 153.446 133.758 153.446 133.758 153.446V153.266C133.758 153.266 134.928 153.266 134.928 151.43V150.62C134.928 150.08 135.018 149.99 135.468 149.99H135.738V149H135.108C134.028 149 133.758 149.36 133.758 150.62V151.07C133.758 152.114 133.776 152.996 132.372 152.996H129.168V149.18H127.908V158H129.168V153.986H132.372C133.776 153.986 133.758 154.706 133.758 155.57V156.74ZM144.641 158H147.071V157.37H146.801C146.171 157.37 145.901 157.28 145.901 156.11V153.59C145.901 150.962 145.451 148.82 141.761 148.82C139.511 148.82 137.621 150.08 137.621 152.33H138.881C138.881 150.998 139.781 149.9 141.761 149.9C144.101 149.9 144.623 151.142 144.641 152.528C143.399 152.618 137.891 152.996 137.891 156.2C137.891 157.46 138.701 158.36 140.411 158.36C142.463 158.36 144.083 156.632 144.641 155.93V158ZM144.641 154.94C144.047 155.678 142.391 157.28 140.771 157.28C139.691 157.28 139.151 156.92 139.151 156.11C139.151 153.968 143.507 153.626 144.641 153.518V154.94ZM148.238 154.85C148.238 157.208 150.002 158.36 152.648 158.36C155.258 158.36 156.968 157.28 156.968 155.39C156.968 153.5 155.078 153.41 155.078 153.41V153.23C155.078 153.23 156.536 153.14 156.536 151.43C156.536 149.702 154.88 148.82 152.558 148.82C150.902 148.82 148.508 149.432 148.508 151.79H149.768C149.768 150.458 151.262 149.9 152.558 149.9C154.664 149.9 155.366 150.62 155.366 151.52C155.366 152.69 154.34 152.96 152.846 152.96H150.848V153.95H152.756C154.466 153.95 155.798 154.13 155.798 155.39C155.798 156.416 154.934 157.28 152.648 157.28C150.308 157.28 149.498 156.182 149.498 154.85H148.238ZM172.719 149.18H165.069V158H166.329V150.17H171.459V158H172.719V149.18ZM176.506 153.59C176.506 151.844 177.64 149.9 179.746 149.9C181.852 149.9 182.806 151.844 182.806 153.59C182.806 155.336 181.852 157.28 179.746 157.28C177.64 157.28 176.506 155.336 176.506 153.59ZM176.506 157.28L176.326 156.11H176.506C176.506 156.11 177.316 158.36 179.926 158.36C182.374 158.36 184.066 156.218 184.066 153.59C184.066 150.962 182.464 148.82 179.836 148.82C177.316 148.82 176.506 151.07 176.506 151.07H176.326V149.18H175.246V161.24H176.506V157.28ZM193.885 149.18H192.445L187.405 156.596V149.18H186.145V158H187.585L192.625 150.584V158H193.885V149.18ZM204.15 149.18H202.89V153.05H197.67V149.18H196.41V158H197.67V154.04H202.89V158H204.15V149.18ZM208.206 155.75C208.206 154.85 208.566 154.31 210.006 154.31H212.886V158H214.146V149.18H210.186C207.306 149.198 206.586 150.584 206.586 151.736C206.586 153.5 208.224 153.77 208.224 153.77V153.95C208.224 153.95 207.036 154.13 207.036 155.624V156.11C207.036 157.28 206.766 157.37 206.136 157.37H205.956V158H208.206V155.75ZM212.886 153.32H210.042C208.458 153.32 207.756 152.708 207.756 151.808C207.756 150.854 208.458 150.17 210.222 150.17H212.886V153.32ZM215.76 150.17H219.09V158H220.35V150.17H223.68V149.18H215.76V150.17ZM238.99 149.18H237.55L232.51 156.596V149.18H231.25V158H232.69L237.73 150.584V158H238.99V149.18ZM248.051 160.16V161.24H249.131C250.409 161.24 250.787 160.97 251.381 159.53L255.701 149.18H254.351L251.309 156.596L247.853 149.18H246.467L250.715 158.018L250.229 159.206C249.887 160.016 249.617 160.16 248.771 160.16H248.051ZM258.941 155.57C258.941 154.706 258.923 153.986 260.327 153.986H262.091V158H263.351V153.986H265.115C266.519 153.986 266.501 154.706 266.501 155.57V156.74C266.501 157.82 266.771 158 267.761 158H268.571V157.01H268.121C267.761 157.01 267.761 156.83 267.761 156.47V155.12C267.761 153.446 266.501 153.446 266.501 153.446V153.266C266.501 153.266 267.671 153.266 267.671 151.43V150.62C267.671 150.08 267.761 149.99 268.211 149.99H268.481V149H267.851C266.771 149 266.501 149.36 266.501 150.62V151.07C266.501 152.114 266.519 152.996 265.115 152.996H263.351V149.18H262.091V152.996H260.327C258.923 152.996 258.941 152.114 258.941 151.07V150.62C258.941 149.36 258.671 149 257.591 149H256.961V149.99H257.231C257.681 149.99 257.771 150.08 257.771 150.62V151.43C257.771 153.266 258.941 153.266 258.941 153.266V153.446C258.941 153.446 257.681 153.446 257.681 155.12V156.47C257.681 156.83 257.681 157.01 257.321 157.01H256.871V158H257.681C258.671 158 258.941 157.82 258.941 156.74V155.57ZM275.159 157.28C272.603 157.28 271.595 155.48 271.541 153.77H279.821V153.23C279.821 150.872 278.399 148.82 275.123 148.82C272.063 148.82 270.281 150.962 270.281 153.59C270.281 156.218 272.099 158.36 275.159 158.36C277.355 158.36 279.281 157.388 279.641 155.21H278.381C278.201 156.362 276.995 157.28 275.159 157.28ZM275.123 149.9C277.553 149.9 278.381 151.502 278.525 152.78H271.595C271.865 151.304 272.873 149.9 275.123 149.9ZM288.644 153.59C288.644 151.844 289.67 149.9 292.316 149.9C294.152 149.9 295.664 150.998 295.664 152.33H296.924C296.924 149.972 294.512 148.82 292.316 148.82C289.256 148.82 287.384 150.962 287.384 153.59C287.384 156.218 289.256 158.36 292.316 158.36C294.512 158.36 296.924 157.208 296.924 154.85H295.664C295.664 156.182 294.152 157.28 292.316 157.28C289.67 157.28 288.644 155.336 288.644 153.59ZM298.634 153.59C298.634 156.218 300.686 158.36 303.494 158.36C306.302 158.36 308.354 156.218 308.354 153.59C308.354 150.962 306.302 148.82 303.494 148.82C300.686 148.82 298.634 150.962 298.634 153.59ZM299.894 153.59C299.894 151.844 301.028 149.9 303.494 149.9C305.96 149.9 307.094 151.844 307.094 153.59C307.094 155.336 305.96 157.28 303.494 157.28C301.028 157.28 299.894 155.336 299.894 153.59ZM319.062 153.95C319.062 151.322 317.19 149.54 314.742 149.54C312.042 149.54 311.322 151.7 311.322 151.7H311.142C311.322 148.82 312.402 147.29 315.192 147.02C317.586 146.786 318.612 146.75 318.612 144.86V144.5H317.622V144.68C317.622 145.58 317.172 145.508 315.282 145.76C312.582 146.12 310.062 147.056 310.062 152.87C310.062 156.74 311.934 158.36 314.562 158.36C317.19 158.36 319.062 156.578 319.062 153.95ZM311.322 153.95C311.322 152.204 312.366 150.62 314.562 150.62C316.758 150.62 317.802 152.204 317.802 153.95C317.802 155.696 316.758 157.28 314.562 157.28C312.366 157.28 311.322 155.696 311.322 153.95ZM328.867 149.18H327.427L322.387 156.596V149.18H321.127V158H322.567L327.607 150.584V158H328.867V149.18ZM332.653 153.59C332.653 151.844 333.787 149.9 335.893 149.9C337.999 149.9 338.953 151.844 338.953 153.59C338.953 155.336 337.999 157.28 335.893 157.28C333.787 157.28 332.653 155.336 332.653 153.59ZM332.653 157.28L332.473 156.11H332.653C332.653 156.11 333.463 158.36 336.073 158.36C338.521 158.36 340.213 156.218 340.213 153.59C340.213 150.962 338.611 148.82 335.983 148.82C333.463 148.82 332.653 151.07 332.653 151.07H332.473V149.18H331.393V161.24H332.653V157.28ZM348.951 158H351.381V157.37H351.111C350.481 157.37 350.211 157.28 350.211 156.11V153.59C350.211 150.962 349.761 148.82 346.071 148.82C343.821 148.82 341.931 150.08 341.931 152.33H343.191C343.191 150.998 344.091 149.9 346.071 149.9C348.411 149.9 348.933 151.142 348.951 152.528C347.709 152.618 342.201 152.996 342.201 156.2C342.201 157.46 343.011 158.36 344.721 158.36C346.773 158.36 348.393 156.632 348.951 155.93V158ZM348.951 154.94C348.357 155.678 346.701 157.28 345.081 157.28C344.001 157.28 343.461 156.92 343.461 156.11C343.461 153.968 347.817 153.626 348.951 153.518V154.94ZM357.336 157.28C354.78 157.28 353.772 155.48 353.718 153.77H361.998V153.23C361.998 150.872 360.576 148.82 357.3 148.82C354.24 148.82 352.458 150.962 352.458 153.59C352.458 156.218 354.276 158.36 357.336 158.36C359.532 158.36 361.458 157.388 361.818 155.21H360.558C360.378 156.362 359.172 157.28 357.336 157.28ZM357.3 149.9C359.73 149.9 360.558 151.502 360.702 152.78H353.772C354.042 151.304 355.05 149.9 357.3 149.9ZM362.995 150.17H366.325V158H367.585V150.17H370.915V149.18H362.995V150.17ZM373.177 153.59C373.177 151.844 374.203 149.9 376.849 149.9C378.685 149.9 380.197 150.998 380.197 152.33H381.457C381.457 149.972 379.045 148.82 376.849 148.82C373.789 148.82 371.917 150.962 371.917 153.59C371.917 156.218 373.789 158.36 376.849 158.36C379.045 158.36 381.457 157.208 381.457 154.85H380.197C380.197 156.182 378.685 157.28 376.849 157.28C374.203 157.28 373.177 155.336 373.177 153.59ZM385.147 155.75C385.147 154.85 385.507 154.31 386.947 154.31H389.827V158H391.087V149.18H387.127C384.247 149.198 383.527 150.584 383.527 151.736C383.527 153.5 385.165 153.77 385.165 153.77V153.95C385.165 153.95 383.977 154.13 383.977 155.624V156.11C383.977 157.28 383.707 157.37 383.077 157.37H382.897V158H385.147V155.75ZM389.827 153.32H386.983C385.399 153.32 384.697 152.708 384.697 151.808C384.697 150.854 385.399 150.17 387.163 150.17H389.827V153.32ZM393.638 157.028C393.638 156.584 393.746 156.272 393.962 156.092C394.178 155.912 394.436 155.822 394.736 155.822C395.048 155.822 395.312 155.912 395.528 156.092C395.756 156.272 395.87 156.584 395.87 157.028C395.87 157.46 395.756 157.772 395.528 157.964C395.312 158.156 395.048 158.252 394.736 158.252C394.436 158.252 394.178 158.156 393.962 157.964C393.746 157.772 393.638 157.46 393.638 157.028ZM404.45 158H409.688C412.73 157.982 414.188 156.722 414.188 154.454C414.188 151.34 411.362 151.34 411.362 151.34V151.16C411.362 151.16 413.72 150.98 413.72 148.424C413.72 146.354 412.28 145.418 409.4 145.4H404.45V158ZM405.8 151.97H409.76C412.01 151.97 412.928 152.834 412.928 154.454C412.928 155.894 412.01 156.92 409.76 156.92H405.8V151.97ZM405.8 146.48H409.4C411.2 146.48 412.46 146.93 412.46 148.46C412.46 150.17 411.2 150.89 409.4 150.89H405.8V146.48ZM415.898 153.59C415.898 156.218 417.95 158.36 420.758 158.36C423.566 158.36 425.618 156.218 425.618 153.59C425.618 150.962 423.566 148.82 420.758 148.82C417.95 148.82 415.898 150.962 415.898 153.59ZM417.158 153.59C417.158 151.844 418.292 149.9 420.758 149.9C423.224 149.9 424.358 151.844 424.358 153.59C424.358 155.336 423.224 157.28 420.758 157.28C418.292 157.28 417.158 155.336 417.158 153.59ZM426.61 150.17H429.94V158H431.2V150.17H434.53V149.18H426.61V150.17ZM435.618 153.878V152.474H439.974V153.878H435.618ZM441.959 158H446.567C448.907 157.982 449.717 156.632 449.717 155.444C449.717 153.41 447.611 153.41 447.611 153.41V153.23C447.611 153.23 449.339 152.942 449.339 151.394C449.339 150.224 448.619 149.198 446.189 149.18H441.959V158ZM443.219 153.86H445.883C447.827 153.86 448.457 154.58 448.457 155.444C448.457 156.308 447.845 157.01 446.441 157.01H443.219V153.86ZM443.219 150.17H446.153C447.557 150.17 448.079 150.656 448.079 151.43C448.079 152.114 447.737 152.87 446.153 152.87H443.219V150.17ZM451.335 153.59C451.335 156.218 453.387 158.36 456.195 158.36C459.003 158.36 461.055 156.218 461.055 153.59C461.055 150.962 459.003 148.82 456.195 148.82C453.387 148.82 451.335 150.962 451.335 153.59ZM452.595 153.59C452.595 151.844 453.729 149.9 456.195 149.9C458.661 149.9 459.795 151.844 459.795 153.59C459.795 155.336 458.661 157.28 456.195 157.28C453.729 157.28 452.595 155.336 452.595 153.59ZM462.048 150.17H465.378V158H466.638V150.17H469.968V149.18H462.048V150.17ZM486.177 153.95C486.177 151.322 484.305 149.54 481.857 149.54C479.157 149.54 478.437 151.7 478.437 151.7H478.257C478.437 148.82 479.517 147.29 482.307 147.02C484.701 146.786 485.727 146.75 485.727 144.86V144.5H484.737V144.68C484.737 145.58 484.287 145.508 482.397 145.76C479.697 146.12 477.177 147.056 477.177 152.87C477.177 156.74 479.049 158.36 481.677 158.36C484.305 158.36 486.177 156.578 486.177 153.95ZM478.437 153.95C478.437 152.204 479.481 150.62 481.677 150.62C483.873 150.62 484.917 152.204 484.917 153.95C484.917 155.696 483.873 157.28 481.677 157.28C479.481 157.28 478.437 155.696 478.437 153.95ZM488.661 160.16V161.24H489.741C491.019 161.24 491.397 160.97 491.991 159.53L496.311 149.18H494.961L491.919 156.596L488.463 149.18H487.077L491.325 158.018L490.839 159.206C490.497 160.016 490.227 160.16 489.381 160.16H488.661ZM504.416 149.18H498.836V150.98C498.836 154.04 498.206 155.93 497.216 157.01H495.776V160.25H496.856V158H505.046V160.25H506.126V157.01H504.416V149.18ZM503.156 150.17V157.01H498.476C499.376 155.75 499.916 153.86 499.916 151.34V150.17H503.156ZM511.901 157.28C509.345 157.28 508.337 155.48 508.283 153.77H516.563V153.23C516.563 150.872 515.141 148.82 511.865 148.82C508.805 148.82 507.023 150.962 507.023 153.59C507.023 156.218 508.841 158.36 511.901 158.36C514.097 158.36 516.023 157.388 516.383 155.21H515.123C514.943 156.362 513.737 157.28 511.901 157.28ZM511.865 149.9C514.295 149.9 515.123 151.502 515.267 152.78H508.337C508.607 151.304 509.615 149.9 511.865 149.9ZM517.559 150.17H520.889V158H522.149V150.17H525.479V149.18H517.559V150.17ZM533.643 160.16V161.24H534.723C536.001 161.24 536.379 160.97 536.973 159.53L541.293 149.18H539.943L536.901 156.596L533.445 149.18H532.059L536.307 158.018L535.821 159.206C535.479 160.016 535.209 160.16 534.363 160.16H533.643ZM548.764 158H553.372C555.712 157.982 556.522 156.632 556.522 155.444C556.522 153.41 554.416 153.41 554.416 153.41V153.23C554.416 153.23 556.144 152.942 556.144 151.394C556.144 150.224 555.424 149.198 552.994 149.18H548.764V158ZM550.024 153.86H552.688C554.632 153.86 555.262 154.58 555.262 155.444C555.262 156.308 554.65 157.01 553.246 157.01H550.024V153.86ZM550.024 150.17H552.958C554.362 150.17 554.884 150.656 554.884 151.43C554.884 152.114 554.542 152.87 552.958 152.87H550.024V150.17ZM565.25 158H567.68V157.37H567.41C566.78 157.37 566.51 157.28 566.51 156.11V153.59C566.51 150.962 566.06 148.82 562.37 148.82C560.12 148.82 558.23 150.08 558.23 152.33H559.49C559.49 150.998 560.39 149.9 562.37 149.9C564.71 149.9 565.232 151.142 565.25 152.528C564.008 152.618 558.5 152.996 558.5 156.2C558.5 157.46 559.31 158.36 561.02 158.36C563.072 158.36 564.692 156.632 565.25 155.93V158ZM565.25 154.94C564.656 155.678 563 157.28 561.38 157.28C560.3 157.28 559.76 156.92 559.76 156.11C559.76 153.968 564.116 153.626 565.25 153.518V154.94ZM570.017 153.59C570.017 151.844 571.043 149.9 573.689 149.9C575.525 149.9 577.037 150.998 577.037 152.33H578.297C578.297 149.972 575.885 148.82 573.689 148.82C570.629 148.82 568.757 150.962 568.757 153.59C568.757 156.218 570.629 158.36 573.689 158.36C575.885 158.36 578.297 157.208 578.297 154.85H577.037C577.037 156.182 575.525 157.28 573.689 157.28C571.043 157.28 570.017 155.336 570.017 153.59ZM580.493 157.028C580.493 156.584 580.601 156.272 580.817 156.092C581.033 155.912 581.291 155.822 581.591 155.822C581.903 155.822 582.167 155.912 582.383 156.092C582.611 156.272 582.725 156.584 582.725 157.028C582.725 157.46 582.611 157.772 582.383 157.964C582.167 158.156 581.903 158.252 581.591 158.252C581.291 158.252 581.033 158.156 580.817 157.964C580.601 157.772 580.493 157.46 580.493 157.028ZM64.81 171.7C64.81 175.552 67.528 178.36 71.2 178.36C74.872 178.36 77.59 175.552 77.59 171.7C77.59 167.848 74.872 165.04 71.2 165.04C67.528 165.04 64.81 167.848 64.81 171.7ZM66.16 171.7C66.16 168.64 68.212 166.3 71.2 166.3C74.188 166.3 76.24 168.64 76.24 171.7C76.24 174.76 74.188 177.1 71.2 177.1C68.212 177.1 66.16 174.76 66.16 171.7ZM81.3665 175.57C81.3665 174.706 81.3485 173.986 82.7525 173.986H84.5165V178H85.7765V173.986H87.5405C88.9445 173.986 88.9265 174.706 88.9265 175.57V176.74C88.9265 177.82 89.1965 178 90.1865 178H90.9965V177.01H90.5465C90.1865 177.01 90.1865 176.83 90.1865 176.47V175.12C90.1865 173.446 88.9265 173.446 88.9265 173.446V173.266C88.9265 173.266 90.0965 173.266 90.0965 171.43V170.62C90.0965 170.08 90.1865 169.99 90.6365 169.99H90.9065V169H90.2765C89.1965 169 88.9265 169.36 88.9265 170.62V171.07C88.9265 172.114 88.9445 172.996 87.5405 172.996H85.7765V169.18H84.5165V172.996H82.7525C81.3485 172.996 81.3665 172.114 81.3665 171.07V170.62C81.3665 169.36 81.0965 169 80.0165 169H79.3865V169.99H79.6565C80.1065 169.99 80.1965 170.08 80.1965 170.62V171.43C80.1965 173.266 81.3665 173.266 81.3665 173.266V173.446C81.3665 173.446 80.1065 173.446 80.1065 175.12V176.47C80.1065 176.83 80.1065 177.01 79.7465 177.01H79.2965V178H80.1065C81.0965 178 81.3665 177.82 81.3665 176.74V175.57ZM100.896 169.18H99.4565L94.4165 176.596V169.18H93.1565V178H94.5965L99.6365 170.584V178H100.896V169.18ZM110.982 169.18H105.402V170.98C105.402 174.04 104.772 175.93 103.782 177.01H102.342V180.25H103.422V178H111.612V180.25H112.692V177.01H110.982V169.18ZM109.722 170.17V177.01H105.042C105.942 175.75 106.482 173.86 106.482 171.34V170.17H109.722ZM120.875 178H123.305V177.37H123.035C122.405 177.37 122.135 177.28 122.135 176.11V173.59C122.135 170.962 121.685 168.82 117.995 168.82C115.745 168.82 113.855 170.08 113.855 172.33H115.115C115.115 170.998 116.015 169.9 117.995 169.9C120.335 169.9 120.857 171.142 120.875 172.528C119.633 172.618 114.125 172.996 114.125 176.2C114.125 177.46 114.935 178.36 116.645 178.36C118.697 178.36 120.317 176.632 120.875 175.93V178ZM120.875 174.94C120.281 175.678 118.625 177.28 117.005 177.28C115.925 177.28 115.385 176.92 115.385 176.11C115.385 173.968 119.741 173.626 120.875 173.518V174.94ZM130.498 165.4C130.498 166.12 130.156 166.93 128.878 166.93C127.6 166.93 127.258 166.12 127.258 165.4H126.268C126.268 166.912 127.276 167.83 128.878 167.83C130.48 167.83 131.488 166.912 131.488 165.4H130.498ZM132.748 169.18H131.308L126.268 176.596V169.18H125.008V178H126.448L131.488 170.584V178H132.748V169.18ZM134.374 170.17H137.704V178H138.964V170.17H142.294V169.18H134.374V170.17ZM148.174 177.28C145.618 177.28 144.61 175.48 144.556 173.77H152.836V173.23C152.836 170.872 151.414 168.82 148.138 168.82C145.078 168.82 143.296 170.962 143.296 173.59C143.296 176.218 145.114 178.36 148.174 178.36C150.37 178.36 152.296 177.388 152.656 175.21H151.396C151.216 176.362 150.01 177.28 148.174 177.28ZM148.138 169.9C150.568 169.9 151.396 171.502 151.54 172.78H144.61C144.88 171.304 145.888 169.9 148.138 169.9ZM160.49 174.85C160.49 177.208 162.254 178.36 164.9 178.36C167.51 178.36 169.22 177.28 169.22 175.39C169.22 173.5 167.33 173.41 167.33 173.41V173.23C167.33 173.23 168.788 173.14 168.788 171.43C168.788 169.702 167.132 168.82 164.81 168.82C163.154 168.82 160.76 169.432 160.76 171.79H162.02C162.02 170.458 163.514 169.9 164.81 169.9C166.916 169.9 167.618 170.62 167.618 171.52C167.618 172.69 166.592 172.96 165.098 172.96H163.1V173.95H165.008C166.718 173.95 168.05 174.13 168.05 175.39C168.05 176.416 167.186 177.28 164.9 177.28C162.56 177.28 161.75 176.182 161.75 174.85H160.49ZM171.379 178H175.987C178.327 177.982 179.137 176.632 179.137 175.444C179.137 173.41 177.031 173.41 177.031 173.41V173.23C177.031 173.23 178.759 172.942 178.759 171.394C178.759 170.224 178.039 169.198 175.609 169.18H171.379V178ZM172.639 173.86H175.303C177.247 173.86 177.877 174.58 177.877 175.444C177.877 176.308 177.265 177.01 175.861 177.01H172.639V173.86ZM172.639 170.17H175.573C176.977 170.17 177.499 170.656 177.499 171.43C177.499 172.114 177.157 172.87 175.573 172.87H172.639V170.17ZM180.755 173.59C180.755 176.218 182.807 178.36 185.615 178.36C188.423 178.36 190.475 176.218 190.475 173.59C190.475 170.962 188.423 168.82 185.615 168.82C182.807 168.82 180.755 170.962 180.755 173.59ZM182.015 173.59C182.015 171.844 183.149 169.9 185.615 169.9C188.081 169.9 189.215 171.844 189.215 173.59C189.215 175.336 188.081 177.28 185.615 177.28C183.149 177.28 182.015 175.336 182.015 173.59ZM200.283 169.18H199.023V173.05H193.803V169.18H192.543V178H193.803V174.04H199.023V178H200.283V169.18ZM208.659 176.74C208.659 177.82 208.929 178 209.919 178H210.729V177.01H210.279C209.919 177.01 209.919 176.83 209.919 176.47V175.12C209.919 173.446 208.659 173.446 208.659 173.446V173.266C208.659 173.266 209.829 173.266 209.829 171.43V170.62C209.829 170.08 209.919 169.99 210.369 169.99H210.639V169H210.009C208.929 169 208.659 169.36 208.659 170.62V171.07C208.659 172.114 208.677 172.996 207.273 172.996H204.069V169.18H202.809V178H204.069V173.986H207.273C208.677 173.986 208.659 174.706 208.659 175.57V176.74ZM219.541 178H221.971V177.37H221.701C221.071 177.37 220.801 177.28 220.801 176.11V173.59C220.801 170.962 220.351 168.82 216.661 168.82C214.411 168.82 212.521 170.08 212.521 172.33H213.781C213.781 170.998 214.681 169.9 216.661 169.9C219.001 169.9 219.523 171.142 219.541 172.528C218.299 172.618 212.791 172.996 212.791 176.2C212.791 177.46 213.601 178.36 215.311 178.36C217.363 178.36 218.983 176.632 219.541 175.93V178ZM219.541 174.94C218.947 175.678 217.291 177.28 215.671 177.28C214.591 177.28 214.051 176.92 214.051 176.11C214.051 173.968 218.407 173.626 219.541 173.518V174.94ZM235.465 176.74C235.465 177.82 235.735 178 236.725 178H237.535V177.01H237.085C236.725 177.01 236.725 176.83 236.725 176.47V175.12C236.725 173.446 235.465 173.446 235.465 173.446V173.266C235.465 173.266 236.635 173.266 236.635 171.43V170.62C236.635 170.08 236.725 169.99 237.175 169.99H237.445V169H236.815C235.735 169 235.465 169.36 235.465 170.62V171.07C235.465 172.114 235.483 172.996 234.079 172.996H230.875V169.18H229.615V178H230.875V173.986H234.079C235.483 173.986 235.465 174.706 235.465 175.57V176.74ZM240.282 180.16V181.24H241.362C242.64 181.24 243.018 180.97 243.612 179.53L247.932 169.18H246.582L243.54 176.596L240.084 169.18H238.698L242.946 178.018L242.46 179.206C242.118 180.016 241.848 180.16 241.002 180.16H240.282ZM250.721 173.59C250.721 171.844 251.855 169.9 253.961 169.9C256.067 169.9 257.021 171.844 257.021 173.59C257.021 175.336 256.067 177.28 253.961 177.28C251.855 177.28 250.721 175.336 250.721 173.59ZM250.721 177.28L250.541 176.11H250.721C250.721 176.11 251.531 178.36 254.141 178.36C256.589 178.36 258.281 176.218 258.281 173.59C258.281 170.962 256.679 168.82 254.051 168.82C251.531 168.82 250.721 171.07 250.721 171.07H250.541V169.18H249.461V181.24H250.721V177.28ZM260.36 178H263.87C266.93 177.982 267.47 176.848 267.47 175.606C267.47 174.346 266.93 173.248 263.87 173.23H261.62V169.18H260.36V178ZM261.62 174.22H263.834C265.598 174.22 266.3 174.616 266.3 175.606C266.3 176.596 265.598 177.01 263.834 177.01H261.62V174.22ZM273.876 177.28C271.32 177.28 270.312 175.48 270.258 173.77H278.538V173.23C278.538 170.872 277.116 168.82 273.84 168.82C270.78 168.82 268.998 170.962 268.998 173.59C268.998 176.218 270.816 178.36 273.876 178.36C276.072 178.36 277.998 177.388 278.357 175.21H277.098C276.918 176.362 275.712 177.28 273.876 177.28ZM273.84 169.9C276.27 169.9 277.098 171.502 277.242 172.78H270.312C270.582 171.304 271.59 169.9 273.84 169.9ZM281.87 173.59C281.87 171.844 283.004 169.9 285.11 169.9C287.216 169.9 288.17 171.844 288.17 173.59C288.17 175.336 287.216 177.28 285.11 177.28C283.004 177.28 281.87 175.336 281.87 173.59ZM281.87 177.28L281.69 176.11H281.87C281.87 176.11 282.68 178.36 285.29 178.36C287.738 178.36 289.43 176.218 289.43 173.59C289.43 170.962 287.828 168.82 285.2 168.82C282.68 168.82 281.87 171.07 281.87 171.07H281.69V169.18H280.61V181.24H281.87V177.28ZM298.168 178H300.598V177.37H300.328C299.698 177.37 299.428 177.28 299.428 176.11V173.59C299.428 170.962 298.978 168.82 295.288 168.82C293.038 168.82 291.148 170.08 291.148 172.33H292.408C292.408 170.998 293.308 169.9 295.288 169.9C297.628 169.9 298.15 171.142 298.168 172.528C296.926 172.618 291.418 172.996 291.418 176.2C291.418 177.46 292.228 178.36 293.938 178.36C295.99 178.36 297.61 176.632 298.168 175.93V178ZM298.168 174.94C297.574 175.678 295.918 177.28 294.298 177.28C293.218 177.28 292.678 176.92 292.678 176.11C292.678 173.968 297.034 173.626 298.168 173.518V174.94ZM308.278 169.324C308.278 168.868 308.386 168.55 308.602 168.37C308.818 168.19 309.076 168.1 309.376 168.1C309.688 168.1 309.952 168.19 310.168 168.37C310.396 168.55 310.51 168.868 310.51 169.324C310.51 169.756 310.396 170.068 310.168 170.26C309.952 170.452 309.688 170.548 309.376 170.548C309.076 170.548 308.818 170.452 308.602 170.26C308.386 170.068 308.278 169.756 308.278 169.324ZM308.278 177.028C308.278 176.584 308.386 176.272 308.602 176.092C308.818 175.912 309.076 175.822 309.376 175.822C309.688 175.822 309.952 175.912 310.168 176.092C310.396 176.272 310.51 176.584 310.51 177.028C310.51 177.46 310.396 177.772 310.168 177.964C309.952 178.156 309.688 178.252 309.376 178.252C309.076 178.252 308.818 178.156 308.602 177.964C308.386 177.772 308.278 177.46 308.278 177.028ZM316.479 173.068C316.479 174.52 316.263 175.918 315.831 177.262C315.411 178.594 314.745 179.788 313.833 180.844H312.357C313.185 179.716 313.809 178.486 314.229 177.154C314.661 175.81 314.877 174.442 314.877 173.05C314.877 171.622 314.661 170.23 314.229 168.874C313.809 167.518 313.179 166.276 312.339 165.148H313.833C314.745 166.24 315.411 167.47 315.831 168.838C316.263 170.194 316.479 171.604 316.479 173.068Z" fill="#EC622B"/>
</svg>
