<svg width="670" height="265" viewBox="0 0 670 265" fill="none" xmlns="http://www.w3.org/2000/svg">
<rect width="670" height="265" fill="white"/>
<path d="M67.28 93.6C67.28 86.12 71.9 80.4 79.38 80.4C85.936 80.4 89.984 83.744 90.864 89.2H94.208C93.24 81.808 87.608 77.32 79.38 77.32C70.228 77.32 63.98 84.184 63.98 93.6C63.98 103.016 70.404 109.88 79.6 109.88C87.828 109.88 93.46 105.392 94.428 98H91.084C90.204 103.5 86.156 106.8 79.6 106.8C72.076 106.8 67.28 101.08 67.28 93.6ZM124.358 78.2H99.718V109H103.018V80.84H121.058V109H124.358V78.2ZM128.536 109H131.616L134.828 100.42H148.82L151.988 109H155.288L143.804 78.2H140.46L128.536 109ZM141.912 81.72L147.852 97.78H135.84L141.912 81.72ZM160.608 93.6C160.608 86.12 165.228 80.4 172.708 80.4C179.264 80.4 183.312 83.744 184.192 89.2H187.536C186.568 81.808 180.936 77.32 172.708 77.32C163.556 77.32 157.308 84.184 157.308 93.6C157.308 103.016 163.732 109.88 172.928 109.88C181.156 109.88 186.788 105.392 187.756 98H184.412C183.532 103.5 179.484 106.8 172.928 106.8C165.404 106.8 160.608 101.08 160.608 93.6ZM193.046 109H196.346L215.706 82.38V109H219.006V78.2H215.706L196.346 104.82V78.2H193.046V109ZM225.616 109H239.036C246.516 108.956 248.276 104.688 248.276 100.948C248.276 97.164 246.516 92.984 239.036 92.94H228.916V80.84H246.956V78.2H225.616V109ZM228.916 95.58H239.168C243.48 95.58 245.196 97.956 245.196 100.948C245.196 103.94 243.48 106.36 239.168 106.36H228.916V95.58ZM252.441 93.6C252.441 103.016 259.085 109.88 268.061 109.88C277.037 109.88 283.681 103.016 283.681 93.6C283.681 84.184 277.037 77.32 268.061 77.32C259.085 77.32 252.441 84.184 252.441 93.6ZM255.741 93.6C255.741 86.12 260.757 80.4 268.061 80.4C275.365 80.4 280.381 86.12 280.381 93.6C280.381 101.08 275.365 106.8 268.061 106.8C260.757 106.8 255.741 101.08 255.741 93.6ZM302.156 99.76C302.156 105.48 307.216 109.88 315.356 109.88C323.936 109.88 328.556 105.48 328.556 100.2C328.556 93.82 321.956 93.38 321.956 93.38V92.94C321.956 92.94 327.456 92.06 327.456 86.56C327.456 81.06 322.836 77.32 315.136 77.32C307.876 77.32 302.816 81.72 302.816 87.44H306.116C306.116 83.92 308.976 80.4 315.136 80.4C321.296 80.4 324.156 83.26 324.156 86.56C324.156 90.3 321.296 92.06 315.136 92.06H309.856V94.7H315.356C321.296 94.7 325.256 95.8 325.256 100.2C325.256 103.72 322.176 106.8 315.356 106.8C308.536 106.8 305.456 103.28 305.456 99.76H302.156ZM331.005 109H334.085L337.297 100.42H351.289L354.457 109H357.757L346.273 78.2H342.929L331.005 109ZM344.381 81.72L350.321 97.78H338.309L344.381 81.72ZM401.12 78.2H376.48V109H379.78V80.84H397.82V109H401.12V78.2ZM406.398 93.6C406.398 103.016 413.042 109.88 422.018 109.88C430.994 109.88 437.638 103.016 437.638 93.6C437.638 84.184 430.994 77.32 422.018 77.32C413.042 77.32 406.398 84.184 406.398 93.6ZM409.698 93.6C409.698 86.12 414.714 80.4 422.018 80.4C429.322 80.4 434.338 86.12 434.338 93.6C434.338 101.08 429.322 106.8 422.018 106.8C414.714 106.8 409.698 101.08 409.698 93.6ZM461.609 105.92C461.609 108.56 462.269 109 464.689 109H466.889V106.36H465.789C464.909 106.36 464.909 105.92 464.909 105.04V97.252C464.909 92.5 461.125 92.72 461.125 92.72V92.28C461.125 92.28 464.689 92.236 464.689 87.132V82.6C464.689 81.72 464.689 80.4 466.009 80.4H466.889V77.76H464.909C461.829 77.76 461.609 79.52 461.609 81.72V86.032C461.609 89.464 460.993 91.62 457.121 91.62H446.209V78.2H442.909V109H446.209V94.26H457.121C460.553 94.26 461.609 94.7 461.609 98.132V105.92ZM498.688 78.2H495.3L485.4 99.012L474.224 78.2H470.616L483.86 102.312L483.288 103.5C482.496 105.216 481.616 106.58 479.636 106.58H476.336V109.44H479.636C484.036 109.44 485.092 107.02 486.236 104.38L498.688 78.2ZM527.491 78.2H502.851V109H506.151V80.84H524.191V109H527.491V78.2ZM552.789 105.92C552.789 108.56 553.449 109 555.869 109H558.069V106.36H556.969C556.089 106.36 556.089 105.92 556.089 105.04V97.252C556.089 92.5 552.305 92.72 552.305 92.72V92.28C552.305 92.28 555.869 92.236 555.869 87.132V82.6C555.869 81.72 555.869 80.4 557.189 80.4H558.069V77.76H556.089C553.009 77.76 552.789 79.52 552.789 81.72V86.032C552.789 89.464 552.173 91.62 548.301 91.62H537.389V78.2H534.089V109H537.389V94.26H548.301C551.733 94.26 552.789 94.7 552.789 98.132V105.92ZM589.867 78.2H586.479L576.579 99.012L565.403 78.2H561.795L575.039 102.312L574.467 103.5C573.675 105.216 572.795 106.58 570.815 106.58H567.515V109.44H570.815C575.215 109.44 576.271 107.02 577.415 104.38L589.867 78.2ZM597.902 100.156H595.394L594.294 77.584H599.002L597.902 100.156ZM593.898 106.624C593.898 105.539 594.162 104.776 594.69 104.336C595.218 103.896 595.864 103.676 596.626 103.676C597.36 103.676 597.99 103.896 598.518 104.336C599.076 104.776 599.354 105.539 599.354 106.624C599.354 107.68 599.076 108.443 598.518 108.912C597.99 109.381 597.36 109.616 596.626 109.616C595.864 109.616 595.218 109.381 594.69 108.912C594.162 108.443 593.898 107.68 593.898 106.624Z" fill="#EC622B"/>
<path d="M63.35 158H68.588C71.63 157.982 73.088 156.722 73.088 154.454C73.088 151.34 70.262 151.34 70.262 151.34V151.16C70.262 151.16 72.62 150.98 72.62 148.424C72.62 146.354 71.18 145.418 68.3 145.4H63.35V158ZM64.7 151.97H68.66C70.91 151.97 71.828 152.834 71.828 154.454C71.828 155.894 70.91 156.92 68.66 156.92H64.7V151.97ZM64.7 146.48H68.3C70.1 146.48 71.36 146.93 71.36 148.46C71.36 150.17 70.1 150.89 68.3 150.89H64.7V146.48ZM81.9083 158H84.3383V157.37H84.0683C83.4383 157.37 83.1683 157.28 83.1683 156.11V153.59C83.1683 150.962 82.7183 148.82 79.0283 148.82C76.7783 148.82 74.8883 150.08 74.8883 152.33H76.1483C76.1483 150.998 77.0483 149.9 79.0283 149.9C81.3683 149.9 81.8903 151.142 81.9083 152.528C80.6663 152.618 75.1583 152.996 75.1583 156.2C75.1583 157.46 75.9683 158.36 77.6783 158.36C79.7303 158.36 81.3503 156.632 81.9083 155.93V158ZM81.9083 154.94C81.3143 155.678 79.6583 157.28 78.0383 157.28C76.9583 157.28 76.4183 156.92 76.4183 156.11C76.4183 153.968 80.7743 153.626 81.9083 153.518V154.94ZM86.0413 158H96.1213V149.18H94.8613V157.01H91.7113V149.18H90.4513V157.01H87.3013V149.18H86.0413V158ZM104.226 154.85C104.226 157.208 105.99 158.36 108.636 158.36C111.246 158.36 112.956 157.28 112.956 155.39C112.956 153.5 111.066 153.41 111.066 153.41V153.23C111.066 153.23 112.524 153.14 112.524 151.43C112.524 149.702 110.868 148.82 108.546 148.82C106.89 148.82 104.496 149.432 104.496 151.79H105.756C105.756 150.458 107.25 149.9 108.546 149.9C110.652 149.9 111.354 150.62 111.354 151.52C111.354 152.69 110.328 152.96 108.834 152.96H106.836V153.95H108.744C110.454 153.95 111.786 154.13 111.786 155.39C111.786 156.416 110.922 157.28 108.636 157.28C106.296 157.28 105.486 156.182 105.486 154.85H104.226ZM121.775 158H124.205V157.37H123.935C123.305 157.37 123.035 157.28 123.035 156.11V153.59C123.035 150.962 122.585 148.82 118.895 148.82C116.645 148.82 114.755 150.08 114.755 152.33H116.015C116.015 150.998 116.915 149.9 118.895 149.9C121.235 149.9 121.757 151.142 121.775 152.528C120.533 152.618 115.025 152.996 115.025 156.2C115.025 157.46 115.835 158.36 117.545 158.36C119.597 158.36 121.217 156.632 121.775 155.93V158ZM121.775 154.94C121.181 155.678 119.525 157.28 117.905 157.28C116.825 157.28 116.285 156.92 116.285 156.11C116.285 153.968 120.641 153.626 121.775 153.518V154.94ZM131.758 156.74C131.758 157.82 132.028 158 133.018 158H133.828V157.01H133.378C133.018 157.01 133.018 156.83 133.018 156.47V155.12C133.018 153.446 131.758 153.446 131.758 153.446V153.266C131.758 153.266 132.928 153.266 132.928 151.43V150.62C132.928 150.08 133.018 149.99 133.468 149.99H133.738V149H133.108C132.028 149 131.758 149.36 131.758 150.62V151.07C131.758 152.114 131.776 152.996 130.372 152.996H127.168V149.18H125.908V158H127.168V153.986H130.372C131.776 153.986 131.758 154.706 131.758 155.57V156.74ZM142.641 158H145.071V157.37H144.801C144.171 157.37 143.901 157.28 143.901 156.11V153.59C143.901 150.962 143.451 148.82 139.761 148.82C137.511 148.82 135.621 150.08 135.621 152.33H136.881C136.881 150.998 137.781 149.9 139.761 149.9C142.101 149.9 142.623 151.142 142.641 152.528C141.399 152.618 135.891 152.996 135.891 156.2C135.891 157.46 136.701 158.36 138.411 158.36C140.463 158.36 142.083 156.632 142.641 155.93V158ZM142.641 154.94C142.047 155.678 140.391 157.28 138.771 157.28C137.691 157.28 137.151 156.92 137.151 156.11C137.151 153.968 141.507 153.626 142.641 153.518V154.94ZM146.238 154.85C146.238 157.208 148.002 158.36 150.648 158.36C153.258 158.36 154.968 157.28 154.968 155.39C154.968 153.5 153.078 153.41 153.078 153.41V153.23C153.078 153.23 154.536 153.14 154.536 151.43C154.536 149.702 152.88 148.82 150.558 148.82C148.902 148.82 146.508 149.432 146.508 151.79H147.768C147.768 150.458 149.262 149.9 150.558 149.9C152.664 149.9 153.366 150.62 153.366 151.52C153.366 152.69 152.34 152.96 150.846 152.96H148.848V153.95H150.756C152.466 153.95 153.798 154.13 153.798 155.39C153.798 156.416 152.934 157.28 150.648 157.28C148.308 157.28 147.498 156.182 147.498 154.85H146.238ZM170.719 149.18H163.069V158H164.329V150.17H169.459V158H170.719V149.18ZM174.506 153.59C174.506 151.844 175.64 149.9 177.746 149.9C179.852 149.9 180.806 151.844 180.806 153.59C180.806 155.336 179.852 157.28 177.746 157.28C175.64 157.28 174.506 155.336 174.506 153.59ZM174.506 157.28L174.326 156.11H174.506C174.506 156.11 175.316 158.36 177.926 158.36C180.374 158.36 182.066 156.218 182.066 153.59C182.066 150.962 180.464 148.82 177.836 148.82C175.316 148.82 174.506 151.07 174.506 151.07H174.326V149.18H173.246V161.24H174.506V157.28ZM191.885 149.18H190.445L185.405 156.596V149.18H184.145V158H185.585L190.625 150.584V158H191.885V149.18ZM202.15 149.18H200.89V153.05H195.67V149.18H194.41V158H195.67V154.04H200.89V158H202.15V149.18ZM206.206 155.75C206.206 154.85 206.566 154.31 208.006 154.31H210.886V158H212.146V149.18H208.186C205.306 149.198 204.586 150.584 204.586 151.736C204.586 153.5 206.224 153.77 206.224 153.77V153.95C206.224 153.95 205.036 154.13 205.036 155.624V156.11C205.036 157.28 204.766 157.37 204.136 157.37H203.956V158H206.206V155.75ZM210.886 153.32H208.042C206.458 153.32 205.756 152.708 205.756 151.808C205.756 150.854 206.458 150.17 208.222 150.17H210.886V153.32ZM213.76 150.17H217.09V158H218.35V150.17H221.68V149.18H213.76V150.17ZM236.99 149.18H235.55L230.51 156.596V149.18H229.25V158H230.69L235.73 150.584V158H236.99V149.18ZM246.051 160.16V161.24H247.131C248.409 161.24 248.787 160.97 249.381 159.53L253.701 149.18H252.351L249.309 156.596L245.853 149.18H244.467L248.715 158.018L248.229 159.206C247.887 160.016 247.617 160.16 246.771 160.16H246.051ZM256.941 155.57C256.941 154.706 256.923 153.986 258.327 153.986H260.091V158H261.351V153.986H263.115C264.519 153.986 264.501 154.706 264.501 155.57V156.74C264.501 157.82 264.771 158 265.761 158H266.571V157.01H266.121C265.761 157.01 265.761 156.83 265.761 156.47V155.12C265.761 153.446 264.501 153.446 264.501 153.446V153.266C264.501 153.266 265.671 153.266 265.671 151.43V150.62C265.671 150.08 265.761 149.99 266.211 149.99H266.481V149H265.851C264.771 149 264.501 149.36 264.501 150.62V151.07C264.501 152.114 264.519 152.996 263.115 152.996H261.351V149.18H260.091V152.996H258.327C256.923 152.996 256.941 152.114 256.941 151.07V150.62C256.941 149.36 256.671 149 255.591 149H254.961V149.99H255.231C255.681 149.99 255.771 150.08 255.771 150.62V151.43C255.771 153.266 256.941 153.266 256.941 153.266V153.446C256.941 153.446 255.681 153.446 255.681 155.12V156.47C255.681 156.83 255.681 157.01 255.321 157.01H254.871V158H255.681C256.671 158 256.941 157.82 256.941 156.74V155.57ZM273.159 157.28C270.603 157.28 269.595 155.48 269.541 153.77H277.821V153.23C277.821 150.872 276.399 148.82 273.123 148.82C270.063 148.82 268.281 150.962 268.281 153.59C268.281 156.218 270.099 158.36 273.159 158.36C275.355 158.36 277.281 157.388 277.641 155.21H276.381C276.201 156.362 274.995 157.28 273.159 157.28ZM273.123 149.9C275.553 149.9 276.381 151.502 276.525 152.78H269.595C269.865 151.304 270.873 149.9 273.123 149.9ZM286.644 153.59C286.644 151.844 287.67 149.9 290.316 149.9C292.152 149.9 293.664 150.998 293.664 152.33H294.924C294.924 149.972 292.512 148.82 290.316 148.82C287.256 148.82 285.384 150.962 285.384 153.59C285.384 156.218 287.256 158.36 290.316 158.36C292.512 158.36 294.924 157.208 294.924 154.85H293.664C293.664 156.182 292.152 157.28 290.316 157.28C287.67 157.28 286.644 155.336 286.644 153.59ZM296.634 153.59C296.634 156.218 298.686 158.36 301.494 158.36C304.302 158.36 306.354 156.218 306.354 153.59C306.354 150.962 304.302 148.82 301.494 148.82C298.686 148.82 296.634 150.962 296.634 153.59ZM297.894 153.59C297.894 151.844 299.028 149.9 301.494 149.9C303.96 149.9 305.094 151.844 305.094 153.59C305.094 155.336 303.96 157.28 301.494 157.28C299.028 157.28 297.894 155.336 297.894 153.59ZM317.062 153.95C317.062 151.322 315.19 149.54 312.742 149.54C310.042 149.54 309.322 151.7 309.322 151.7H309.142C309.322 148.82 310.402 147.29 313.192 147.02C315.586 146.786 316.612 146.75 316.612 144.86V144.5H315.622V144.68C315.622 145.58 315.172 145.508 313.282 145.76C310.582 146.12 308.062 147.056 308.062 152.87C308.062 156.74 309.934 158.36 312.562 158.36C315.19 158.36 317.062 156.578 317.062 153.95ZM309.322 153.95C309.322 152.204 310.366 150.62 312.562 150.62C314.758 150.62 315.802 152.204 315.802 153.95C315.802 155.696 314.758 157.28 312.562 157.28C310.366 157.28 309.322 155.696 309.322 153.95ZM326.867 149.18H325.427L320.387 156.596V149.18H319.127V158H320.567L325.607 150.584V158H326.867V149.18ZM330.653 153.59C330.653 151.844 331.787 149.9 333.893 149.9C335.999 149.9 336.953 151.844 336.953 153.59C336.953 155.336 335.999 157.28 333.893 157.28C331.787 157.28 330.653 155.336 330.653 153.59ZM330.653 157.28L330.473 156.11H330.653C330.653 156.11 331.463 158.36 334.073 158.36C336.521 158.36 338.213 156.218 338.213 153.59C338.213 150.962 336.611 148.82 333.983 148.82C331.463 148.82 330.653 151.07 330.653 151.07H330.473V149.18H329.393V161.24H330.653V157.28ZM346.951 158H349.381V157.37H349.111C348.481 157.37 348.211 157.28 348.211 156.11V153.59C348.211 150.962 347.761 148.82 344.071 148.82C341.821 148.82 339.931 150.08 339.931 152.33H341.191C341.191 150.998 342.091 149.9 344.071 149.9C346.411 149.9 346.933 151.142 346.951 152.528C345.709 152.618 340.201 152.996 340.201 156.2C340.201 157.46 341.011 158.36 342.721 158.36C344.773 158.36 346.393 156.632 346.951 155.93V158ZM346.951 154.94C346.357 155.678 344.701 157.28 343.081 157.28C342.001 157.28 341.461 156.92 341.461 156.11C341.461 153.968 345.817 153.626 346.951 153.518V154.94ZM355.336 157.28C352.78 157.28 351.772 155.48 351.718 153.77H359.998V153.23C359.998 150.872 358.576 148.82 355.3 148.82C352.24 148.82 350.458 150.962 350.458 153.59C350.458 156.218 352.276 158.36 355.336 158.36C357.532 158.36 359.458 157.388 359.818 155.21H358.558C358.378 156.362 357.172 157.28 355.336 157.28ZM355.3 149.9C357.73 149.9 358.558 151.502 358.702 152.78H351.772C352.042 151.304 353.05 149.9 355.3 149.9ZM360.995 150.17H364.325V158H365.585V150.17H368.915V149.18H360.995V150.17ZM371.177 153.59C371.177 151.844 372.203 149.9 374.849 149.9C376.685 149.9 378.197 150.998 378.197 152.33H379.457C379.457 149.972 377.045 148.82 374.849 148.82C371.789 148.82 369.917 150.962 369.917 153.59C369.917 156.218 371.789 158.36 374.849 158.36C377.045 158.36 379.457 157.208 379.457 154.85H378.197C378.197 156.182 376.685 157.28 374.849 157.28C372.203 157.28 371.177 155.336 371.177 153.59ZM383.147 155.75C383.147 154.85 383.507 154.31 384.947 154.31H387.827V158H389.087V149.18H385.127C382.247 149.198 381.527 150.584 381.527 151.736C381.527 153.5 383.165 153.77 383.165 153.77V153.95C383.165 153.95 381.977 154.13 381.977 155.624V156.11C381.977 157.28 381.707 157.37 381.077 157.37H380.897V158H383.147V155.75ZM387.827 153.32H384.983C383.399 153.32 382.697 152.708 382.697 151.808C382.697 150.854 383.399 150.17 385.163 150.17H387.827V153.32ZM391.638 157.028C391.638 156.584 391.746 156.272 391.962 156.092C392.178 155.912 392.436 155.822 392.736 155.822C393.048 155.822 393.312 155.912 393.528 156.092C393.756 156.272 393.87 156.584 393.87 157.028C393.87 157.46 393.756 157.772 393.528 157.964C393.312 158.156 393.048 158.252 392.736 158.252C392.436 158.252 392.178 158.156 391.962 157.964C391.746 157.772 391.638 157.46 391.638 157.028ZM402.45 158H407.688C410.73 157.982 412.188 156.722 412.188 154.454C412.188 151.34 409.362 151.34 409.362 151.34V151.16C409.362 151.16 411.72 150.98 411.72 148.424C411.72 146.354 410.28 145.418 407.4 145.4H402.45V158ZM403.8 151.97H407.76C410.01 151.97 410.928 152.834 410.928 154.454C410.928 155.894 410.01 156.92 407.76 156.92H403.8V151.97ZM403.8 146.48H407.4C409.2 146.48 410.46 146.93 410.46 148.46C410.46 150.17 409.2 150.89 407.4 150.89H403.8V146.48ZM413.898 153.59C413.898 156.218 415.95 158.36 418.758 158.36C421.566 158.36 423.618 156.218 423.618 153.59C423.618 150.962 421.566 148.82 418.758 148.82C415.95 148.82 413.898 150.962 413.898 153.59ZM415.158 153.59C415.158 151.844 416.292 149.9 418.758 149.9C421.224 149.9 422.358 151.844 422.358 153.59C422.358 155.336 421.224 157.28 418.758 157.28C416.292 157.28 415.158 155.336 415.158 153.59ZM424.61 150.17H427.94V158H429.2V150.17H432.53V149.18H424.61V150.17ZM433.618 153.878V152.474H437.974V153.878H433.618ZM439.959 158H444.567C446.907 157.982 447.717 156.632 447.717 155.444C447.717 153.41 445.611 153.41 445.611 153.41V153.23C445.611 153.23 447.339 152.942 447.339 151.394C447.339 150.224 446.619 149.198 444.189 149.18H439.959V158ZM441.219 153.86H443.883C445.827 153.86 446.457 154.58 446.457 155.444C446.457 156.308 445.845 157.01 444.441 157.01H441.219V153.86ZM441.219 150.17H444.153C445.557 150.17 446.079 150.656 446.079 151.43C446.079 152.114 445.737 152.87 444.153 152.87H441.219V150.17ZM449.335 153.59C449.335 156.218 451.387 158.36 454.195 158.36C457.003 158.36 459.055 156.218 459.055 153.59C459.055 150.962 457.003 148.82 454.195 148.82C451.387 148.82 449.335 150.962 449.335 153.59ZM450.595 153.59C450.595 151.844 451.729 149.9 454.195 149.9C456.661 149.9 457.795 151.844 457.795 153.59C457.795 155.336 456.661 157.28 454.195 157.28C451.729 157.28 450.595 155.336 450.595 153.59ZM460.048 150.17H463.378V158H464.638V150.17H467.968V149.18H460.048V150.17ZM484.177 153.95C484.177 151.322 482.305 149.54 479.857 149.54C477.157 149.54 476.437 151.7 476.437 151.7H476.257C476.437 148.82 477.517 147.29 480.307 147.02C482.701 146.786 483.727 146.75 483.727 144.86V144.5H482.737V144.68C482.737 145.58 482.287 145.508 480.397 145.76C477.697 146.12 475.177 147.056 475.177 152.87C475.177 156.74 477.049 158.36 479.677 158.36C482.305 158.36 484.177 156.578 484.177 153.95ZM476.437 153.95C476.437 152.204 477.481 150.62 479.677 150.62C481.873 150.62 482.917 152.204 482.917 153.95C482.917 155.696 481.873 157.28 479.677 157.28C477.481 157.28 476.437 155.696 476.437 153.95ZM486.661 160.16V161.24H487.741C489.019 161.24 489.397 160.97 489.991 159.53L494.311 149.18H492.961L489.919 156.596L486.463 149.18H485.077L489.325 158.018L488.839 159.206C488.497 160.016 488.227 160.16 487.381 160.16H486.661ZM502.416 149.18H496.836V150.98C496.836 154.04 496.206 155.93 495.216 157.01H493.776V160.25H494.856V158H503.046V160.25H504.126V157.01H502.416V149.18ZM501.156 150.17V157.01H496.476C497.376 155.75 497.916 153.86 497.916 151.34V150.17H501.156ZM509.901 157.28C507.345 157.28 506.337 155.48 506.283 153.77H514.563V153.23C514.563 150.872 513.141 148.82 509.865 148.82C506.805 148.82 505.023 150.962 505.023 153.59C505.023 156.218 506.841 158.36 509.901 158.36C512.097 158.36 514.023 157.388 514.383 155.21H513.123C512.943 156.362 511.737 157.28 509.901 157.28ZM509.865 149.9C512.295 149.9 513.123 151.502 513.267 152.78H506.337C506.607 151.304 507.615 149.9 509.865 149.9ZM515.559 150.17H518.889V158H520.149V150.17H523.479V149.18H515.559V150.17ZM531.643 160.16V161.24H532.723C534.001 161.24 534.379 160.97 534.973 159.53L539.293 149.18H537.943L534.901 156.596L531.445 149.18H530.059L534.307 158.018L533.821 159.206C533.479 160.016 533.209 160.16 532.363 160.16H531.643ZM546.764 158H551.372C553.712 157.982 554.522 156.632 554.522 155.444C554.522 153.41 552.416 153.41 552.416 153.41V153.23C552.416 153.23 554.144 152.942 554.144 151.394C554.144 150.224 553.424 149.198 550.994 149.18H546.764V158ZM548.024 153.86H550.688C552.632 153.86 553.262 154.58 553.262 155.444C553.262 156.308 552.65 157.01 551.246 157.01H548.024V153.86ZM548.024 150.17H550.958C552.362 150.17 552.884 150.656 552.884 151.43C552.884 152.114 552.542 152.87 550.958 152.87H548.024V150.17ZM563.25 158H565.68V157.37H565.41C564.78 157.37 564.51 157.28 564.51 156.11V153.59C564.51 150.962 564.06 148.82 560.37 148.82C558.12 148.82 556.23 150.08 556.23 152.33H557.49C557.49 150.998 558.39 149.9 560.37 149.9C562.71 149.9 563.232 151.142 563.25 152.528C562.008 152.618 556.5 152.996 556.5 156.2C556.5 157.46 557.31 158.36 559.02 158.36C561.072 158.36 562.692 156.632 563.25 155.93V158ZM563.25 154.94C562.656 155.678 561 157.28 559.38 157.28C558.3 157.28 557.76 156.92 557.76 156.11C557.76 153.968 562.116 153.626 563.25 153.518V154.94ZM568.017 153.59C568.017 151.844 569.043 149.9 571.689 149.9C573.525 149.9 575.037 150.998 575.037 152.33H576.297C576.297 149.972 573.885 148.82 571.689 148.82C568.629 148.82 566.757 150.962 566.757 153.59C566.757 156.218 568.629 158.36 571.689 158.36C573.885 158.36 576.297 157.208 576.297 154.85H575.037C575.037 156.182 573.525 157.28 571.689 157.28C569.043 157.28 568.017 155.336 568.017 153.59ZM578.493 157.028C578.493 156.584 578.601 156.272 578.817 156.092C579.033 155.912 579.291 155.822 579.591 155.822C579.903 155.822 580.167 155.912 580.383 156.092C580.611 156.272 580.725 156.584 580.725 157.028C580.725 157.46 580.611 157.772 580.383 157.964C580.167 158.156 579.903 158.252 579.591 158.252C579.291 158.252 579.033 158.156 578.817 157.964C578.601 157.772 578.493 157.46 578.493 157.028ZM62.81 171.7C62.81 175.552 65.528 178.36 69.2 178.36C72.872 178.36 75.59 175.552 75.59 171.7C75.59 167.848 72.872 165.04 69.2 165.04C65.528 165.04 62.81 167.848 62.81 171.7ZM64.16 171.7C64.16 168.64 66.212 166.3 69.2 166.3C72.188 166.3 74.24 168.64 74.24 171.7C74.24 174.76 72.188 177.1 69.2 177.1C66.212 177.1 64.16 174.76 64.16 171.7ZM79.3665 175.57C79.3665 174.706 79.3485 173.986 80.7525 173.986H82.5165V178H83.7765V173.986H85.5405C86.9445 173.986 86.9265 174.706 86.9265 175.57V176.74C86.9265 177.82 87.1965 178 88.1865 178H88.9965V177.01H88.5465C88.1865 177.01 88.1865 176.83 88.1865 176.47V175.12C88.1865 173.446 86.9265 173.446 86.9265 173.446V173.266C86.9265 173.266 88.0965 173.266 88.0965 171.43V170.62C88.0965 170.08 88.1865 169.99 88.6365 169.99H88.9065V169H88.2765C87.1965 169 86.9265 169.36 86.9265 170.62V171.07C86.9265 172.114 86.9445 172.996 85.5405 172.996H83.7765V169.18H82.5165V172.996H80.7525C79.3485 172.996 79.3665 172.114 79.3665 171.07V170.62C79.3665 169.36 79.0965 169 78.0165 169H77.3865V169.99H77.6565C78.1065 169.99 78.1965 170.08 78.1965 170.62V171.43C78.1965 173.266 79.3665 173.266 79.3665 173.266V173.446C79.3665 173.446 78.1065 173.446 78.1065 175.12V176.47C78.1065 176.83 78.1065 177.01 77.7465 177.01H77.2965V178H78.1065C79.0965 178 79.3665 177.82 79.3665 176.74V175.57ZM98.8965 169.18H97.4565L92.4165 176.596V169.18H91.1565V178H92.5965L97.6365 170.584V178H98.8965V169.18ZM108.982 169.18H103.402V170.98C103.402 174.04 102.772 175.93 101.782 177.01H100.342V180.25H101.422V178H109.612V180.25H110.692V177.01H108.982V169.18ZM107.722 170.17V177.01H103.042C103.942 175.75 104.482 173.86 104.482 171.34V170.17H107.722ZM118.875 178H121.305V177.37H121.035C120.405 177.37 120.135 177.28 120.135 176.11V173.59C120.135 170.962 119.685 168.82 115.995 168.82C113.745 168.82 111.855 170.08 111.855 172.33H113.115C113.115 170.998 114.015 169.9 115.995 169.9C118.335 169.9 118.857 171.142 118.875 172.528C117.633 172.618 112.125 172.996 112.125 176.2C112.125 177.46 112.935 178.36 114.645 178.36C116.697 178.36 118.317 176.632 118.875 175.93V178ZM118.875 174.94C118.281 175.678 116.625 177.28 115.005 177.28C113.925 177.28 113.385 176.92 113.385 176.11C113.385 173.968 117.741 173.626 118.875 173.518V174.94ZM128.498 165.4C128.498 166.12 128.156 166.93 126.878 166.93C125.6 166.93 125.258 166.12 125.258 165.4H124.268C124.268 166.912 125.276 167.83 126.878 167.83C128.48 167.83 129.488 166.912 129.488 165.4H128.498ZM130.748 169.18H129.308L124.268 176.596V169.18H123.008V178H124.448L129.488 170.584V178H130.748V169.18ZM132.374 170.17H135.704V178H136.964V170.17H140.294V169.18H132.374V170.17ZM146.174 177.28C143.618 177.28 142.61 175.48 142.556 173.77H150.836V173.23C150.836 170.872 149.414 168.82 146.138 168.82C143.078 168.82 141.296 170.962 141.296 173.59C141.296 176.218 143.114 178.36 146.174 178.36C148.37 178.36 150.296 177.388 150.656 175.21H149.396C149.216 176.362 148.01 177.28 146.174 177.28ZM146.138 169.9C148.568 169.9 149.396 171.502 149.54 172.78H142.61C142.88 171.304 143.888 169.9 146.138 169.9ZM158.49 174.85C158.49 177.208 160.254 178.36 162.9 178.36C165.51 178.36 167.22 177.28 167.22 175.39C167.22 173.5 165.33 173.41 165.33 173.41V173.23C165.33 173.23 166.788 173.14 166.788 171.43C166.788 169.702 165.132 168.82 162.81 168.82C161.154 168.82 158.76 169.432 158.76 171.79H160.02C160.02 170.458 161.514 169.9 162.81 169.9C164.916 169.9 165.618 170.62 165.618 171.52C165.618 172.69 164.592 172.96 163.098 172.96H161.1V173.95H163.008C164.718 173.95 166.05 174.13 166.05 175.39C166.05 176.416 165.186 177.28 162.9 177.28C160.56 177.28 159.75 176.182 159.75 174.85H158.49ZM169.379 178H173.987C176.327 177.982 177.137 176.632 177.137 175.444C177.137 173.41 175.031 173.41 175.031 173.41V173.23C175.031 173.23 176.759 172.942 176.759 171.394C176.759 170.224 176.039 169.198 173.609 169.18H169.379V178ZM170.639 173.86H173.303C175.247 173.86 175.877 174.58 175.877 175.444C175.877 176.308 175.265 177.01 173.861 177.01H170.639V173.86ZM170.639 170.17H173.573C174.977 170.17 175.499 170.656 175.499 171.43C175.499 172.114 175.157 172.87 173.573 172.87H170.639V170.17ZM178.755 173.59C178.755 176.218 180.807 178.36 183.615 178.36C186.423 178.36 188.475 176.218 188.475 173.59C188.475 170.962 186.423 168.82 183.615 168.82C180.807 168.82 178.755 170.962 178.755 173.59ZM180.015 173.59C180.015 171.844 181.149 169.9 183.615 169.9C186.081 169.9 187.215 171.844 187.215 173.59C187.215 175.336 186.081 177.28 183.615 177.28C181.149 177.28 180.015 175.336 180.015 173.59ZM198.283 169.18H197.023V173.05H191.803V169.18H190.543V178H191.803V174.04H197.023V178H198.283V169.18ZM206.659 176.74C206.659 177.82 206.929 178 207.919 178H208.729V177.01H208.279C207.919 177.01 207.919 176.83 207.919 176.47V175.12C207.919 173.446 206.659 173.446 206.659 173.446V173.266C206.659 173.266 207.829 173.266 207.829 171.43V170.62C207.829 170.08 207.919 169.99 208.369 169.99H208.639V169H208.009C206.929 169 206.659 169.36 206.659 170.62V171.07C206.659 172.114 206.677 172.996 205.273 172.996H202.069V169.18H200.809V178H202.069V173.986H205.273C206.677 173.986 206.659 174.706 206.659 175.57V176.74ZM217.541 178H219.971V177.37H219.701C219.071 177.37 218.801 177.28 218.801 176.11V173.59C218.801 170.962 218.351 168.82 214.661 168.82C212.411 168.82 210.521 170.08 210.521 172.33H211.781C211.781 170.998 212.681 169.9 214.661 169.9C217.001 169.9 217.523 171.142 217.541 172.528C216.299 172.618 210.791 172.996 210.791 176.2C210.791 177.46 211.601 178.36 213.311 178.36C215.363 178.36 216.983 176.632 217.541 175.93V178ZM217.541 174.94C216.947 175.678 215.291 177.28 213.671 177.28C212.591 177.28 212.051 176.92 212.051 176.11C212.051 173.968 216.407 173.626 217.541 173.518V174.94ZM233.465 176.74C233.465 177.82 233.735 178 234.725 178H235.535V177.01H235.085C234.725 177.01 234.725 176.83 234.725 176.47V175.12C234.725 173.446 233.465 173.446 233.465 173.446V173.266C233.465 173.266 234.635 173.266 234.635 171.43V170.62C234.635 170.08 234.725 169.99 235.175 169.99H235.445V169H234.815C233.735 169 233.465 169.36 233.465 170.62V171.07C233.465 172.114 233.483 172.996 232.079 172.996H228.875V169.18H227.615V178H228.875V173.986H232.079C233.483 173.986 233.465 174.706 233.465 175.57V176.74ZM238.282 180.16V181.24H239.362C240.64 181.24 241.018 180.97 241.612 179.53L245.932 169.18H244.582L241.54 176.596L238.084 169.18H236.698L240.946 178.018L240.46 179.206C240.118 180.016 239.848 180.16 239.002 180.16H238.282ZM248.721 173.59C248.721 171.844 249.855 169.9 251.961 169.9C254.067 169.9 255.021 171.844 255.021 173.59C255.021 175.336 254.067 177.28 251.961 177.28C249.855 177.28 248.721 175.336 248.721 173.59ZM248.721 177.28L248.541 176.11H248.721C248.721 176.11 249.531 178.36 252.141 178.36C254.589 178.36 256.281 176.218 256.281 173.59C256.281 170.962 254.679 168.82 252.051 168.82C249.531 168.82 248.721 171.07 248.721 171.07H248.541V169.18H247.461V181.24H248.721V177.28ZM258.36 178H261.87C264.93 177.982 265.47 176.848 265.47 175.606C265.47 174.346 264.93 173.248 261.87 173.23H259.62V169.18H258.36V178ZM259.62 174.22H261.834C263.598 174.22 264.3 174.616 264.3 175.606C264.3 176.596 263.598 177.01 261.834 177.01H259.62V174.22ZM271.876 177.28C269.32 177.28 268.312 175.48 268.258 173.77H276.538V173.23C276.538 170.872 275.116 168.82 271.84 168.82C268.78 168.82 266.998 170.962 266.998 173.59C266.998 176.218 268.816 178.36 271.876 178.36C274.072 178.36 275.998 177.388 276.357 175.21H275.098C274.918 176.362 273.712 177.28 271.876 177.28ZM271.84 169.9C274.27 169.9 275.098 171.502 275.242 172.78H268.312C268.582 171.304 269.59 169.9 271.84 169.9ZM279.87 173.59C279.87 171.844 281.004 169.9 283.11 169.9C285.216 169.9 286.17 171.844 286.17 173.59C286.17 175.336 285.216 177.28 283.11 177.28C281.004 177.28 279.87 175.336 279.87 173.59ZM279.87 177.28L279.69 176.11H279.87C279.87 176.11 280.68 178.36 283.29 178.36C285.738 178.36 287.43 176.218 287.43 173.59C287.43 170.962 285.828 168.82 283.2 168.82C280.68 168.82 279.87 171.07 279.87 171.07H279.69V169.18H278.61V181.24H279.87V177.28ZM296.168 178H298.598V177.37H298.328C297.698 177.37 297.428 177.28 297.428 176.11V173.59C297.428 170.962 296.978 168.82 293.288 168.82C291.038 168.82 289.148 170.08 289.148 172.33H290.408C290.408 170.998 291.308 169.9 293.288 169.9C295.628 169.9 296.15 171.142 296.168 172.528C294.926 172.618 289.418 172.996 289.418 176.2C289.418 177.46 290.228 178.36 291.938 178.36C293.99 178.36 295.61 176.632 296.168 175.93V178ZM296.168 174.94C295.574 175.678 293.918 177.28 292.298 177.28C291.218 177.28 290.678 176.92 290.678 176.11C290.678 173.968 295.034 173.626 296.168 173.518V174.94ZM306.278 169.324C306.278 168.868 306.386 168.55 306.602 168.37C306.818 168.19 307.076 168.1 307.376 168.1C307.688 168.1 307.952 168.19 308.168 168.37C308.396 168.55 308.51 168.868 308.51 169.324C308.51 169.756 308.396 170.068 308.168 170.26C307.952 170.452 307.688 170.548 307.376 170.548C307.076 170.548 306.818 170.452 306.602 170.26C306.386 170.068 306.278 169.756 306.278 169.324ZM306.278 177.028C306.278 176.584 306.386 176.272 306.602 176.092C306.818 175.912 307.076 175.822 307.376 175.822C307.688 175.822 307.952 175.912 308.168 176.092C308.396 176.272 308.51 176.584 308.51 177.028C308.51 177.46 308.396 177.772 308.168 177.964C307.952 178.156 307.688 178.252 307.376 178.252C307.076 178.252 306.818 178.156 306.602 177.964C306.386 177.772 306.278 177.46 306.278 177.028ZM314.479 173.068C314.479 174.52 314.263 175.918 313.831 177.262C313.411 178.594 312.745 179.788 311.833 180.844H310.357C311.185 179.716 311.809 178.486 312.229 177.154C312.661 175.81 312.877 174.442 312.877 173.05C312.877 171.622 312.661 170.23 312.229 168.874C311.809 167.518 311.179 166.276 310.339 165.148H311.833C312.745 166.24 313.411 167.47 313.831 168.838C314.263 170.194 314.479 171.604 314.479 173.068Z" fill="#EC622B"/>
</svg>
