<svg width="670" height="265" viewBox="0 0 670 265" fill="none" xmlns="http://www.w3.org/2000/svg">
<rect width="670" height="265" fill="white"/>
<path d="M65.3 109H78.104C85.54 108.956 89.104 105.876 89.104 100.332C89.104 92.72 82.196 92.72 82.196 92.72V92.28C82.196 92.28 87.96 91.84 87.96 85.592C87.96 80.532 84.44 78.244 77.4 78.2H65.3V109ZM68.6 94.26H78.28C83.78 94.26 86.024 96.372 86.024 100.332C86.024 103.852 83.78 106.36 78.28 106.36H68.6V94.26ZM68.6 80.84H77.4C81.8 80.84 84.88 81.94 84.88 85.68C84.88 89.86 81.8 91.62 77.4 91.62H68.6V80.84ZM91.0675 109H94.1475L97.3595 100.42H111.352L114.52 109H117.82L106.336 78.2H102.992L91.0675 109ZM104.444 81.72L110.384 97.78H98.3715L104.444 81.72ZM153.039 78.2H149.739V106.36H139.179V78.2H135.879V106.36H125.319V78.2H122.019V109H153.039V78.2ZM157.239 109H160.319L163.531 100.42H177.523L180.691 109H183.991L172.507 78.2H169.163L157.239 109ZM170.615 81.72L176.555 97.78H164.543L170.615 81.72ZM201.394 99.76C201.394 105.48 206.454 109.88 214.594 109.88C223.174 109.88 227.794 105.48 227.794 100.2C227.794 93.82 221.194 93.38 221.194 93.38V92.94C221.194 92.94 226.694 92.06 226.694 86.56C226.694 81.06 222.074 77.32 214.374 77.32C207.114 77.32 202.054 81.72 202.054 87.44H205.354C205.354 83.92 208.214 80.4 214.374 80.4C220.534 80.4 223.394 83.26 223.394 86.56C223.394 90.3 220.534 92.06 214.374 92.06H209.094V94.7H214.594C220.534 94.7 224.494 95.8 224.494 100.2C224.494 103.72 221.414 106.8 214.594 106.8C207.774 106.8 204.694 103.28 204.694 99.76H201.394ZM230.243 109H233.323L236.535 100.42H250.527L253.695 109H256.995L245.511 78.2H242.167L230.243 109ZM243.619 81.72L249.559 97.78H237.547L243.619 81.72ZM265.595 100.64C265.595 95.932 266.343 94.7 271.051 94.7H280.995V109H284.295V78.2H270.655C262.955 78.244 261.195 82.952 261.195 86.252C261.195 91.928 265.947 93.028 265.947 93.028V93.468C263.307 94.04 262.295 95.932 262.295 101.08V104.38C262.295 107.24 261.635 107.46 260.095 107.46H259.435V109H265.595V100.64ZM280.995 92.06H271.183C265.551 92.06 264.275 88.804 264.275 86.252C264.275 83.48 265.991 80.84 270.523 80.84H280.995V92.06ZM290.886 109H303.69C311.126 108.956 314.69 105.876 314.69 100.332C314.69 92.72 307.782 92.72 307.782 92.72V92.28C307.782 92.28 313.546 91.84 313.546 85.592C313.546 80.532 310.026 78.244 302.986 78.2H290.886V109ZM294.186 94.26H303.866C309.366 94.26 311.61 96.372 311.61 100.332C311.61 103.852 309.366 106.36 303.866 106.36H294.186V94.26ZM294.186 80.84H302.986C307.386 80.84 310.466 81.94 310.466 85.68C310.466 89.86 307.386 91.62 302.986 91.62H294.186V80.84ZM338.891 105.92C338.891 108.56 339.551 109 341.971 109H344.171V106.36H343.071C342.191 106.36 342.191 105.92 342.191 105.04V97.252C342.191 92.5 338.407 92.72 338.407 92.72V92.28C338.407 92.28 341.971 92.236 341.971 87.132V82.6C341.971 81.72 341.971 80.4 343.291 80.4H344.171V77.76H342.191C339.111 77.76 338.891 79.52 338.891 81.72V86.032C338.891 89.464 338.275 91.62 334.403 91.62H323.491V78.2H320.191V109H323.491V94.26H334.403C337.835 94.26 338.891 94.7 338.891 98.132V105.92ZM347.677 109H350.757L353.969 100.42H367.961L371.129 109H374.429L362.945 78.2H359.601L347.677 109ZM361.053 81.72L366.993 97.78H354.981L361.053 81.72ZM417.792 78.2H393.152V109H396.452V80.84H414.492V109H417.792V78.2ZM424.39 109H427.69V93.82H437.37C444.85 93.776 446.61 89.816 446.61 86.032C446.61 82.292 444.85 78.244 437.37 78.2H424.39V109ZM427.69 80.84H437.502C441.814 80.84 443.53 83.04 443.53 86.032C443.53 89.024 441.814 91.18 437.502 91.18H427.69V80.84ZM451.89 109H455.19L474.55 82.38V109H477.85V78.2H474.55L455.19 104.82V78.2H451.89V109ZM509.54 78.2H506.24V91.62H487.76V78.2H484.46V109H487.76V94.26H506.24V109H509.54V78.2ZM520.528 100.64C520.528 95.932 521.276 94.7 525.984 94.7H535.928V109H539.228V78.2H525.588C517.888 78.244 516.128 82.952 516.128 86.252C516.128 91.928 520.88 93.028 520.88 93.028V93.468C518.24 94.04 517.228 95.932 517.228 101.08V104.38C517.228 107.24 516.568 107.46 515.028 107.46H514.368V109H520.528V100.64ZM535.928 92.06H526.116C520.484 92.06 519.208 88.804 519.208 86.252C519.208 83.48 520.924 80.84 525.456 80.84H535.928V92.06ZM568.7 78.2H543.84V80.84H554.62V109H557.92V80.84H568.7V78.2ZM567.806 109H570.886L574.098 100.42H588.09L591.258 109H594.558L583.074 78.2H579.73L567.806 109ZM581.182 81.72L587.122 97.78H575.11L581.182 81.72ZM602.629 100.156H600.121L599.021 77.584H603.729L602.629 100.156ZM598.625 106.624C598.625 105.539 598.889 104.776 599.417 104.336C599.945 103.896 600.59 103.676 601.353 103.676C602.086 103.676 602.717 103.896 603.245 104.336C603.802 104.776 604.081 105.539 604.081 106.624C604.081 107.68 603.802 108.443 603.245 108.912C602.717 109.381 602.086 109.616 601.353 109.616C600.59 109.616 599.945 109.381 599.417 108.912C598.889 108.443 598.625 107.68 598.625 106.624Z" fill="#EC622B"/>
<path d="M69.85 158H71.02L74.35 147.47V158H75.61V145.4H73.9L70.48 156.308L67.06 145.4H65.35V158H66.52V147.47L69.85 158ZM78.2151 158H81.1851C84.2451 157.982 84.7851 156.848 84.7851 155.606C84.7851 154.346 84.2451 153.248 81.1851 153.23H79.4751V149.18H78.2151V158ZM79.4751 154.22H81.1491C82.9131 154.22 83.6151 154.616 83.6151 155.606C83.6151 156.596 82.9131 157.01 81.1491 157.01H79.4751V154.22ZM87.3951 149.18H86.1351V158H87.3951V149.18ZM96.6735 153.59C96.6735 151.844 97.6995 149.9 100.346 149.9C102.182 149.9 103.694 150.998 103.694 152.33H104.954C104.954 149.972 102.542 148.82 100.346 148.82C97.2855 148.82 95.4135 150.962 95.4135 153.59C95.4135 156.218 97.2855 158.36 100.346 158.36C102.542 158.36 104.954 157.208 104.954 154.85H103.694C103.694 156.182 102.182 157.28 100.346 157.28C97.6995 157.28 96.6735 155.336 96.6735 153.59ZM107.114 158H111.722C114.062 157.982 114.872 156.632 114.872 155.444C114.872 153.41 112.766 153.41 112.766 153.41V153.23C112.766 153.23 114.494 152.942 114.494 151.394C114.494 150.224 113.774 149.198 111.344 149.18H107.114V158ZM108.374 153.86H111.038C112.982 153.86 113.612 154.58 113.612 155.444C113.612 156.308 113 157.01 111.596 157.01H108.374V153.86ZM108.374 150.17H111.308C112.712 150.17 113.234 150.656 113.234 151.43C113.234 152.114 112.892 152.87 111.308 152.87H108.374V150.17ZM118.47 155.75C118.47 154.85 118.83 154.31 120.27 154.31H123.15V158H124.41V149.18H120.45C117.57 149.198 116.85 150.584 116.85 151.736C116.85 153.5 118.488 153.77 118.488 153.77V153.95C118.488 153.95 117.3 154.13 117.3 155.624V156.11C117.3 157.28 117.03 157.37 116.4 157.37H116.22V158H118.47V155.75ZM123.15 153.32H120.306C118.722 153.32 118.02 152.708 118.02 151.808C118.02 150.854 118.722 150.17 120.486 150.17H123.15V153.32ZM128.634 155.57C128.634 154.706 128.616 153.986 130.02 153.986H131.784V158H133.044V153.986H134.808C136.212 153.986 136.194 154.706 136.194 155.57V156.74C136.194 157.82 136.464 158 137.454 158H138.264V157.01H137.814C137.454 157.01 137.454 156.83 137.454 156.47V155.12C137.454 153.446 136.194 153.446 136.194 153.446V153.266C136.194 153.266 137.364 153.266 137.364 151.43V150.62C137.364 150.08 137.454 149.99 137.904 149.99H138.174V149H137.544C136.464 149 136.194 149.36 136.194 150.62V151.07C136.194 152.114 136.212 152.996 134.808 152.996H133.044V149.18H131.784V152.996H130.02C128.616 152.996 128.634 152.114 128.634 151.07V150.62C128.634 149.36 128.364 149 127.284 149H126.654V149.99H126.924C127.374 149.99 127.464 150.08 127.464 150.62V151.43C127.464 153.266 128.634 153.266 128.634 153.266V153.446C128.634 153.446 127.374 153.446 127.374 155.12V156.47C127.374 156.83 127.374 157.01 127.014 157.01H126.564V158H127.374C128.364 158 128.634 157.82 128.634 156.74V155.57ZM144.852 157.28C142.296 157.28 141.288 155.48 141.234 153.77H149.514V153.23C149.514 150.872 148.092 148.82 144.816 148.82C141.756 148.82 139.974 150.962 139.974 153.59C139.974 156.218 141.792 158.36 144.852 158.36C147.048 158.36 148.974 157.388 149.334 155.21H148.074C147.894 156.362 146.688 157.28 144.852 157.28ZM144.816 149.9C147.246 149.9 148.074 151.502 148.218 152.78H141.288C141.558 151.304 142.566 149.9 144.816 149.9ZM155.186 158H156.356L158.786 150.71V158H160.046V149.18H158.282L155.816 156.668L153.35 149.18H151.586V158H152.756V150.71L155.186 158ZM163.383 153.59C163.383 151.844 164.409 149.9 167.055 149.9C168.891 149.9 170.402 150.998 170.402 152.33H171.663C171.663 149.972 169.251 148.82 167.055 148.82C163.995 148.82 162.123 150.962 162.123 153.59C162.123 156.218 163.995 158.36 167.055 158.36C169.251 158.36 171.663 157.208 171.663 154.85H170.402C170.402 156.182 168.891 157.28 167.055 157.28C164.409 157.28 163.383 155.336 163.383 153.59ZM175.353 155.75C175.353 154.85 175.713 154.31 177.153 154.31H180.033V158H181.293V149.18H177.333C174.453 149.198 173.733 150.584 173.733 151.736C173.733 153.5 175.371 153.77 175.371 153.77V153.95C175.371 153.95 174.183 154.13 174.183 155.624V156.11C174.183 157.28 173.913 157.37 173.283 157.37H173.103V158H175.353V155.75ZM180.033 153.32H177.188C175.605 153.32 174.903 152.708 174.903 151.808C174.903 150.854 175.605 150.17 177.369 150.17H180.033V153.32ZM190.558 153.59C190.558 151.844 191.584 149.9 194.23 149.9C196.066 149.9 197.578 150.998 197.578 152.33H198.838C198.838 149.972 196.426 148.82 194.23 148.82C191.17 148.82 189.298 150.962 189.298 153.59C189.298 156.218 191.17 158.36 194.23 158.36C196.426 158.36 198.838 157.208 198.838 154.85H197.578C197.578 156.182 196.066 157.28 194.23 157.28C191.584 157.28 190.558 155.336 190.558 153.59ZM206.94 158H211.548C213.888 157.982 214.698 156.632 214.698 155.444C214.698 153.41 212.592 153.41 212.592 153.41V153.23C212.592 153.23 214.32 152.942 214.32 151.394C214.32 150.224 213.6 149.198 211.17 149.18H206.94V158ZM208.2 153.86H210.864C212.808 153.86 213.438 154.58 213.438 155.444C213.438 156.308 212.826 157.01 211.422 157.01H208.2V153.86ZM208.2 150.17H211.134C212.538 150.17 213.06 150.656 213.06 151.43C213.06 152.114 212.718 152.87 211.134 152.87H208.2V150.17ZM223.426 158H225.856V157.37H225.586C224.956 157.37 224.686 157.28 224.686 156.11V153.59C224.686 150.962 224.236 148.82 220.546 148.82C218.296 148.82 216.406 150.08 216.406 152.33H217.666C217.666 150.998 218.566 149.9 220.546 149.9C222.886 149.9 223.408 151.142 223.426 152.528C222.184 152.618 216.676 152.996 216.676 156.2C216.676 157.46 217.486 158.36 219.196 158.36C221.248 158.36 222.868 156.632 223.426 155.93V158ZM223.426 154.94C222.832 155.678 221.176 157.28 219.556 157.28C218.476 157.28 217.936 156.92 217.936 156.11C217.936 153.968 222.292 153.626 223.426 153.518V154.94ZM231.159 158H232.329L234.759 150.71V158H236.019V149.18H234.255L231.789 156.668L229.323 149.18H227.559V158H228.729V150.71L231.159 158ZM246.285 149.18H244.845L239.805 156.596V149.18H238.545V158H239.985L245.025 150.584V158H246.285V149.18ZM254.752 158H259.36C261.7 157.982 262.51 156.632 262.51 155.444C262.51 153.41 260.404 153.41 260.404 153.41V153.23C260.404 153.23 262.132 152.942 262.132 151.394C262.132 150.224 261.412 149.198 258.982 149.18H254.752V158ZM256.012 153.86H258.676C260.62 153.86 261.25 154.58 261.25 155.444C261.25 156.308 260.638 157.01 259.234 157.01H256.012V153.86ZM256.012 150.17H258.946C260.35 150.17 260.872 150.656 260.872 151.43C260.872 152.114 260.53 152.87 258.946 152.87H256.012V150.17ZM279.16 153.95C279.16 151.322 277.288 149.54 274.84 149.54C272.14 149.54 271.42 151.7 271.42 151.7H271.24C271.42 148.82 272.5 147.29 275.29 147.02C277.684 146.786 278.71 146.75 278.71 144.86V144.5H277.72V144.68C277.72 145.58 277.27 145.508 275.38 145.76C272.68 146.12 270.16 147.056 270.16 152.87C270.16 156.74 272.032 158.36 274.66 158.36C277.288 158.36 279.16 156.578 279.16 153.95ZM271.42 153.95C271.42 152.204 272.464 150.62 274.66 150.62C276.856 150.62 277.9 152.204 277.9 153.95C277.9 155.696 276.856 157.28 274.66 157.28C272.464 157.28 271.42 155.696 271.42 153.95ZM286.62 150.17V158H287.88V149.18H282.75V150.98C282.75 156.2 281.31 157.1 280.05 157.1C279.87 157.1 279.69 157.046 279.69 157.046V158C279.69 158 279.87 158.09 280.248 158.09C281.67 158.09 283.83 157.46 283.83 151.34V150.17H286.62ZM298.141 149.18H296.701L291.661 156.596V149.18H290.401V158H291.841L296.881 150.584V158H298.141V149.18ZM302.376 155.57C302.376 154.706 302.358 153.986 303.762 153.986H305.526V158H306.786V153.986H308.55C309.954 153.986 309.936 154.706 309.936 155.57V156.74C309.936 157.82 310.206 158 311.196 158H312.006V157.01H311.556C311.196 157.01 311.196 156.83 311.196 156.47V155.12C311.196 153.446 309.936 153.446 309.936 153.446V153.266C309.936 153.266 311.106 153.266 311.106 151.43V150.62C311.106 150.08 311.196 149.99 311.646 149.99H311.916V149H311.286C310.206 149 309.936 149.36 309.936 150.62V151.07C309.936 152.114 309.954 152.996 308.55 152.996H306.786V149.18H305.526V152.996H303.762C302.358 152.996 302.376 152.114 302.376 151.07V150.62C302.376 149.36 302.106 149 301.026 149H300.396V149.99H300.666C301.116 149.99 301.206 150.08 301.206 150.62V151.43C301.206 153.266 302.376 153.266 302.376 153.266V153.446C302.376 153.446 301.116 153.446 301.116 155.12V156.47C301.116 156.83 301.116 157.01 300.756 157.01H300.306V158H301.116C302.106 158 302.376 157.82 302.376 156.74V155.57ZM320.826 158H323.256V157.37H322.986C322.356 157.37 322.086 157.28 322.086 156.11V153.59C322.086 150.962 321.636 148.82 317.946 148.82C315.696 148.82 313.806 150.08 313.806 152.33H315.066C315.066 150.998 315.966 149.9 317.946 149.9C320.286 149.9 320.808 151.142 320.826 152.528C319.584 152.618 314.076 152.996 314.076 156.2C314.076 157.46 314.886 158.36 316.596 158.36C318.648 158.36 320.268 156.632 320.826 155.93V158ZM320.826 154.94C320.232 155.678 318.576 157.28 316.956 157.28C315.876 157.28 315.336 156.92 315.336 156.11C315.336 153.968 319.692 153.626 320.826 153.518V154.94ZM330.449 145.4C330.449 146.12 330.107 146.93 328.829 146.93C327.551 146.93 327.209 146.12 327.209 145.4H326.219C326.219 146.912 327.227 147.83 328.829 147.83C330.431 147.83 331.439 146.912 331.439 145.4H330.449ZM332.699 149.18H331.259L326.219 156.596V149.18H324.959V158H326.399L331.439 150.584V158H332.699V149.18ZM335.225 158H345.305V149.18H344.045V157.01H340.895V149.18H339.635V157.01H336.485V149.18H335.225V158ZM352.256 157.28C349.7 157.28 348.692 155.48 348.638 153.77H356.918V153.23C356.918 150.872 355.496 148.82 352.22 148.82C349.16 148.82 347.378 150.962 347.378 153.59C347.378 156.218 349.196 158.36 352.256 158.36C354.452 158.36 356.378 157.388 356.738 155.21H355.478C355.298 156.362 354.092 157.28 352.256 157.28ZM352.22 149.9C354.65 149.9 355.478 151.502 355.622 152.78H348.692C348.962 151.304 349.97 149.9 352.22 149.9ZM363.418 157.28C360.862 157.28 359.854 155.48 359.8 153.77H368.08V153.23C368.08 150.872 366.658 148.82 363.382 148.82C360.322 148.82 358.54 150.962 358.54 153.59C358.54 156.218 360.358 158.36 363.418 158.36C365.614 158.36 367.54 157.388 367.9 155.21H366.64C366.46 156.362 365.254 157.28 363.418 157.28ZM363.382 149.9C365.812 149.9 366.64 151.502 366.784 152.78H359.854C360.124 151.304 361.132 149.9 363.382 149.9ZM376.094 158H380.702C383.042 157.982 383.852 156.632 383.852 155.444C383.852 153.41 381.746 153.41 381.746 153.41V153.23C381.746 153.23 383.474 152.942 383.474 151.394C383.474 150.224 382.754 149.198 380.324 149.18H376.094V158ZM377.354 153.86H380.018C381.962 153.86 382.592 154.58 382.592 155.444C382.592 156.308 381.98 157.01 380.576 157.01H377.354V153.86ZM377.354 150.17H380.288C381.692 150.17 382.214 150.656 382.214 151.43C382.214 152.114 381.872 152.87 380.288 152.87H377.354V150.17ZM387.18 153.59C387.18 151.844 388.314 149.9 390.42 149.9C392.526 149.9 393.48 151.844 393.48 153.59C393.48 155.336 392.526 157.28 390.42 157.28C388.314 157.28 387.18 155.336 387.18 153.59ZM387.18 157.28L387 156.11H387.18C387.18 156.11 387.99 158.36 390.6 158.36C393.048 158.36 394.74 156.218 394.74 153.59C394.74 150.962 393.138 148.82 390.51 148.82C387.99 148.82 387.18 151.07 387.18 151.07H387V149.18H385.92V161.24H387.18V157.28ZM401.247 157.28C398.691 157.28 397.683 155.48 397.629 153.77H405.909V153.23C405.909 150.872 404.487 148.82 401.211 148.82C398.151 148.82 396.369 150.962 396.369 153.59C396.369 156.218 398.187 158.36 401.247 158.36C403.443 158.36 405.369 157.388 405.729 155.21H404.469C404.289 156.362 403.083 157.28 401.247 157.28ZM401.211 149.9C403.641 149.9 404.469 151.502 404.613 152.78H397.683C397.953 151.304 398.961 149.9 401.211 149.9ZM411.581 158H412.751L415.181 150.71V158H416.441V149.18H414.677L412.211 156.668L409.745 149.18H407.981V158H409.151V150.71L411.581 158ZM420.497 155.75C420.497 154.85 420.857 154.31 422.297 154.31H425.177V158H426.437V149.18H422.477C419.597 149.198 418.877 150.584 418.877 151.736C418.877 153.5 420.515 153.77 420.515 153.77V153.95C420.515 153.95 419.327 154.13 419.327 155.624V156.11C419.327 157.28 419.057 157.37 418.427 157.37H418.247V158H420.497V155.75ZM425.177 153.32H422.333C420.749 153.32 420.047 152.708 420.047 151.808C420.047 150.854 420.749 150.17 422.513 150.17H425.177V153.32ZM428.987 157.028C428.987 156.584 429.095 156.272 429.311 156.092C429.527 155.912 429.785 155.822 430.085 155.822C430.397 155.822 430.661 155.912 430.877 156.092C431.105 156.272 431.219 156.584 431.219 157.028C431.219 157.46 431.105 157.772 430.877 157.964C430.661 158.156 430.397 158.252 430.085 158.252C429.785 158.252 429.527 158.156 429.311 157.964C429.095 157.772 428.987 157.46 428.987 157.028ZM439.799 158H445.037C448.079 157.982 449.537 156.722 449.537 154.454C449.537 151.34 446.711 151.34 446.711 151.34V151.16C446.711 151.16 449.069 150.98 449.069 148.424C449.069 146.354 447.629 145.418 444.749 145.4H439.799V158ZM441.149 151.97H445.109C447.359 151.97 448.277 152.834 448.277 154.454C448.277 155.894 447.359 156.92 445.109 156.92H441.149V151.97ZM441.149 146.48H444.749C446.549 146.48 447.809 146.93 447.809 148.46C447.809 150.17 446.549 150.89 444.749 150.89H441.149V146.48ZM458.358 158H460.788V157.37H460.518C459.888 157.37 459.618 157.28 459.618 156.11V153.59C459.618 150.962 459.168 148.82 455.478 148.82C453.228 148.82 451.338 150.08 451.338 152.33H452.598C452.598 150.998 453.498 149.9 455.478 149.9C457.818 149.9 458.34 151.142 458.358 152.528C457.116 152.618 451.608 152.996 451.608 156.2C451.608 157.46 452.418 158.36 454.128 158.36C456.18 158.36 457.8 156.632 458.358 155.93V158ZM458.358 154.94C457.764 155.678 456.108 157.28 454.488 157.28C453.408 157.28 452.868 156.92 452.868 156.11C452.868 153.968 457.224 153.626 458.358 153.518V154.94ZM466.09 158H467.26L469.69 150.71V158H470.95V149.18H469.186L466.72 156.668L464.254 149.18H462.49V158H463.66V150.71L466.09 158ZM487.158 149.18H485.898V153.05H480.678V149.18H479.418V158H480.678V154.04H485.898V158H487.158V149.18ZM496.344 158H498.774V157.37H498.504C497.874 157.37 497.604 157.28 497.604 156.11V153.59C497.604 150.962 497.154 148.82 493.464 148.82C491.214 148.82 489.324 150.08 489.324 152.33H490.584C490.584 150.998 491.484 149.9 493.464 149.9C495.804 149.9 496.326 151.142 496.344 152.528C495.102 152.618 489.594 152.996 489.594 156.2C489.594 157.46 490.404 158.36 492.114 158.36C494.166 158.36 495.786 156.632 496.344 155.93V158ZM496.344 154.94C495.75 155.678 494.094 157.28 492.474 157.28C491.394 157.28 490.854 156.92 490.854 156.11C490.854 153.968 495.21 153.626 496.344 153.518V154.94ZM514.068 149.18H506.418V158H507.678V150.17H512.808V158H514.068V149.18ZM516.146 153.59C516.146 156.218 518.198 158.36 521.006 158.36C523.814 158.36 525.866 156.218 525.866 153.59C525.866 150.962 523.814 148.82 521.006 148.82C518.198 148.82 516.146 150.962 516.146 153.59ZM517.406 153.59C517.406 151.844 518.54 149.9 521.006 149.9C523.472 149.9 524.606 151.844 524.606 153.59C524.606 155.336 523.472 157.28 521.006 157.28C518.54 157.28 517.406 155.336 517.406 153.59ZM534.864 149.18H533.604V153.32H530.094C529.014 153.32 528.924 152.87 528.924 152.06V149.18H527.664V152.42C527.664 153.59 528.024 154.31 529.734 154.31H533.604V158H534.864V149.18ZM536.491 150.17H539.821V158H541.081V150.17H544.411V149.18H536.491V150.17ZM546.633 160.16V161.24H547.713C548.991 161.24 549.369 160.97 549.963 159.53L554.283 149.18H552.933L549.891 156.596L546.435 149.18H545.049L549.297 158.018L548.811 159.206C548.469 160.016 548.199 160.16 547.353 160.16H546.633ZM570.394 153.95C570.394 151.322 568.522 149.54 566.074 149.54C563.374 149.54 562.654 151.7 562.654 151.7H562.474C562.654 148.82 563.734 147.29 566.524 147.02C568.918 146.786 569.944 146.75 569.944 144.86V144.5H568.954V144.68C568.954 145.58 568.504 145.508 566.614 145.76C563.914 146.12 561.394 147.056 561.394 152.87C561.394 156.74 563.266 158.36 565.894 158.36C568.522 158.36 570.394 156.578 570.394 153.95ZM562.654 153.95C562.654 152.204 563.698 150.62 565.894 150.62C568.09 150.62 569.134 152.204 569.134 153.95C569.134 155.696 568.09 157.28 565.894 157.28C563.698 157.28 562.654 155.696 562.654 153.95ZM572.877 160.16V161.24H573.957C575.235 161.24 575.613 160.97 576.207 159.53L580.527 149.18H579.177L576.135 156.596L572.679 149.18H571.293L575.541 158.018L575.055 159.206C574.713 160.016 574.443 160.16 573.597 160.16H572.877ZM588.633 149.18H583.053V150.98C583.053 154.04 582.423 155.93 581.433 157.01H579.993V160.25H581.073V158H589.263V160.25H590.343V157.01H588.633V149.18ZM587.373 150.17V157.01H582.693C583.593 155.75 584.133 153.86 584.133 151.34V150.17H587.373ZM596.118 157.28C593.562 157.28 592.554 155.48 592.5 153.77H600.78V153.23C600.78 150.872 599.358 148.82 596.082 148.82C593.022 148.82 591.24 150.962 591.24 153.59C591.24 156.218 593.058 158.36 596.118 158.36C598.314 158.36 600.24 157.388 600.6 155.21H599.34C599.16 156.362 597.954 157.28 596.118 157.28ZM596.082 149.9C598.512 149.9 599.34 151.502 599.484 152.78H592.554C592.824 151.304 593.832 149.9 596.082 149.9ZM601.776 150.17H605.106V158H606.366V150.17H609.696V149.18H601.776V150.17ZM64.81 173.59C64.81 176.218 66.862 178.36 69.67 178.36C72.478 178.36 74.53 176.218 74.53 173.59C74.53 170.962 72.478 168.82 69.67 168.82C66.862 168.82 64.81 170.962 64.81 173.59ZM66.07 173.59C66.07 171.844 67.204 169.9 69.67 169.9C72.136 169.9 73.27 171.844 73.27 173.59C73.27 175.336 72.136 177.28 69.67 177.28C67.204 177.28 66.07 175.336 66.07 173.59ZM75.5221 170.17H78.8521V178H80.1121V170.17H83.4421V169.18H75.5221V170.17ZM92.7205 169.18H85.0705V178H86.3305V170.17H91.4605V178H92.7205V169.18ZM96.5083 173.59C96.5083 171.844 97.6423 169.9 99.7483 169.9C101.854 169.9 102.808 171.844 102.808 173.59C102.808 175.336 101.854 177.28 99.7483 177.28C97.6423 177.28 96.5083 175.336 96.5083 173.59ZM96.5083 177.28L96.3283 176.11H96.5083C96.5083 176.11 97.3183 178.36 99.9283 178.36C102.376 178.36 104.068 176.218 104.068 173.59C104.068 170.962 102.466 168.82 99.8383 168.82C97.3183 168.82 96.5083 171.07 96.5083 171.07H96.3283V169.18H95.2483V181.24H96.5083V177.28ZM112.807 178H115.237V177.37H114.967C114.337 177.37 114.067 177.28 114.067 176.11V173.59C114.067 170.962 113.617 168.82 109.927 168.82C107.677 168.82 105.787 170.08 105.787 172.33H107.047C107.047 170.998 107.947 169.9 109.927 169.9C112.267 169.9 112.789 171.142 112.807 172.528C111.565 172.618 106.057 172.996 106.057 176.2C106.057 177.46 106.867 178.36 108.577 178.36C110.629 178.36 112.249 176.632 112.807 175.93V178ZM112.807 174.94C112.213 175.678 110.557 177.28 108.937 177.28C107.857 177.28 107.317 176.92 107.317 176.11C107.317 173.968 111.673 173.626 112.807 173.518V174.94ZM116.94 178H121.548C123.888 177.982 124.698 176.632 124.698 175.444C124.698 173.41 122.592 173.41 122.592 173.41V173.23C122.592 173.23 124.32 172.942 124.32 171.394C124.32 170.224 123.6 169.198 121.17 169.18H116.94V178ZM118.2 173.86H120.864C122.808 173.86 123.438 174.58 123.438 175.444C123.438 176.308 122.826 177.01 121.422 177.01H118.2V173.86ZM118.2 170.17H121.134C122.538 170.17 123.06 170.656 123.06 171.43C123.06 172.114 122.718 172.87 121.134 172.87H118.2V170.17ZM132.53 170.17V178H133.79V169.18H128.66V170.98C128.66 176.2 127.22 177.1 125.96 177.1C125.78 177.1 125.6 177.046 125.6 177.046V178C125.6 178 125.78 178.09 126.158 178.09C127.58 178.09 129.74 177.46 129.74 171.34V170.17H132.53ZM140.739 177.28C138.183 177.28 137.175 175.48 137.121 173.77H145.401V173.23C145.401 170.872 143.979 168.82 140.703 168.82C137.643 168.82 135.861 170.962 135.861 173.59C135.861 176.218 137.679 178.36 140.739 178.36C142.935 178.36 144.861 177.388 145.221 175.21H143.961C143.781 176.362 142.575 177.28 140.739 177.28ZM140.703 169.9C143.133 169.9 143.961 171.502 144.105 172.78H137.175C137.445 171.304 138.453 169.9 140.703 169.9ZM155.213 169.18H153.953V173.05H148.733V169.18H147.473V178H148.733V174.04H153.953V178H155.213V169.18ZM157.289 173.59C157.289 176.218 159.341 178.36 162.149 178.36C164.957 178.36 167.009 176.218 167.009 173.59C167.009 170.962 164.957 168.82 162.149 168.82C159.341 168.82 157.289 170.962 157.289 173.59ZM158.549 173.59C158.549 171.844 159.683 169.9 162.149 169.9C164.615 169.9 165.749 171.844 165.749 173.59C165.749 175.336 164.615 177.28 162.149 177.28C159.683 177.28 158.549 175.336 158.549 173.59ZM182.668 169.18H175.018V178H176.278V170.17H181.408V178H182.668V169.18ZM192.936 169.18H191.496L186.456 176.596V169.18H185.196V178H186.636L191.676 170.584V178H192.936V169.18ZM196.271 173.59C196.271 171.844 197.297 169.9 199.943 169.9C201.779 169.9 203.291 170.998 203.291 172.33H204.551C204.551 169.972 202.139 168.82 199.943 168.82C196.883 168.82 195.011 170.962 195.011 173.59C195.011 176.218 196.883 178.36 199.943 178.36C202.139 178.36 204.551 177.208 204.551 174.85H203.291C203.291 176.182 201.779 177.28 199.943 177.28C197.297 177.28 196.271 175.336 196.271 173.59ZM206.711 178H210.221C213.281 177.982 213.821 176.848 213.821 175.606C213.821 174.346 213.281 173.248 210.221 173.23H207.971V169.18H206.711V178ZM207.971 174.22H210.185C211.949 174.22 212.651 174.616 212.651 175.606C212.651 176.596 211.949 177.01 210.185 177.01H207.971V174.22ZM219.399 178H220.569L222.999 170.71V178H224.259V169.18H222.495L220.029 176.668L217.563 169.18H215.799V178H216.969V170.71L219.399 178ZM226.335 173.59C226.335 176.218 228.387 178.36 231.195 178.36C234.003 178.36 236.055 176.218 236.055 173.59C236.055 170.962 234.003 168.82 231.195 168.82C228.387 168.82 226.335 170.962 226.335 173.59ZM227.595 173.59C227.595 171.844 228.729 169.9 231.195 169.9C233.661 169.9 234.795 171.844 234.795 173.59C234.795 175.336 233.661 177.28 231.195 177.28C228.729 177.28 227.595 175.336 227.595 173.59ZM238.159 177.028C238.159 176.584 238.267 176.272 238.483 176.092C238.699 175.912 238.957 175.822 239.257 175.822C239.569 175.822 239.833 175.912 240.049 176.092C240.277 176.272 240.391 176.584 240.391 177.028C240.391 177.46 240.277 177.772 240.049 177.964C239.833 178.156 239.569 178.252 239.257 178.252C238.957 178.252 238.699 178.156 238.483 177.964C238.267 177.772 238.159 177.46 238.159 177.028ZM259.231 165.4H257.881V170.89H250.321V165.4H248.971V178H250.321V171.97H257.881V178H259.231V165.4ZM266.264 177.28C263.708 177.28 262.7 175.48 262.646 173.77H270.926V173.23C270.926 170.872 269.504 168.82 266.228 168.82C263.168 168.82 261.386 170.962 261.386 173.59C261.386 176.218 263.204 178.36 266.264 178.36C268.46 178.36 270.386 177.388 270.746 175.21H269.486C269.306 176.362 268.1 177.28 266.264 177.28ZM266.228 169.9C268.658 169.9 269.486 171.502 269.63 172.78H262.7C262.97 171.304 263.978 169.9 266.228 169.9ZM278.58 174.85C278.58 177.208 280.344 178.36 282.99 178.36C285.6 178.36 287.31 177.28 287.31 175.39C287.31 173.5 285.42 173.41 285.42 173.41V173.23C285.42 173.23 286.878 173.14 286.878 171.43C286.878 169.702 285.222 168.82 282.9 168.82C281.244 168.82 278.85 169.432 278.85 171.79H280.11C280.11 170.458 281.604 169.9 282.9 169.9C285.006 169.9 285.708 170.62 285.708 171.52C285.708 172.69 284.682 172.96 283.188 172.96H281.19V173.95H283.098C284.808 173.95 286.14 174.13 286.14 175.39C286.14 176.416 285.276 177.28 282.99 177.28C280.65 177.28 279.84 176.182 279.84 174.85H278.58ZM296.129 178H298.559V177.37H298.289C297.659 177.37 297.389 177.28 297.389 176.11V173.59C297.389 170.962 296.939 168.82 293.249 168.82C290.999 168.82 289.109 170.08 289.109 172.33H290.369C290.369 170.998 291.269 169.9 293.249 169.9C295.589 169.9 296.111 171.142 296.129 172.528C294.887 172.618 289.379 172.996 289.379 176.2C289.379 177.46 290.189 178.36 291.899 178.36C293.951 178.36 295.571 176.632 296.129 175.93V178ZM296.129 174.94C295.535 175.678 293.879 177.28 292.259 177.28C291.179 177.28 290.639 176.92 290.639 176.11C290.639 173.968 294.995 173.626 296.129 173.518V174.94ZM308.726 173.95C308.726 171.322 306.854 169.54 304.406 169.54C301.706 169.54 300.986 171.7 300.986 171.7H300.806C300.986 168.82 302.066 167.29 304.856 167.02C307.25 166.786 308.276 166.75 308.276 164.86V164.5H307.286V164.68C307.286 165.58 306.836 165.508 304.946 165.76C302.246 166.12 299.726 167.056 299.726 172.87C299.726 176.74 301.598 178.36 304.226 178.36C306.854 178.36 308.726 176.578 308.726 173.95ZM300.986 173.95C300.986 172.204 302.03 170.62 304.226 170.62C306.422 170.62 307.466 172.204 307.466 173.95C307.466 175.696 306.422 177.28 304.226 177.28C302.03 177.28 300.986 175.696 300.986 173.95ZM311.209 180.16V181.24H312.289C313.567 181.24 313.945 180.97 314.539 179.53L318.859 169.18H317.509L314.467 176.596L311.011 169.18H309.625L313.873 178.018L313.387 179.206C313.045 180.016 312.775 180.16 311.929 180.16H311.209ZM326.965 169.18H321.385V170.98C321.385 174.04 320.755 175.93 319.765 177.01H318.325V180.25H319.405V178H327.595V180.25H328.675V177.01H326.965V169.18ZM325.705 170.17V177.01H321.025C321.925 175.75 322.465 173.86 322.465 171.34V170.17H325.705ZM330.198 178H333.708C336.768 177.982 337.308 176.848 337.308 175.606C337.308 174.346 336.768 173.248 333.708 173.23H331.458V169.18H330.198V178ZM331.458 174.22H333.672C335.436 174.22 336.138 174.616 336.138 175.606C336.138 176.596 335.436 177.01 333.672 177.01H331.458V174.22ZM337.489 170.17H340.819V178H342.079V170.17H345.409V169.18H337.489V170.17ZM351.29 177.28C348.734 177.28 347.726 175.48 347.672 173.77H355.952V173.23C355.952 170.872 354.53 168.82 351.254 168.82C348.194 168.82 346.412 170.962 346.412 173.59C346.412 176.218 348.23 178.36 351.29 178.36C353.486 178.36 355.412 177.388 355.772 175.21H354.512C354.332 176.362 353.126 177.28 351.29 177.28ZM351.254 169.9C353.684 169.9 354.512 171.502 354.656 172.78H347.726C347.996 171.304 349.004 169.9 351.254 169.9ZM371.615 169.18H363.965V178H365.225V170.17H370.355V178H371.615V169.18ZM375.403 173.59C375.403 171.844 376.537 169.9 378.643 169.9C380.749 169.9 381.703 171.844 381.703 173.59C381.703 175.336 380.749 177.28 378.643 177.28C376.537 177.28 375.403 175.336 375.403 173.59ZM375.403 177.28L375.223 176.11H375.403C375.403 176.11 376.213 178.36 378.823 178.36C381.271 178.36 382.963 176.218 382.963 173.59C382.963 170.962 381.361 168.82 378.733 168.82C376.213 168.82 375.403 171.07 375.403 171.07H375.223V169.18H374.143V181.24H375.403V177.28ZM384.591 173.59C384.591 176.218 386.643 178.36 389.451 178.36C392.259 178.36 394.311 176.218 394.311 173.59C394.311 170.962 392.259 168.82 389.451 168.82C386.643 168.82 384.591 170.962 384.591 173.59ZM385.851 173.59C385.851 171.844 386.985 169.9 389.451 169.9C391.917 169.9 393.051 171.844 393.051 173.59C393.051 175.336 391.917 177.28 389.451 177.28C386.985 177.28 385.851 175.336 385.851 173.59ZM396.379 178H400.987C403.327 177.982 404.137 176.632 404.137 175.444C404.137 173.41 402.031 173.41 402.031 173.41V173.23C402.031 173.23 403.759 172.942 403.759 171.394C403.759 170.224 403.039 169.198 400.609 169.18H396.379V178ZM397.639 173.86H400.303C402.247 173.86 402.877 174.58 402.877 175.444C402.877 176.308 402.265 177.01 400.861 177.01H397.639V173.86ZM397.639 170.17H400.573C401.977 170.17 402.499 170.656 402.499 171.43C402.499 172.114 402.157 172.87 400.573 172.87H397.639V170.17ZM410.633 177.28C408.077 177.28 407.069 175.48 407.015 173.77H415.295V173.23C415.295 170.872 413.873 168.82 410.597 168.82C407.537 168.82 405.755 170.962 405.755 173.59C405.755 176.218 407.573 178.36 410.633 178.36C412.829 178.36 414.755 177.388 415.115 175.21H413.855C413.675 176.362 412.469 177.28 410.633 177.28ZM410.597 169.9C413.027 169.9 413.855 171.502 413.999 172.78H407.069C407.339 171.304 408.347 169.9 410.597 169.9ZM418.627 173.59C418.627 171.844 419.761 169.9 421.867 169.9C423.973 169.9 424.927 171.844 424.927 173.59C424.927 175.336 423.973 177.28 421.867 177.28C419.761 177.28 418.627 175.336 418.627 173.59ZM418.627 177.28L418.447 176.11H418.627C418.627 176.11 419.437 178.36 422.047 178.36C424.495 178.36 426.187 176.218 426.187 173.59C426.187 170.962 424.585 168.82 421.957 168.82C419.437 168.82 418.627 171.07 418.627 171.07H418.447V169.18H417.367V181.24H418.627V177.28ZM436.006 169.18H434.566L429.526 176.596V169.18H428.266V178H429.706L434.746 170.584V178H436.006V169.18ZM437.631 170.17H440.961V178H442.221V170.17H445.551V169.18H437.631V170.17ZM447.18 178H450.69C453.75 177.982 454.29 176.848 454.29 175.606C454.29 174.346 453.75 173.248 450.69 173.23H448.44V169.18H447.18V178ZM448.44 174.22H450.654C452.418 174.22 453.12 174.616 453.12 175.606C453.12 176.596 452.418 177.01 450.654 177.01H448.44V174.22ZM463.019 173.59C463.019 171.844 464.045 169.9 466.691 169.9C468.527 169.9 470.039 170.998 470.039 172.33H471.299C471.299 169.972 468.887 168.82 466.691 168.82C463.631 168.82 461.759 170.962 461.759 173.59C461.759 176.218 463.631 178.36 466.691 178.36C468.887 178.36 471.299 177.208 471.299 174.85H470.039C470.039 176.182 468.527 177.28 466.691 177.28C464.045 177.28 463.019 175.336 463.019 173.59ZM481.109 169.18H473.459V178H474.719V170.17H479.849V178H481.109V169.18ZM490.297 178H492.727V177.37H492.457C491.827 177.37 491.557 177.28 491.557 176.11V173.59C491.557 170.962 491.107 168.82 487.417 168.82C485.167 168.82 483.277 170.08 483.277 172.33H484.537C484.537 170.998 485.437 169.9 487.417 169.9C489.757 169.9 490.279 171.142 490.297 172.528C489.055 172.618 483.547 172.996 483.547 176.2C483.547 177.46 484.357 178.36 486.067 178.36C488.119 178.36 489.739 176.632 490.297 175.93V178ZM490.297 174.94C489.703 175.678 488.047 177.28 486.427 177.28C485.347 177.28 484.807 176.92 484.807 176.11C484.807 173.968 489.163 173.626 490.297 173.518V174.94ZM498.03 178H499.2L501.63 170.71V178H502.89V169.18H501.126L498.66 176.668L496.194 169.18H494.43V178H495.6V170.71L498.03 178ZM511.394 169.324C511.394 168.868 511.502 168.55 511.718 168.37C511.934 168.19 512.192 168.1 512.492 168.1C512.804 168.1 513.068 168.19 513.284 168.37C513.512 168.55 513.626 168.868 513.626 169.324C513.626 169.756 513.512 170.068 513.284 170.26C513.068 170.452 512.804 170.548 512.492 170.548C512.192 170.548 511.934 170.452 511.718 170.26C511.502 170.068 511.394 169.756 511.394 169.324ZM511.394 177.028C511.394 176.584 511.502 176.272 511.718 176.092C511.934 175.912 512.192 175.822 512.492 175.822C512.804 175.822 513.068 175.912 513.284 176.092C513.512 176.272 513.626 176.584 513.626 177.028C513.626 177.46 513.512 177.772 513.284 177.964C513.068 178.156 512.804 178.252 512.492 178.252C512.192 178.252 511.934 178.156 511.718 177.964C511.502 177.772 511.394 177.46 511.394 177.028ZM519.594 173.068C519.594 174.52 519.378 175.918 518.946 177.262C518.526 178.594 517.86 179.788 516.948 180.844H515.472C516.3 179.716 516.924 178.486 517.344 177.154C517.776 175.81 517.992 174.442 517.992 173.05C517.992 171.622 517.776 170.23 517.344 168.874C516.924 167.518 516.294 166.276 515.454 165.148H516.948C517.86 166.24 518.526 167.47 518.946 168.838C519.378 170.194 519.594 171.604 519.594 173.068Z" fill="#EC622B"/>
</svg>
