<svg width="670" height="265" viewBox="0 0 670 265" fill="none" xmlns="http://www.w3.org/2000/svg">
<rect width="670" height="265" fill="white"/>
<path d="M76.3 109H79.16L87.3 83.26V109H90.38V78.2H86.2L77.84 104.864L69.48 78.2H65.3V109H68.16V83.26L76.3 109ZM97.0539 109H118.394V106.36H100.354V94.26H113.994V91.62H100.354V80.84H118.394V78.2H97.0539V109ZM124.124 109H127.424V93.82H137.104C144.584 93.776 146.344 89.816 146.344 86.032C146.344 82.292 144.584 78.244 137.104 78.2H124.124V109ZM127.424 80.84H137.236C141.548 80.84 143.264 83.04 143.264 86.032C143.264 89.024 141.548 91.18 137.236 91.18H127.424V80.84ZM150.304 93.6C150.304 103.016 156.948 109.88 165.924 109.88C174.9 109.88 181.544 103.016 181.544 93.6C181.544 84.184 174.9 77.32 165.924 77.32C156.948 77.32 150.304 84.184 150.304 93.6ZM153.604 93.6C153.604 86.12 158.62 80.4 165.924 80.4C173.228 80.4 178.244 86.12 178.244 93.6C178.244 101.08 173.228 106.8 165.924 106.8C158.62 106.8 153.604 101.08 153.604 93.6ZM211.456 78.2H186.816V109H190.116V80.84H208.156V109H211.456V78.2ZM218.054 109H221.354V93.82H231.034C238.514 93.776 240.274 89.816 240.274 86.032C240.274 82.292 238.514 78.244 231.034 78.2H218.054V109ZM221.354 80.84H231.166C235.478 80.84 237.194 83.04 237.194 86.032C237.194 89.024 235.478 91.18 231.166 91.18H221.354V80.84ZM245.554 109H248.854L268.214 82.38V109H271.514V78.2H268.214L248.854 104.82V78.2H245.554V109ZM282.524 100.64C282.524 95.932 283.272 94.7 287.98 94.7H297.924V109H301.224V78.2H287.584C279.884 78.244 278.124 82.952 278.124 86.252C278.124 91.928 282.876 93.028 282.876 93.028V93.468C280.236 94.04 279.224 95.932 279.224 101.08V104.38C279.224 107.24 278.564 107.46 277.024 107.46H276.364V109H282.524V100.64ZM297.924 92.06H288.112C282.48 92.06 281.204 88.804 281.204 86.252C281.204 83.48 282.92 80.84 287.452 80.84H297.924V92.06ZM330.696 78.2H305.836V80.84H316.616V109H319.916V80.84H330.696V78.2ZM335.316 109H338.616L357.976 82.38V109H361.276V78.2H357.976L338.616 104.82V78.2H335.316V109ZM367.886 109H389.226V106.36H371.186V94.26H384.826V91.62H371.186V80.84H389.226V78.2H367.886V109ZM411.46 93.6C411.46 86.12 416.08 80.4 423.56 80.4C430.116 80.4 434.164 83.744 435.044 89.2H438.388C437.42 81.808 431.788 77.32 423.56 77.32C414.408 77.32 408.16 84.184 408.16 93.6C408.16 103.016 414.584 109.88 423.78 109.88C432.008 109.88 437.64 105.392 438.608 98H435.264C434.384 103.5 430.336 106.8 423.78 106.8C416.256 106.8 411.46 101.08 411.46 93.6ZM462.598 105.92C462.598 108.56 463.258 109 465.678 109H467.878V106.36H466.778C465.898 106.36 465.898 105.92 465.898 105.04V97.252C465.898 92.5 462.114 92.72 462.114 92.72V92.28C462.114 92.28 465.678 92.236 465.678 87.132V82.6C465.678 81.72 465.678 80.4 466.998 80.4H467.878V77.76H465.898C462.818 77.76 462.598 79.52 462.598 81.72V86.032C462.598 89.464 461.982 91.62 458.11 91.62H447.198V78.2H443.898V109H447.198V94.26H458.11C461.542 94.26 462.598 94.7 462.598 98.132V105.92ZM472.484 93.6C472.484 103.016 479.128 109.88 488.104 109.88C497.08 109.88 503.724 103.016 503.724 93.6C503.724 84.184 497.08 77.32 488.104 77.32C479.128 77.32 472.484 84.184 472.484 93.6ZM475.784 93.6C475.784 86.12 480.8 80.4 488.104 80.4C495.408 80.4 500.424 86.12 500.424 93.6C500.424 101.08 495.408 106.8 488.104 106.8C480.8 106.8 475.784 101.08 475.784 93.6ZM508.995 109H512.295V93.82H521.975C529.455 93.776 531.215 89.816 531.215 86.032C531.215 82.292 529.455 78.244 521.975 78.2H508.995V109ZM512.295 80.84H522.107C526.419 80.84 528.135 83.04 528.135 86.032C528.135 89.024 526.419 91.18 522.107 91.18H512.295V80.84ZM535.175 93.6C535.175 103.016 541.819 109.88 550.795 109.88C559.771 109.88 566.415 103.016 566.415 93.6C566.415 84.184 559.771 77.32 550.795 77.32C541.819 77.32 535.175 84.184 535.175 93.6ZM538.475 93.6C538.475 86.12 543.491 80.4 550.795 80.4C558.099 80.4 563.115 86.12 563.115 93.6C563.115 101.08 558.099 106.8 550.795 106.8C543.491 106.8 538.475 101.08 538.475 93.6ZM575.559 100.156H573.051L571.951 77.584H576.659L575.559 100.156ZM571.555 106.624C571.555 105.539 571.819 104.776 572.347 104.336C572.875 103.896 573.52 103.676 574.283 103.676C575.016 103.676 575.647 103.896 576.175 104.336C576.732 104.776 577.011 105.539 577.011 106.624C577.011 107.68 576.732 108.443 576.175 108.912C575.647 109.381 575.016 109.616 574.283 109.616C573.52 109.616 572.875 109.381 572.347 108.912C571.819 108.443 571.555 107.68 571.555 106.624Z" fill="#EC622B"/>
<path d="M66.16 151.7C66.16 148.64 68.05 146.3 71.11 146.3C73.792 146.3 75.448 147.668 75.808 149.9H77.176C76.78 146.876 74.476 145.04 71.11 145.04C67.366 145.04 64.81 147.848 64.81 151.7C64.81 155.552 67.438 158.36 71.2 158.36C74.566 158.36 76.87 156.524 77.266 153.5H75.898C75.538 155.75 73.882 157.1 71.2 157.1C68.122 157.1 66.16 154.76 66.16 151.7ZM78.8901 153.59C78.8901 156.218 80.9421 158.36 83.7501 158.36C86.5581 158.36 88.6101 156.218 88.6101 153.59C88.6101 150.962 86.5581 148.82 83.7501 148.82C80.9421 148.82 78.8901 150.962 78.8901 153.59ZM80.1501 153.59C80.1501 151.844 81.2841 149.9 83.7501 149.9C86.2161 149.9 87.3501 151.844 87.3501 153.59C87.3501 155.336 86.2161 157.28 83.7501 157.28C81.2841 157.28 80.1501 155.336 80.1501 153.59ZM89.6022 150.17H92.9322V158H94.1922V150.17H97.5222V149.18H89.6022V150.17ZM99.1506 158H103.759C106.099 157.982 106.909 156.632 106.909 155.444C106.909 153.41 104.803 153.41 104.803 153.41V153.23C104.803 153.23 106.531 152.942 106.531 151.394C106.531 150.224 105.811 149.198 103.381 149.18H99.1506V158ZM100.411 153.86H103.075C105.019 153.86 105.649 154.58 105.649 155.444C105.649 156.308 105.037 157.01 103.633 157.01H100.411V153.86ZM100.411 150.17H103.345C104.749 150.17 105.271 150.656 105.271 151.43C105.271 152.114 104.929 152.87 103.345 152.87H100.411V150.17ZM113.405 157.28C110.849 157.28 109.841 155.48 109.787 153.77H118.067V153.23C118.067 150.872 116.645 148.82 113.369 148.82C110.309 148.82 108.527 150.962 108.527 153.59C108.527 156.218 110.345 158.36 113.405 158.36C115.601 158.36 117.527 157.388 117.887 155.21H116.627C116.447 156.362 115.241 157.28 113.405 157.28ZM113.369 149.9C115.799 149.9 116.627 151.502 116.771 152.78H109.841C110.111 151.304 111.119 149.9 113.369 149.9ZM119.063 150.17H122.393V158H123.653V150.17H126.983V149.18H119.063V150.17ZM129.206 160.16V161.24H130.286C131.564 161.24 131.942 160.97 132.536 159.53L136.856 149.18H135.506L132.464 156.596L129.008 149.18H127.622L131.87 158.018L131.384 159.206C131.042 160.016 130.772 160.16 129.926 160.16H129.206ZM142.637 157.28C140.081 157.28 139.073 155.48 139.019 153.77H147.299V153.23C147.299 150.872 145.877 148.82 142.601 148.82C139.541 148.82 137.759 150.962 137.759 153.59C137.759 156.218 139.577 158.36 142.637 158.36C144.833 158.36 146.759 157.388 147.119 155.21H145.859C145.679 156.362 144.473 157.28 142.637 157.28ZM142.601 149.9C145.031 149.9 145.859 151.502 146.003 152.78H139.073C139.343 151.304 140.351 149.9 142.601 149.9ZM152.971 158H154.141L156.571 150.71V158H157.831V149.18H156.067L153.601 156.668L151.135 149.18H149.371V158H150.541V150.71L152.971 158ZM174.039 149.18H172.779V153.05H167.559V149.18H166.299V158H167.559V154.04H172.779V158H174.039V149.18ZM183.225 158H185.655V157.37H185.385C184.755 157.37 184.485 157.28 184.485 156.11V153.59C184.485 150.962 184.035 148.82 180.345 148.82C178.095 148.82 176.205 150.08 176.205 152.33H177.465C177.465 150.998 178.365 149.9 180.345 149.9C182.685 149.9 183.207 151.142 183.225 152.528C181.983 152.618 176.475 152.996 176.475 156.2C176.475 157.46 177.285 158.36 178.995 158.36C181.047 158.36 182.667 156.632 183.225 155.93V158ZM183.225 154.94C182.631 155.678 180.975 157.28 179.355 157.28C178.275 157.28 177.735 156.92 177.735 156.11C177.735 153.968 182.091 153.626 183.225 153.518V154.94ZM194.112 149.18H192.852V153.32H189.342C188.262 153.32 188.172 152.87 188.172 152.06V149.18H186.912V152.42C186.912 153.59 187.272 154.31 188.982 154.31H192.852V158H194.112V149.18ZM203.299 158H205.729V157.37H205.459C204.829 157.37 204.559 157.28 204.559 156.11V153.59C204.559 150.962 204.109 148.82 200.419 148.82C198.169 148.82 196.279 150.08 196.279 152.33H197.539C197.539 150.998 198.439 149.9 200.419 149.9C202.759 149.9 203.281 151.142 203.299 152.528C202.057 152.618 196.549 152.996 196.549 156.2C196.549 157.46 197.359 158.36 199.069 158.36C201.121 158.36 202.741 156.632 203.299 155.93V158ZM203.299 154.94C202.705 155.678 201.049 157.28 199.429 157.28C198.349 157.28 197.809 156.92 197.809 156.11C197.809 153.968 202.165 153.626 203.299 153.518V154.94ZM206.18 150.17H209.51V158H210.77V150.17H214.1V149.18H206.18V150.17ZM215.729 158H219.239C222.299 157.982 222.839 156.848 222.839 155.606C222.839 154.346 222.299 153.248 219.239 153.23H216.989V149.18H215.729V158ZM216.989 154.22H219.203C220.967 154.22 221.669 154.616 221.669 155.606C221.669 156.596 220.967 157.01 219.203 157.01H216.989V154.22ZM231.568 153.59C231.568 151.844 232.594 149.9 235.24 149.9C237.076 149.9 238.588 150.998 238.588 152.33H239.848C239.848 149.972 237.436 148.82 235.24 148.82C232.18 148.82 230.308 150.962 230.308 153.59C230.308 156.218 232.18 158.36 235.24 158.36C237.436 158.36 239.848 157.208 239.848 154.85H238.588C238.588 156.182 237.076 157.28 235.24 157.28C232.594 157.28 231.568 155.336 231.568 153.59ZM241.558 153.59C241.558 156.218 243.61 158.36 246.418 158.36C249.226 158.36 251.278 156.218 251.278 153.59C251.278 150.962 249.226 148.82 246.418 148.82C243.61 148.82 241.558 150.962 241.558 153.59ZM242.818 153.59C242.818 151.844 243.952 149.9 246.418 149.9C248.884 149.9 250.018 151.844 250.018 153.59C250.018 155.336 248.884 157.28 246.418 157.28C243.952 157.28 242.818 155.336 242.818 153.59ZM261.986 153.95C261.986 151.322 260.114 149.54 257.666 149.54C254.966 149.54 254.246 151.7 254.246 151.7H254.066C254.246 148.82 255.326 147.29 258.116 147.02C260.51 146.786 261.536 146.75 261.536 144.86V144.5H260.546V144.68C260.546 145.58 260.096 145.508 258.206 145.76C255.506 146.12 252.986 147.056 252.986 152.87C252.986 156.74 254.858 158.36 257.486 158.36C260.114 158.36 261.986 156.578 261.986 153.95ZM254.246 153.95C254.246 152.204 255.29 150.62 257.486 150.62C259.682 150.62 260.726 152.204 260.726 153.95C260.726 155.696 259.682 157.28 257.486 157.28C255.29 157.28 254.246 155.696 254.246 153.95ZM271.791 149.18H270.351L265.311 156.596V149.18H264.051V158H265.491L270.531 150.584V158H271.791V149.18ZM275.577 153.59C275.577 151.844 276.711 149.9 278.817 149.9C280.923 149.9 281.877 151.844 281.877 153.59C281.877 155.336 280.923 157.28 278.817 157.28C276.711 157.28 275.577 155.336 275.577 153.59ZM275.577 157.28L275.397 156.11H275.577C275.577 156.11 276.387 158.36 278.997 158.36C281.445 158.36 283.137 156.218 283.137 153.59C283.137 150.962 281.535 148.82 278.907 148.82C276.387 148.82 275.577 151.07 275.577 151.07H275.397V149.18H274.317V161.24H275.577V157.28ZM291.875 158H294.305V157.37H294.035C293.405 157.37 293.135 157.28 293.135 156.11V153.59C293.135 150.962 292.685 148.82 288.995 148.82C286.745 148.82 284.855 150.08 284.855 152.33H286.115C286.115 150.998 287.015 149.9 288.995 149.9C291.335 149.9 291.857 151.142 291.875 152.528C290.633 152.618 285.125 152.996 285.125 156.2C285.125 157.46 285.935 158.36 287.645 158.36C289.697 158.36 291.317 156.632 291.875 155.93V158ZM291.875 154.94C291.281 155.678 289.625 157.28 288.005 157.28C286.925 157.28 286.385 156.92 286.385 156.11C286.385 153.968 290.741 153.626 291.875 153.518V154.94ZM294.756 150.17H298.086V158H299.346V150.17H302.676V149.18H294.756V150.17ZM304.305 158H307.815C310.875 157.982 311.415 156.848 311.415 155.606C311.415 154.346 310.875 153.248 307.815 153.23H305.565V149.18H304.305V158ZM305.565 154.22H307.779C309.543 154.22 310.245 154.616 310.245 155.606C310.245 156.596 309.543 157.01 307.779 157.01H305.565V154.22ZM314.203 153.59C314.203 151.844 315.229 149.9 317.875 149.9C319.711 149.9 321.223 150.998 321.223 152.33H322.483C322.483 149.972 320.071 148.82 317.875 148.82C314.815 148.82 312.943 150.962 312.943 153.59C312.943 156.218 314.815 158.36 317.875 158.36C320.071 158.36 322.483 157.208 322.483 154.85H321.223C321.223 156.182 319.711 157.28 317.875 157.28C315.229 157.28 314.203 155.336 314.203 153.59ZM326.173 155.75C326.173 154.85 326.533 154.31 327.973 154.31H330.853V158H332.113V149.18H328.153C325.273 149.198 324.553 150.584 324.553 151.736C324.553 153.5 326.191 153.77 326.191 153.77V153.95C326.191 153.95 325.003 154.13 325.003 155.624V156.11C325.003 157.28 324.733 157.37 324.103 157.37H323.923V158H326.173V155.75ZM330.853 153.32H328.009C326.425 153.32 325.723 152.708 325.723 151.808C325.723 150.854 326.425 150.17 328.189 150.17H330.853V153.32ZM334.663 157.028C334.663 156.584 334.771 156.272 334.987 156.092C335.203 155.912 335.461 155.822 335.761 155.822C336.073 155.822 336.337 155.912 336.553 156.092C336.781 156.272 336.895 156.584 336.895 157.028C336.895 157.46 336.781 157.772 336.553 157.964C336.337 158.156 336.073 158.252 335.761 158.252C335.461 158.252 335.203 158.156 334.987 157.964C334.771 157.772 334.663 157.46 334.663 157.028ZM351.091 157.1C348.409 157.1 346.663 155.75 346.303 153.5H344.935C345.331 156.524 347.725 158.36 351.091 158.36C355.213 158.36 357.391 155.552 357.391 151.7C357.391 147.848 354.925 145.04 351.001 145.04C347.635 145.04 345.421 146.876 345.025 149.9H346.393C346.753 147.668 348.319 146.3 351.001 146.3C354.043 146.3 355.825 148.37 356.023 151.16H348.085V152.24H356.023C355.843 155.03 354.313 157.1 351.091 157.1ZM364.333 150.17V158H365.593V149.18H360.463V150.98C360.463 156.2 359.023 157.1 357.763 157.1C357.583 157.1 357.403 157.046 357.403 157.046V158C357.403 158 357.583 158.09 357.961 158.09C359.383 158.09 361.543 157.46 361.543 151.34V150.17H364.333ZM372.542 157.28C369.986 157.28 368.978 155.48 368.924 153.77H377.204V153.23C377.204 150.872 375.782 148.82 372.506 148.82C369.446 148.82 367.664 150.962 367.664 153.59C367.664 156.218 369.482 158.36 372.542 158.36C374.738 158.36 376.664 157.388 377.024 155.21H375.764C375.584 156.362 374.378 157.28 372.542 157.28ZM372.506 149.9C374.936 149.9 375.764 151.502 375.908 152.78H368.978C369.248 151.304 370.256 149.9 372.506 149.9ZM385.126 156.74C385.126 157.82 385.396 158 386.386 158H387.196V157.01H386.746C386.386 157.01 386.386 156.83 386.386 156.47V155.12C386.386 153.446 385.126 153.446 385.126 153.446V153.266C385.126 153.266 386.296 153.266 386.296 151.43V150.62C386.296 150.08 386.386 149.99 386.836 149.99H387.106V149H386.476C385.396 149 385.126 149.36 385.126 150.62V151.07C385.126 152.114 385.144 152.996 383.74 152.996H380.536V149.18H379.276V158H380.536V153.986H383.74C385.144 153.986 385.126 154.706 385.126 155.57V156.74ZM388.448 150.17H391.778V158H393.038V150.17H396.368V149.18H388.448V150.17ZM399.256 153.59C399.256 151.844 400.39 149.9 402.496 149.9C404.602 149.9 405.556 151.844 405.556 153.59C405.556 155.336 404.602 157.28 402.496 157.28C400.39 157.28 399.256 155.336 399.256 153.59ZM399.256 157.28L399.076 156.11H399.256C399.256 156.11 400.066 158.36 402.676 158.36C405.124 158.36 406.816 156.218 406.816 153.59C406.816 150.962 405.214 148.82 402.586 148.82C400.066 148.82 399.256 151.07 399.256 151.07H399.076V149.18H397.996V161.24H399.256V157.28ZM408.445 153.59C408.445 156.218 410.497 158.36 413.305 158.36C416.113 158.36 418.165 156.218 418.165 153.59C418.165 150.962 416.113 148.82 413.305 148.82C410.497 148.82 408.445 150.962 408.445 153.59ZM409.705 153.59C409.705 151.844 410.839 149.9 413.305 149.9C415.771 149.9 416.905 151.844 416.905 153.59C416.905 155.336 415.771 157.28 413.305 157.28C410.839 157.28 409.705 155.336 409.705 153.59ZM427.973 149.18H426.713V153.05H421.493V149.18H420.233V158H421.493V154.04H426.713V158H427.973V149.18ZM438.238 149.18H436.978V153.05H431.758V149.18H430.498V158H431.758V154.04H436.978V158H438.238V149.18ZM440.764 158H443.734C446.794 157.982 447.334 156.848 447.334 155.606C447.334 154.346 446.794 153.248 443.734 153.23H442.024V149.18H440.764V158ZM442.024 154.22H443.698C445.462 154.22 446.164 154.616 446.164 155.606C446.164 156.596 445.462 157.01 443.698 157.01H442.024V154.22ZM449.944 149.18H448.684V158H449.944V149.18ZM457.961 145.4C457.961 146.12 457.619 146.93 456.341 146.93C455.063 146.93 454.721 146.12 454.721 145.4H453.731C453.731 146.912 454.739 147.83 456.341 147.83C457.943 147.83 458.951 146.912 458.951 145.4H457.961ZM460.211 149.18H458.771L453.731 156.596V149.18H452.471V158H453.911L458.951 150.584V158H460.211V149.18ZM477.318 153.95C477.318 151.322 475.446 149.54 472.998 149.54C470.298 149.54 469.578 151.7 469.578 151.7H469.398C469.578 148.82 470.658 147.29 473.448 147.02C475.842 146.786 476.868 146.75 476.868 144.86V144.5H475.878V144.68C475.878 145.58 475.428 145.508 473.538 145.76C470.838 146.12 468.318 147.056 468.318 152.87C468.318 156.74 470.19 158.36 472.818 158.36C475.446 158.36 477.318 156.578 477.318 153.95ZM469.578 153.95C469.578 152.204 470.622 150.62 472.818 150.62C475.014 150.62 476.058 152.204 476.058 153.95C476.058 155.696 475.014 157.28 472.818 157.28C470.622 157.28 469.578 155.696 469.578 153.95ZM487.123 149.18H485.683L480.643 156.596V149.18H479.383V158H480.823L485.863 150.584V158H487.123V149.18ZM495.589 150.17V158H496.849V149.18H491.719V150.98C491.719 156.2 490.279 157.1 489.019 157.1C488.839 157.1 488.659 157.046 488.659 157.046V158C488.659 158 488.839 158.09 489.217 158.09C490.639 158.09 492.799 157.46 492.799 151.34V150.17H495.589ZM503.797 157.28C501.241 157.28 500.233 155.48 500.179 153.77H508.459V153.23C508.459 150.872 507.037 148.82 503.761 148.82C500.701 148.82 498.919 150.962 498.919 153.59C498.919 156.218 500.737 158.36 503.797 158.36C505.993 158.36 507.919 157.388 508.279 155.21H507.019C506.839 156.362 505.633 157.28 503.797 157.28ZM503.761 149.9C506.191 149.9 507.019 151.502 507.163 152.78H500.233C500.503 151.304 501.511 149.9 503.761 149.9ZM509.456 150.17H512.786V158H514.046V150.17H517.376V149.18H509.456V150.17ZM525.54 160.16V161.24H526.62C527.898 161.24 528.276 160.97 528.87 159.53L533.19 149.18H531.84L528.798 156.596L525.342 149.18H523.956L528.204 158.018L527.718 159.206C527.376 160.016 527.106 160.16 526.26 160.16H525.54ZM536.429 155.57C536.429 154.706 536.411 153.986 537.815 153.986H539.579V158H540.839V153.986H542.603C544.007 153.986 543.989 154.706 543.989 155.57V156.74C543.989 157.82 544.259 158 545.249 158H546.059V157.01H545.609C545.249 157.01 545.249 156.83 545.249 156.47V155.12C545.249 153.446 543.989 153.446 543.989 153.446V153.266C543.989 153.266 545.159 153.266 545.159 151.43V150.62C545.159 150.08 545.249 149.99 545.699 149.99H545.969V149H545.339C544.259 149 543.989 149.36 543.989 150.62V151.07C543.989 152.114 544.007 152.996 542.603 152.996H540.839V149.18H539.579V152.996H537.815C536.411 152.996 536.429 152.114 536.429 151.07V150.62C536.429 149.36 536.159 149 535.079 149H534.449V149.99H534.719C535.169 149.99 535.259 150.08 535.259 150.62V151.43C535.259 153.266 536.429 153.266 536.429 153.266V153.446C536.429 153.446 535.169 153.446 535.169 155.12V156.47C535.169 156.83 535.169 157.01 534.809 157.01H534.359V158H535.169C536.159 158 536.429 157.82 536.429 156.74V155.57ZM552.647 157.28C550.091 157.28 549.083 155.48 549.029 153.77H557.309V153.23C557.309 150.872 555.887 148.82 552.611 148.82C549.551 148.82 547.769 150.962 547.769 153.59C547.769 156.218 549.587 158.36 552.647 158.36C554.843 158.36 556.769 157.388 557.129 155.21H555.869C555.689 156.362 554.483 157.28 552.647 157.28ZM552.611 149.9C555.041 149.9 555.869 151.502 556.013 152.78H549.083C549.353 151.304 550.361 149.9 552.611 149.9ZM64.81 173.59C64.81 176.218 66.862 178.36 69.67 178.36C72.478 178.36 74.53 176.218 74.53 173.59C74.53 170.962 72.478 168.82 69.67 168.82C66.862 168.82 64.81 170.962 64.81 173.59ZM66.07 173.59C66.07 171.844 67.204 169.9 69.67 169.9C72.136 169.9 73.27 171.844 73.27 173.59C73.27 175.336 72.136 177.28 69.67 177.28C67.204 177.28 66.07 175.336 66.07 173.59ZM75.5221 170.17H78.8521V178H80.1121V170.17H83.4421V169.18H75.5221V170.17ZM92.7205 169.18H85.0705V178H86.3305V170.17H91.4605V178H92.7205V169.18ZM96.5083 173.59C96.5083 171.844 97.6423 169.9 99.7483 169.9C101.854 169.9 102.808 171.844 102.808 173.59C102.808 175.336 101.854 177.28 99.7483 177.28C97.6423 177.28 96.5083 175.336 96.5083 173.59ZM96.5083 177.28L96.3283 176.11H96.5083C96.5083 176.11 97.3183 178.36 99.9283 178.36C102.376 178.36 104.068 176.218 104.068 173.59C104.068 170.962 102.466 168.82 99.8383 168.82C97.3183 168.82 96.5083 171.07 96.5083 171.07H96.3283V169.18H95.2483V181.24H96.5083V177.28ZM112.807 178H115.237V177.37H114.967C114.337 177.37 114.067 177.28 114.067 176.11V173.59C114.067 170.962 113.617 168.82 109.927 168.82C107.677 168.82 105.787 170.08 105.787 172.33H107.047C107.047 170.998 107.947 169.9 109.927 169.9C112.267 169.9 112.789 171.142 112.807 172.528C111.565 172.618 106.057 172.996 106.057 176.2C106.057 177.46 106.867 178.36 108.577 178.36C110.629 178.36 112.249 176.632 112.807 175.93V178ZM112.807 174.94C112.213 175.678 110.557 177.28 108.937 177.28C107.857 177.28 107.317 176.92 107.317 176.11C107.317 173.968 111.673 173.626 112.807 173.518V174.94ZM116.94 178H121.548C123.888 177.982 124.698 176.632 124.698 175.444C124.698 173.41 122.592 173.41 122.592 173.41V173.23C122.592 173.23 124.32 172.942 124.32 171.394C124.32 170.224 123.6 169.198 121.17 169.18H116.94V178ZM118.2 173.86H120.864C122.808 173.86 123.438 174.58 123.438 175.444C123.438 176.308 122.826 177.01 121.422 177.01H118.2V173.86ZM118.2 170.17H121.134C122.538 170.17 123.06 170.656 123.06 171.43C123.06 172.114 122.718 172.87 121.134 172.87H118.2V170.17ZM132.53 170.17V178H133.79V169.18H128.66V170.98C128.66 176.2 127.22 177.1 125.96 177.1C125.78 177.1 125.6 177.046 125.6 177.046V178C125.6 178 125.78 178.09 126.158 178.09C127.58 178.09 129.74 177.46 129.74 171.34V170.17H132.53ZM140.739 177.28C138.183 177.28 137.175 175.48 137.121 173.77H145.401V173.23C145.401 170.872 143.979 168.82 140.703 168.82C137.643 168.82 135.861 170.962 135.861 173.59C135.861 176.218 137.679 178.36 140.739 178.36C142.935 178.36 144.861 177.388 145.221 175.21H143.961C143.781 176.362 142.575 177.28 140.739 177.28ZM140.703 169.9C143.133 169.9 143.961 171.502 144.105 172.78H137.175C137.445 171.304 138.453 169.9 140.703 169.9ZM155.213 169.18H153.953V173.05H148.733V169.18H147.473V178H148.733V174.04H153.953V178H155.213V169.18ZM157.289 173.59C157.289 176.218 159.341 178.36 162.149 178.36C164.957 178.36 167.009 176.218 167.009 173.59C167.009 170.962 164.957 168.82 162.149 168.82C159.341 168.82 157.289 170.962 157.289 173.59ZM158.549 173.59C158.549 171.844 159.683 169.9 162.149 169.9C164.615 169.9 165.749 171.844 165.749 173.59C165.749 175.336 164.615 177.28 162.149 177.28C159.683 177.28 158.549 175.336 158.549 173.59ZM175.018 178H179.626C181.966 177.982 182.776 176.632 182.776 175.444C182.776 173.41 180.67 173.41 180.67 173.41V173.23C180.67 173.23 182.398 172.942 182.398 171.394C182.398 170.224 181.678 169.198 179.248 169.18H175.018V178ZM176.278 173.86H178.942C180.886 173.86 181.516 174.58 181.516 175.444C181.516 176.308 180.904 177.01 179.5 177.01H176.278V173.86ZM176.278 170.17H179.212C180.616 170.17 181.138 170.656 181.138 171.43C181.138 172.114 180.796 172.87 179.212 172.87H176.278V170.17ZM191.504 178H193.934V177.37H193.664C193.034 177.37 192.764 177.28 192.764 176.11V173.59C192.764 170.962 192.314 168.82 188.624 168.82C186.374 168.82 184.484 170.08 184.484 172.33H185.744C185.744 170.998 186.644 169.9 188.624 169.9C190.964 169.9 191.486 171.142 191.504 172.528C190.262 172.618 184.754 172.996 184.754 176.2C184.754 177.46 185.564 178.36 187.274 178.36C189.326 178.36 190.946 176.632 191.504 175.93V178ZM191.504 174.94C190.91 175.678 189.254 177.28 187.634 177.28C186.554 177.28 186.014 176.92 186.014 176.11C186.014 173.968 190.37 173.626 191.504 173.518V174.94ZM199.237 178H200.407L202.837 170.71V178H204.097V169.18H202.333L199.867 176.668L197.401 169.18H195.637V178H196.807V170.71L199.237 178ZM220.305 169.18H219.045V173.05H213.825V169.18H212.565V178H213.825V174.04H219.045V178H220.305V169.18ZM229.49 178H231.92V177.37H231.65C231.02 177.37 230.75 177.28 230.75 176.11V173.59C230.75 170.962 230.3 168.82 226.61 168.82C224.36 168.82 222.47 170.08 222.47 172.33H223.73C223.73 170.998 224.63 169.9 226.61 169.9C228.95 169.9 229.472 171.142 229.49 172.528C228.248 172.618 222.74 172.996 222.74 176.2C222.74 177.46 223.55 178.36 225.26 178.36C227.312 178.36 228.932 176.632 229.49 175.93V178ZM229.49 174.94C228.896 175.678 227.24 177.28 225.62 177.28C224.54 177.28 224 176.92 224 176.11C224 173.968 228.356 173.626 229.49 173.518V174.94ZM247.215 169.18H239.565V178H240.825V170.17H245.955V178H247.215V169.18ZM249.292 173.59C249.292 176.218 251.344 178.36 254.152 178.36C256.96 178.36 259.012 176.218 259.012 173.59C259.012 170.962 256.96 168.82 254.152 168.82C251.344 168.82 249.292 170.962 249.292 173.59ZM250.552 173.59C250.552 171.844 251.686 169.9 254.152 169.9C256.618 169.9 257.752 171.844 257.752 173.59C257.752 175.336 256.618 177.28 254.152 177.28C251.686 177.28 250.552 175.336 250.552 173.59ZM268.01 169.18H266.75V173.32H263.24C262.16 173.32 262.07 172.87 262.07 172.06V169.18H260.81V172.42C260.81 173.59 261.17 174.31 262.88 174.31H266.75V178H268.01V169.18ZM269.637 170.17H272.967V178H274.227V170.17H277.557V169.18H269.637V170.17ZM279.78 180.16V181.24H280.86C282.138 181.24 282.516 180.97 283.11 179.53L287.43 169.18H286.08L283.038 176.596L279.582 169.18H278.196L282.444 178.018L281.958 179.206C281.616 180.016 281.346 180.16 280.5 180.16H279.78ZM288.995 177.028C288.995 176.584 289.103 176.272 289.319 176.092C289.535 175.912 289.793 175.822 290.093 175.822C290.405 175.822 290.669 175.912 290.885 176.092C291.113 176.272 291.227 176.584 291.227 177.028C291.227 177.46 291.113 177.772 290.885 177.964C290.669 178.156 290.405 178.252 290.093 178.252C289.793 178.252 289.535 178.156 289.319 177.964C289.103 177.772 288.995 177.46 288.995 177.028ZM310.067 165.4H308.717V170.89H301.157V165.4H299.807V178H301.157V171.97H308.717V178H310.067V165.4ZM317.1 177.28C314.544 177.28 313.536 175.48 313.482 173.77H321.762V173.23C321.762 170.872 320.34 168.82 317.064 168.82C314.004 168.82 312.222 170.962 312.222 173.59C312.222 176.218 314.04 178.36 317.1 178.36C319.296 178.36 321.222 177.388 321.582 175.21H320.322C320.142 176.362 318.936 177.28 317.1 177.28ZM317.064 169.9C319.494 169.9 320.322 171.502 320.466 172.78H313.536C313.806 171.304 314.814 169.9 317.064 169.9ZM329.416 174.85C329.416 177.208 331.18 178.36 333.826 178.36C336.436 178.36 338.146 177.28 338.146 175.39C338.146 173.5 336.256 173.41 336.256 173.41V173.23C336.256 173.23 337.714 173.14 337.714 171.43C337.714 169.702 336.058 168.82 333.736 168.82C332.08 168.82 329.686 169.432 329.686 171.79H330.946C330.946 170.458 332.44 169.9 333.736 169.9C335.842 169.9 336.544 170.62 336.544 171.52C336.544 172.69 335.518 172.96 334.024 172.96H332.026V173.95H333.934C335.644 173.95 336.976 174.13 336.976 175.39C336.976 176.416 336.112 177.28 333.826 177.28C331.486 177.28 330.676 176.182 330.676 174.85H329.416ZM346.965 178H349.395V177.37H349.125C348.495 177.37 348.225 177.28 348.225 176.11V173.59C348.225 170.962 347.775 168.82 344.085 168.82C341.835 168.82 339.945 170.08 339.945 172.33H341.205C341.205 170.998 342.105 169.9 344.085 169.9C346.425 169.9 346.947 171.142 346.965 172.528C345.723 172.618 340.215 172.996 340.215 176.2C340.215 177.46 341.025 178.36 342.735 178.36C344.787 178.36 346.407 176.632 346.965 175.93V178ZM346.965 174.94C346.371 175.678 344.715 177.28 343.095 177.28C342.015 177.28 341.475 176.92 341.475 176.11C341.475 173.968 345.831 173.626 346.965 173.518V174.94ZM359.562 173.95C359.562 171.322 357.69 169.54 355.242 169.54C352.542 169.54 351.822 171.7 351.822 171.7H351.642C351.822 168.82 352.902 167.29 355.692 167.02C358.086 166.786 359.112 166.75 359.112 164.86V164.5H358.122V164.68C358.122 165.58 357.672 165.508 355.782 165.76C353.082 166.12 350.562 167.056 350.562 172.87C350.562 176.74 352.434 178.36 355.062 178.36C357.69 178.36 359.562 176.578 359.562 173.95ZM351.822 173.95C351.822 172.204 352.866 170.62 355.062 170.62C357.258 170.62 358.302 172.204 358.302 173.95C358.302 175.696 357.258 177.28 355.062 177.28C352.866 177.28 351.822 175.696 351.822 173.95ZM362.045 180.16V181.24H363.125C364.403 181.24 364.781 180.97 365.375 179.53L369.695 169.18H368.345L365.303 176.596L361.847 169.18H360.461L364.709 178.018L364.223 179.206C363.881 180.016 363.611 180.16 362.765 180.16H362.045ZM377.8 169.18H372.22V170.98C372.22 174.04 371.59 175.93 370.6 177.01H369.16V180.25H370.24V178H378.43V180.25H379.51V177.01H377.8V169.18ZM376.54 170.17V177.01H371.86C372.76 175.75 373.3 173.86 373.3 171.34V170.17H376.54ZM381.033 178H384.543C387.603 177.982 388.143 176.848 388.143 175.606C388.143 174.346 387.603 173.248 384.543 173.23H382.293V169.18H381.033V178ZM382.293 174.22H384.507C386.271 174.22 386.973 174.616 386.973 175.606C386.973 176.596 386.271 177.01 384.507 177.01H382.293V174.22ZM388.325 170.17H391.655V178H392.915V170.17H396.245V169.18H388.325V170.17ZM402.126 177.28C399.57 177.28 398.562 175.48 398.508 173.77H406.788V173.23C406.788 170.872 405.366 168.82 402.09 168.82C399.03 168.82 397.248 170.962 397.248 173.59C397.248 176.218 399.066 178.36 402.126 178.36C404.322 178.36 406.248 177.388 406.607 175.21H405.348C405.168 176.362 403.962 177.28 402.126 177.28ZM402.09 169.9C404.52 169.9 405.348 171.502 405.492 172.78H398.562C398.832 171.304 399.84 169.9 402.09 169.9ZM422.451 169.18H414.801V178H416.061V170.17H421.191V178H422.451V169.18ZM426.239 173.59C426.239 171.844 427.373 169.9 429.479 169.9C431.585 169.9 432.539 171.844 432.539 173.59C432.539 175.336 431.585 177.28 429.479 177.28C427.373 177.28 426.239 175.336 426.239 173.59ZM426.239 177.28L426.059 176.11H426.239C426.239 176.11 427.049 178.36 429.659 178.36C432.107 178.36 433.799 176.218 433.799 173.59C433.799 170.962 432.197 168.82 429.569 168.82C427.049 168.82 426.239 171.07 426.239 171.07H426.059V169.18H424.979V181.24H426.239V177.28ZM435.427 173.59C435.427 176.218 437.479 178.36 440.287 178.36C443.095 178.36 445.147 176.218 445.147 173.59C445.147 170.962 443.095 168.82 440.287 168.82C437.479 168.82 435.427 170.962 435.427 173.59ZM436.687 173.59C436.687 171.844 437.821 169.9 440.287 169.9C442.753 169.9 443.887 171.844 443.887 173.59C443.887 175.336 442.753 177.28 440.287 177.28C437.821 177.28 436.687 175.336 436.687 173.59ZM447.215 178H451.823C454.163 177.982 454.973 176.632 454.973 175.444C454.973 173.41 452.867 173.41 452.867 173.41V173.23C452.867 173.23 454.595 172.942 454.595 171.394C454.595 170.224 453.875 169.198 451.445 169.18H447.215V178ZM448.475 173.86H451.139C453.083 173.86 453.713 174.58 453.713 175.444C453.713 176.308 453.101 177.01 451.697 177.01H448.475V173.86ZM448.475 170.17H451.409C452.813 170.17 453.335 170.656 453.335 171.43C453.335 172.114 452.993 172.87 451.409 172.87H448.475V170.17ZM461.469 177.28C458.913 177.28 457.905 175.48 457.851 173.77H466.131V173.23C466.131 170.872 464.709 168.82 461.433 168.82C458.373 168.82 456.591 170.962 456.591 173.59C456.591 176.218 458.409 178.36 461.469 178.36C463.665 178.36 465.591 177.388 465.951 175.21H464.691C464.511 176.362 463.305 177.28 461.469 177.28ZM461.433 169.9C463.863 169.9 464.691 171.502 464.835 172.78H457.905C458.175 171.304 459.183 169.9 461.433 169.9ZM469.463 173.59C469.463 171.844 470.597 169.9 472.703 169.9C474.809 169.9 475.763 171.844 475.763 173.59C475.763 175.336 474.809 177.28 472.703 177.28C470.597 177.28 469.463 175.336 469.463 173.59ZM469.463 177.28L469.283 176.11H469.463C469.463 176.11 470.273 178.36 472.883 178.36C475.331 178.36 477.023 176.218 477.023 173.59C477.023 170.962 475.421 168.82 472.793 168.82C470.273 168.82 469.463 171.07 469.463 171.07H469.283V169.18H468.203V181.24H469.463V177.28ZM486.842 169.18H485.402L480.362 176.596V169.18H479.102V178H480.542L485.582 170.584V178H486.842V169.18ZM488.467 170.17H491.797V178H493.057V170.17H496.387V169.18H488.467V170.17ZM498.016 178H501.526C504.586 177.982 505.126 176.848 505.126 175.606C505.126 174.346 504.586 173.248 501.526 173.23H499.276V169.18H498.016V178ZM499.276 174.22H501.49C503.254 174.22 503.956 174.616 503.956 175.606C503.956 176.596 503.254 177.01 501.49 177.01H499.276V174.22ZM513.855 173.59C513.855 171.844 514.881 169.9 517.527 169.9C519.363 169.9 520.875 170.998 520.875 172.33H522.135C522.135 169.972 519.723 168.82 517.527 168.82C514.467 168.82 512.595 170.962 512.595 173.59C512.595 176.218 514.467 178.36 517.527 178.36C519.723 178.36 522.135 177.208 522.135 174.85H520.875C520.875 176.182 519.363 177.28 517.527 177.28C514.881 177.28 513.855 175.336 513.855 173.59ZM531.945 169.18H524.295V178H525.555V170.17H530.685V178H531.945V169.18ZM541.133 178H543.563V177.37H543.293C542.663 177.37 542.393 177.28 542.393 176.11V173.59C542.393 170.962 541.943 168.82 538.253 168.82C536.003 168.82 534.113 170.08 534.113 172.33H535.373C535.373 170.998 536.273 169.9 538.253 169.9C540.593 169.9 541.115 171.142 541.133 172.528C539.891 172.618 534.383 172.996 534.383 176.2C534.383 177.46 535.193 178.36 536.903 178.36C538.955 178.36 540.575 176.632 541.133 175.93V178ZM541.133 174.94C540.539 175.678 538.883 177.28 537.263 177.28C536.183 177.28 535.643 176.92 535.643 176.11C535.643 173.968 539.999 173.626 541.133 173.518V174.94ZM548.866 178H550.036L552.466 170.71V178H553.726V169.18H551.962L549.496 176.668L547.03 169.18H545.266V178H546.436V170.71L548.866 178ZM562.23 169.324C562.23 168.868 562.338 168.55 562.554 168.37C562.77 168.19 563.028 168.1 563.328 168.1C563.64 168.1 563.904 168.19 564.12 168.37C564.348 168.55 564.462 168.868 564.462 169.324C564.462 169.756 564.348 170.068 564.12 170.26C563.904 170.452 563.64 170.548 563.328 170.548C563.028 170.548 562.77 170.452 562.554 170.26C562.338 170.068 562.23 169.756 562.23 169.324ZM562.23 177.028C562.23 176.584 562.338 176.272 562.554 176.092C562.77 175.912 563.028 175.822 563.328 175.822C563.64 175.822 563.904 175.912 564.12 176.092C564.348 176.272 564.462 176.584 564.462 177.028C564.462 177.46 564.348 177.772 564.12 177.964C563.904 178.156 563.64 178.252 563.328 178.252C563.028 178.252 562.77 178.156 562.554 177.964C562.338 177.772 562.23 177.46 562.23 177.028ZM570.43 173.068C570.43 174.52 570.214 175.918 569.782 177.262C569.362 178.594 568.696 179.788 567.784 180.844H566.308C567.136 179.716 567.76 178.486 568.18 177.154C568.612 175.81 568.828 174.442 568.828 173.05C568.828 171.622 568.612 170.23 568.18 168.874C567.76 167.518 567.13 166.276 566.29 165.148H567.784C568.696 166.24 569.362 167.47 569.782 168.838C570.214 170.194 570.43 171.604 570.43 173.068Z" fill="#EC622B"/>
</svg>
