<svg width="158" height="38" viewBox="0 0 158 38" fill="none" xmlns="http://www.w3.org/2000/svg">
<rect x="0.75" y="0.75" width="156.5" height="36.5" stroke="#EC622B" stroke-width="1.5"/>
<path d="M14.35 26H15.7V19.79H19.66C22.72 19.772 23.44 18.152 23.44 16.604C23.44 15.074 22.72 13.418 19.66 13.4H14.35V26ZM15.7 14.48H19.714C21.478 14.48 22.18 15.38 22.18 16.604C22.18 17.828 21.478 18.71 19.714 18.71H15.7V14.48ZM25.6 26H34.33V24.92H26.95V19.97H32.53V18.89H26.95V14.48H34.33V13.4H25.6V26ZM36.6742 26H38.0242V14.48H44.6842V13.4H36.6742V26ZM46.6586 26H48.0086L55.9286 15.11V26H57.2786V13.4H55.9286L48.0086 24.29V13.4H46.6586V26ZM60.7928 19.7C60.7928 16.64 62.6828 14.3 65.7428 14.3C68.4248 14.3 70.0808 15.668 70.4408 17.9H71.8088C71.4128 14.876 69.1088 13.04 65.7428 13.04C61.9988 13.04 59.4428 15.848 59.4428 19.7C59.4428 23.552 62.0708 26.36 65.8328 26.36C69.1988 26.36 71.5028 24.524 71.8988 21.5H70.5308C70.1708 23.75 68.5148 25.1 65.8328 25.1C62.7548 25.1 60.7928 22.76 60.7928 19.7ZM82.878 13.4H72.708V14.48H77.118V26H78.468V14.48H82.878V13.4ZM84.768 26H86.118V19.79H90.078C93.138 19.772 93.858 18.152 93.858 16.604C93.858 15.074 93.138 13.418 90.078 13.4H84.768V26ZM86.118 14.48H90.132C91.896 14.48 92.598 15.38 92.598 16.604C92.598 17.828 91.896 18.71 90.132 18.71H86.118V14.48ZM93.7623 26H95.0223L96.3363 22.49H102.06L103.356 26H104.706L100.008 13.4H98.6403L93.7623 26ZM99.2343 14.84L101.664 21.41H96.7503L99.2343 14.84ZM117.944 24.92H116.144V13.4H114.794V24.92H107.774V13.4H106.424V26H116.774V28.88H117.944V24.92ZM119.748 26H121.098L129.018 15.11V26H130.368V13.4H129.018L121.098 24.29V13.4H119.748V26ZM134.873 22.58C134.873 20.654 135.179 20.15 137.105 20.15H141.173V26H142.523V13.4H136.943C133.793 13.418 133.073 15.344 133.073 16.694C133.073 19.016 135.017 19.466 135.017 19.466V19.646C133.937 19.88 133.523 20.654 133.523 22.76V24.11C133.523 25.28 133.253 25.37 132.623 25.37H132.353V26H134.873V22.58ZM141.173 19.07H137.159C134.855 19.07 134.333 17.738 134.333 16.694C134.333 15.56 135.035 14.48 136.889 14.48H141.173V19.07Z" fill="#EC622B"/>
</svg>
