<svg width="127" height="31" viewBox="0 0 127 31" fill="none" xmlns="http://www.w3.org/2000/svg">
<rect x="0.75" y="0.75" width="125.5" height="29.5" stroke="#EC622B" stroke-width="1.5"/>
<path d="M14.05 21H15.1V16.17H18.18C20.56 16.156 21.12 14.896 21.12 13.692C21.12 12.502 20.56 11.214 18.18 11.2H14.05V21ZM15.1 12.04H18.222C19.594 12.04 20.14 12.74 20.14 13.692C20.14 14.644 19.594 15.33 18.222 15.33H15.1V12.04ZM22.8 21H29.59V20.16H23.85V16.31H28.19V15.47H23.85V12.04H29.59V11.2H22.8V21ZM31.4133 21H32.4633V12.04H37.6433V11.2H31.4133V21ZM39.1789 21H40.2289L46.3889 12.53V21H47.4389V11.2H46.3889L40.2289 19.67V11.2H39.1789V21ZM50.1722 16.1C50.1722 13.72 51.6422 11.9 54.0222 11.9C56.1082 11.9 57.3962 12.964 57.6762 14.7H58.7402C58.4322 12.348 56.6402 10.92 54.0222 10.92C51.1102 10.92 49.1222 13.104 49.1222 16.1C49.1222 19.096 51.1662 21.28 54.0922 21.28C56.7102 21.28 58.5022 19.852 58.8102 17.5H57.7462C57.4662 19.25 56.1782 20.3 54.0922 20.3C51.6982 20.3 50.1722 18.48 50.1722 16.1ZM67.3495 11.2H59.4395V12.04H62.8695V21H63.9195V12.04H67.3495V11.2ZM68.8195 21H69.8695V16.17H72.9495C75.3295 16.156 75.8895 14.896 75.8895 13.692C75.8895 12.502 75.3295 11.214 72.9495 11.2H68.8195V21ZM69.8695 12.04H72.9915C74.3635 12.04 74.9095 12.74 74.9095 13.692C74.9095 14.644 74.3635 15.33 72.9915 15.33H69.8695V12.04ZM75.8152 21H76.7952L77.8172 18.27H82.2692L83.2772 21H84.3272L80.6732 11.2H79.6092L75.8152 21ZM80.0712 12.32L81.9612 17.43H78.1392L80.0712 12.32ZM94.6233 20.16H93.2233V11.2H92.1733V20.16H86.7133V11.2H85.6633V21H93.7133V23.24H94.6233V20.16ZM96.0266 21H97.0766L103.237 12.53V21H104.287V11.2H103.237L97.0766 19.67V11.2H96.0266V21ZM107.79 18.34C107.79 16.842 108.028 16.45 109.526 16.45H112.69V21H113.74V11.2H109.4C106.95 11.214 106.39 12.712 106.39 13.762C106.39 15.568 107.902 15.918 107.902 15.918V16.058C107.062 16.24 106.74 16.842 106.74 18.48V19.53C106.74 20.44 106.53 20.51 106.04 20.51H105.83V21H107.79V18.34ZM112.69 15.61H109.568C107.776 15.61 107.37 14.574 107.37 13.762C107.37 12.88 107.916 12.04 109.358 12.04H112.69V15.61Z" fill="#EC622B"/>
</svg>
