<svg width="305" height="76" viewBox="0 0 305 76" fill="none" xmlns="http://www.w3.org/2000/svg">
<rect x="1.5" y="1.5" width="302" height="73" stroke="#EC622B" stroke-width="3"/>
<path d="M58.44 38.8C58.44 45.648 63.272 50.64 69.8 50.64C76.328 50.64 81.16 45.648 81.16 38.8C81.16 31.952 76.328 26.96 69.8 26.96C63.272 26.96 58.44 31.952 58.44 38.8ZM60.84 38.8C60.84 33.36 64.488 29.2 69.8 29.2C75.112 29.2 78.76 33.36 78.76 38.8C78.76 44.24 75.112 48.4 69.8 48.4C64.488 48.4 60.84 44.24 60.84 38.8ZM100.665 27.6H82.585V29.52H90.425V50H92.825V29.52H100.665V27.6ZM121.945 27.6H104.025V50H106.425V29.52H119.545V50H121.945V27.6ZM126.744 50H129.144V38.96H136.184C141.624 38.928 142.904 36.048 142.904 33.296C142.904 30.576 141.624 27.632 136.184 27.6H126.744V50ZM129.144 29.52H136.28C139.416 29.52 140.664 31.12 140.664 33.296C140.664 35.472 139.416 37.04 136.28 37.04H129.144V29.52ZM142.734 50H144.974L147.31 43.76H157.486L159.79 50H162.19L153.838 27.6H151.406L142.734 50ZM152.462 30.16L156.782 41.84H148.046L152.462 30.16ZM165.244 50H174.556C179.964 49.968 182.556 47.728 182.556 43.696C182.556 38.16 177.532 38.16 177.532 38.16V37.84C177.532 37.84 181.724 37.52 181.724 32.976C181.724 29.296 179.164 27.632 174.044 27.6H165.244V50ZM167.644 39.28H174.684C178.684 39.28 180.316 40.816 180.316 43.696C180.316 46.256 178.684 48.08 174.684 48.08H167.644V39.28ZM167.644 29.52H174.044C177.244 29.52 179.484 30.32 179.484 33.04C179.484 36.08 177.244 37.36 174.044 37.36H167.644V29.52ZM186.556 50H188.956L203.036 30.64V50H205.436V27.6H203.036L188.956 46.96V27.6H186.556V50ZM226.884 27.6H208.804V29.52H216.644V50H219.044V29.52H226.884V27.6ZM230.244 50H239.684C245.124 49.968 246.404 47.024 246.404 44.304C246.404 41.552 245.124 38.672 239.684 38.64H232.644V27.6H230.244V50ZM232.644 40.56H239.78C242.916 40.56 244.164 42.128 244.164 44.304C244.164 46.48 242.916 48.08 239.78 48.08H232.644V40.56Z" fill="#EC622B"/>
</svg>
